{
.appVersion = "1075";
DisplayStrings = (
g
);
customParameters = (
{
name = licenseURL;
value = "http://scripts.sil.org/OFL";
},
{
name = vendorID;
value = PfEd;
},
{
name = license;
value = "This Font Software is licensed under the SIL Open Font License, Version 1.1. This license is available with a FAQ at: http://scripts.sil.org/OFL";
},
{
name = fsType;
value = (
);
},
{
name = "Use Typo Metrics";
value = 1;
}
);
date = "2018-03-20 15:45:40 +0000";
designer = "Andrew Paglinawan, Thomas Jockin";
disablesNiceNames = 1;
familyName = "RevReading Lexend";
features = (
{
automatic = 1;
code = "script latn;\012language CAT;\012sub l periodcentered' l by periodcentered.loclCAT;\012sub L periodcentered' L by periodcentered.loclCAT.case;\012language ROM;\012sub Scedilla by Scommaaccent;\012sub scedilla by scommaaccent;\012sub Tcedilla by Tcommaaccent;\012sub tcedilla by tcommaaccent;\012language MOL;\012sub Scedilla by Scommaaccent;\012sub scedilla by scommaaccent;\012sub Tcedilla by Tcommaaccent;\012sub tcedilla by tcommaaccent;\012language KAZ;\012sub i by idotaccent;\012language TAT;\012sub i by idotaccent;\012language TRK;\012sub i by idotaccent;\012language CRT;\012sub i by idotaccent;\012language AZE;\012sub i by idotaccent;\012";
name = locl;
},
{
automatic = 1;
code = "sub one by onesuperior;\012sub two by twosuperior;\012sub three by threesuperior;\012sub zero by zerosuperior;\012sub four by foursuperior;\012sub five by fivesuperior;\012sub six by sixsuperior;\012sub seven by sevensuperior;\012sub eight by eightsuperior;\012sub nine by ninesuperior;\012";
name = sups;
},
{
automatic = 1;

glyphs = (
{
glyphname = A;
lastChange = "2016-07-29 19:43:34 +0000";
layers = (
{
anchors = (
{
name = bottom;
position = "{325, 0}";
},
{
name = ogonek;
position = "{584, 10}";
},
{
name = top;
position = "{325, 700}";
}
);
layerId = "254266E2-2911-423D-9D37-8CC6105656EE";
paths = (
{
closed = 1;
nodes = (
"312 657 LINE",
"573 13 LINE SMOOTH",
"576 5 OFFCURVE",
"584 0 OFFCURVE",
"593 0 CURVE SMOOTH",
"605 0 OFFCURVE",
"614 7 OFFCURVE",
"614 19 CURVE SMOOTH",
"614 22 OFFCURVE",
"614 24 OFFCURVE",
"613 27 CURVE SMOOTH",
"344 689 LINE",
"341 697 OFFCURVE",
"334 702 OFFCURVE",
"324 702 CURVE SMOOTH",
"315 702 OFFCURVE",
"309 700 OFFCURVE",
"305 689 CURVE",
"36 27 LINE SMOOTH",
"35 24 OFFCURVE",
"34 20 OFFCURVE",
"35 17 CURVE SMOOTH",
"36 8 OFFCURVE",
"43 0 OFFCURVE",
"56 0 CURVE SMOOTH",
"64 0 OFFCURVE",
"71 5 OFFCURVE",
"74 13 CURVE SMOOTH",
"327 649 LINE"
);
},
{
closed = 1;
nodes = (
"490 217 LINE",
"480 257 LINE",
"156 257 LINE",
"142 217 LINE"
);
}
);
width = 649;
},
{
anchors = (
{
name = bottom;
position = "{322, 0}";
},
{
name = ogonek;
position = "{579, 10}";
},
{
name = top;
position = "{322, 700}";
}
);
layerId = "8816CCA3-DDF9-4C51-BD56-64EE3675A105";
paths = (
{
closed = 1;
nodes = (
"303 537 LINE",
"518 36 LINE SMOOTH",
"529 11 OFFCURVE",
"549 -5 OFFCURVE",
"573 -5 CURVE SMOOTH",
"601 -5 OFFCURVE",
"629 18 OFFCURVE",
"629 54 CURVE SMOOTH",
"629 62 OFFCURVE",
"627 70 OFFCURVE",
"624 78 CURVE SMOOTH",
"378 664 LINE SMOOTH",
"368 689 OFFCURVE",
"346 704 OFFCURVE",
"322 704 CURVE",
"296 706 OFFCURVE",
"273 691 OFFCURVE",
"262 664 CURVE SMOOTH",
"13 66 LINE",
"11 59 OFFCURVE",
"10 53 OFFCURVE",
"10 47 CURVE SMOOTH",
"10 17 OFFCURVE",
"27 -5 OFFCURVE",
"63 -5 CURVE SMOOTH",
"86 -5 OFFCURVE",
"107 10 OFFCURVE",
"116 35 CURVE",
"332 543 LINE"
);
},
{
closed = 1;
nodes = (
"491 157 LINE",
"472 272 LINE",
"202 272 LINE",
"147 157 LINE"
);
}
);
width = 639;
}
);
leftKerningGroup = A;
note = A;
rightKerningGroup = A;
unicode = 0041;
},
{
glyphname = Aogonek;
lastChange = "2016-07-29 19:43:49 +0000";
layers = (
{
anchors = (
{
name = _ogonek;
position = "{665, 10}";
},
{
name = bottom;
position = "{325, 0}";
},
{
name = ogonek;
position = "{584, 10}";
},
{
name = top;
position = "{325, 700}";
}
);
layerId = "254266E2-2911-423D-9D37-8CC6105656EE";
paths = (
{
closed = 1;
nodes = (
"610 -185 OFFCURVE",
"646 -163 OFFCURVE",
"646 -136 CURVE",
"646 -129 OFFCURVE",
"639 -122 OFFCURVE",
"630 -122 CURVE",
"620 -122 OFFCURVE",
"616 -128 OFFCURVE",
"611 -136 CURVE SMOOTH",
"606 -145 OFFCURVE",
"595 -148 OFFCURVE",
"579 -148 CURVE",
"551 -148 OFFCURVE",
"524 -125 OFFCURVE",
"524 -85 CURVE",
"524 -46 OFFCURVE",
"559 -7 OFFCURVE",
"595 0 CURVE SMOOTH",
"607 2 OFFCURVE",
"615 6 OFFCURVE",
"615 18 CURVE SMOOTH",
"615 21 OFFCURVE",
"614 24 OFFCURVE",
"613 27 CURVE SMOOTH",
"344 689 LINE",
"341 697 OFFCURVE",
"334 702 OFFCURVE",
"324 702 CURVE SMOOTH",
"315 702 OFFCURVE",
"309 700 OFFCURVE",
"305 689 CURVE",
"36 27 LINE SMOOTH",
"35 24 OFFCURVE",
"34 20 OFFCURVE",
"35 17 CURVE SMOOTH",
"36 8 OFFCURVE",
"43 0 OFFCURVE",
"56 0 CURVE SMOOTH",
"64 0 OFFCURVE",
"71 5 OFFCURVE",
"74 13 CURVE SMOOTH",
"327 649 LINE",
"312 657 LINE",
"573 13 LINE",
"582 20 LINE",
"572 23 LINE",
"530 9 OFFCURVE",
"486 -31 OFFCURVE",
"486 -93 CURVE",
"486 -149 OFFCURVE",
"530 -185 OFFCURVE",
"574 -185 CURVE"
);
},
{
closed = 1;
nodes = (
"490 217 LINE",
"480 257 LINE",
"156 257 LINE",
"142 217 LINE"
);
}
);
width = 649;
},
{
anchors = (
{
name = _ogonek;
position = "{578.866, 10}";
},
{
name = bottom;
position = "{322, 0}";
},
{
name = ogonek;
position = "{579, 10}";
},
{
name = top;
position = "{322, 700}";
}
);
layerId = "8816CCA3-DDF9-4C51-BD56-64EE3675A105";
paths = (
{
closed = 1;
nodes = (
"586 -207 OFFCURVE",
"642 -165 OFFCURVE",
"642 -132 CURVE SMOOTH",
"642 -102 OFFCURVE",
"622 -84 OFFCURVE",
"598 -84 CURVE SMOOTH",
"588 -84 OFFCURVE",
"569 -86 OFFCURVE",
"557 -102 CURVE SMOOTH",
"551 -110 OFFCURVE",
"544 -114 OFFCURVE",
"536 -114 CURVE SMOOTH",
"522 -114 OFFCURVE",
"507 -105 OFFCURVE",
"507 -79 CURVE SMOOTH",
"507 -46 OFFCURVE",
"551 -19 OFFCURVE",
"611 -2 CURVE SMOOTH",
"632 4 OFFCURVE",
"639 21 OFFCURVE",
"639 35 CURVE SMOOTH",
"639 41 OFFCURVE",
"638 46 OFFCURVE",
"635 52 CURVE SMOOTH",
"378 664 LINE SMOOTH",
"368 689 OFFCURVE",
"346 704 OFFCURVE",
"322 704 CURVE",
"296 706 OFFCURVE",
"273 691 OFFCURVE",
"262 664 CURVE SMOOTH",
"15 69 LINE",
"12 61 OFFCURVE",
"11 53 OFFCURVE",
"11 45 CURVE SMOOTH",
"11 12 OFFCURVE",
"23 -5 OFFCURVE",
"63 -5 CURVE SMOOTH",
"86 -5 OFFCURVE",
"107 10 OFFCURVE",
"116 35 CURVE",
"332 543 LINE",
"303 537 LINE",
"530 9 LINE",
"584 21 LINE",
"589 63 LINE",
"516 42 OFFCURVE",
"406 8 OFFCURVE",
"406 -100 CURVE SMOOTH",
"406 -174 OFFCURVE",
"460 -207 OFFCURVE",
"526 -207 CURVE SMOOTH"
);
},
{
closed = 1;
nodes = (
"491 157 LINE",
"472 272 LINE",
"202 272 LINE",
"166 157 LINE"
);
}
);
width = 643;
}
);
unicode = 0104;
},
{
glyphname = Aring;
lastChange = "2016-07-26 17:16:12 +0000";
layers = (
{
anchors = (
{
name = _top;
position = "{325, 591}";
},
{
name = top;
position = "{325, 859}";
}
);
components = (
{
name = A;
}
);
layerId = "254266E2-2911-423D-9D37-8CC6105656EE";
paths = (
{
closed = 1;
nodes = (
"377 671 OFFCURVE",
"423 713 OFFCURVE",
"423 765 CURVE SMOOTH",
"423 817 OFFCURVE",
"377 859 OFFCURVE",
"325 859 CURVE SMOOTH",
"273 859 OFFCURVE",
"227 817 OFFCURVE",
"227 765 CURVE SMOOTH",
"227 713 OFFCURVE",
"273 671 OFFCURVE",
"325 671 CURVE SMOOTH"
);
},
{
closed = 1;
nodes = (
"291 703 OFFCURVE",
"263 731 OFFCURVE",
"263 765 CURVE SMOOTH",
"263 799 OFFCURVE",
"291 827 OFFCURVE",
"325 827 CURVE SMOOTH",
"359 827 OFFCURVE",
"387 799 OFFCURVE",
"387 765 CURVE SMOOTH",
"387 731 OFFCURVE",
"359 703 OFFCURVE",
"325 703 CURVE SMOOTH"
);
}
);
width = 649;
},
{
anchors = (
{
name = _top;
position = "{322, 700}";
},
{
name = top;
position = "{322, 850}";
}
);
components = (
{
name = A;
}
);
layerId = "8816CCA3-DDF9-4C51-BD56-64EE3675A105";
paths = (
{
closed = 1;
nodes = (
"382 635 OFFCURVE",
"436 685 OFFCURVE",
"436 744 CURVE",
"436 806 OFFCURVE",
"382 855 OFFCURVE",
"322 855 CURVE",
"262 855 OFFCURVE",
"208 806 OFFCURVE",
"208 744 CURVE",
"208 685 OFFCURVE",
"262 635 OFFCURVE",
"322 635 CURVE"
);
},
{
closed = 1;
nodes = (
"297 705 OFFCURVE",
"278 721 OFFCURVE",
"278 744 CURVE",
"278 770 OFFCURVE",
"297 785 OFFCURVE",
"322 785 CURVE",
"344 785 OFFCURVE",
"366 772 OFFCURVE",
"366 744 CURVE",
"366 721 OFFCURVE",
"347 705 OFFCURVE",
"322 705 CURVE"
);
}
);
width = 643;
}
);
unicode = 00C5;
},
{
glyphname = AE;
lastChange = "2016-07-29 19:57:27 +0000";
layers = (
{
anchors = (
{
name = bottom;
position = "{466, 0}";
},
{
name = top;
position = "{633, 700}";
}
);
layerId = "254266E2-2911-423D-9D37-8CC6105656EE";
paths = (
{
closed = 1;
nodes = (
"129 177 LINE",
"491 177 LINE",
"474 191 LINE",
"474 20 LINE SMOOTH",
"474 9 OFFCURVE",
"483 0 OFFCURVE",
"494 0 CURVE SMOOTH",
"861 0 LINE SMOOTH",
"872 0 OFFCURVE",
"881 8 OFFCURVE",
"881 20 CURVE SMOOTH",
"881 31 OFFCURVE",
"872 40 OFFCURVE",
"861 40 CURVE SMOOTH",
"508 40 LINE",
"514 30 LINE",
"514 350 LINE",
"506 341 LINE",
"816 341 LINE SMOOTH",
"827 341 OFFCURVE",
"836 349 OFFCURVE",
"836 361 CURVE SMOOTH",
"836 372 OFFCURVE",
"827 381 OFFCURVE",
"816 381 CURVE SMOOTH",
"508 381 LINE",
"514 371 LINE",
"514 670 LINE",
"507 660 LINE",
"861 660 LINE SMOOTH",
"872 660 OFFCURVE",
"881 668 OFFCURVE",
"881 680 CURVE SMOOTH",
"881 691 OFFCURVE",
"872 700 OFFCURVE",
"861 700 CURVE SMOOTH",
"492 700 LINE SMOOTH",
"485 700 OFFCURVE",
"479 697 OFFCURVE",
"474 691 CURVE",
"12 31 LINE SMOOTH",
"10 28 OFFCURVE",
"9 24 OFFCURVE",
"9 20 CURVE SMOOTH",
"9 8 OFFCURVE",
"18 -1 OFFCURVE",
"28 -1 CURVE SMOOTH",
"34 -1 OFFCURVE",
"41 2 OFFCURVE",
"45 8 CURVE",
"487 640 LINE",
"474 662 LINE",
"474 201 LINE",
"491 217 LINE",
"168 217 LINE"
);
}
);
width = 931;
},
{
anchors = (
{
name = bottom;
position = "{455, 0}";
},
{
name = top;
position = "{596, 700}";
}
);
layerId = "8816CCA3-DDF9-4C51-BD56-64EE3675A105";
paths = (
{
closed = 1;
nodes = (
"138 143 LINE",
"432 143 LINE",
"407 156 LINE",
"407 61 LINE SMOOTH",
"407 26 OFFCURVE",
"433 0 OFFCURVE",
"468 0 CURVE SMOOTH",
"783 0 LINE SMOOTH",
"818 0 OFFCURVE",
"844 23 OFFCURVE",
"844 57 CURVE SMOOTH",
"844 87 OFFCURVE",
"818 115 OFFCURVE",
"783 115 CURVE SMOOTH",
"522 115 LINE",
"532 89 LINE",
"532 310 LINE",
"522 295 LINE",
"738 295 LINE SMOOTH",
"773 295 OFFCURVE",
"799 317 OFFCURVE",
"799 351 CURVE SMOOTH",
"799 386 OFFCURVE",
"773 410 OFFCURVE",
"738 410 CURVE SMOOTH",
"523 410 LINE",
"532 391 LINE",
"532 594 LINE",
"522 585 LINE",
"783 585 LINE SMOOTH",
"818 585 OFFCURVE",
"844 607 OFFCURVE",
"844 641 CURVE SMOOTH",
"844 676 OFFCURVE",
"818 700 OFFCURVE",
"783 700 CURVE SMOOTH",
"481 700 LINE SMOOTH",
"460 700 OFFCURVE",
"439 694 OFFCURVE",
"425 674 CURVE SMOOTH",
"17 89 LINE SMOOTH",
"8 76 OFFCURVE",
"3 62 OFFCURVE",
"4 48 CURVE SMOOTH",
"6 15 OFFCURVE",
"34 -5 OFFCURVE",
"60 -5 CURVE SMOOTH",
"76 -5 OFFCURVE",
"91 3 OFFCURVE",
"103 19 CURVE",
"428 501 LINE",
"407 507 LINE",
"407 218 LINE",
"425 256 LINE",
"197 256 LINE"
);
}
);
width = 884;
}
);
note = AE;
rightMetricsKey = E;
unicode = 00C6;
},
{
glyphname = B;
lastChange = "2016-07-29 19:46:37 +0000";
layers = (
{
anchors = (
{
name = bottom;
position = "{325, 0}";
},
{
name = top;
position = "{325, 700}";
}
);
layerId = "254266E2-2911-423D-9D37-8CC6105656EE";
paths = (
{
closed = 1;
nodes = (
"120 700 LINE",
"109 700 OFFCURVE",
"100 691 OFFCURVE",
"100 680 CURVE",
"100 20 LINE",
"100 9 OFFCURVE",
"109 0 OFFCURVE",
"120 0 CURVE",
"396 0 LINE",
"509 0 OFFCURVE",
"600 62 OFFCURVE",
"600 189 CURVE",
"600 308 OFFCURVE",
"518 370 OFFCURVE",
"414 370 CURVE",
"421 358 LINE",
"514 365 OFFCURVE",
"565 447 OFFCURVE",
"565 530 CURVE",
"565 634 OFFCURVE",
"496 700 OFFCURVE",
"389 700 CURVE"
);
},
{
closed = 1;
nodes = (
"473 660 OFFCURVE",
"523 608 OFFCURVE",
"523 531 CURVE",
"523 431 OFFCURVE",
"463 380 OFFCURVE",
"384 379 CURVE",
"132 379 LINE",
"142 362 LINE",
"142 679 LINE",
"131 660 LINE",
"384 660 LINE"
);
},
{
closed = 1;
nodes = (
"485 338 OFFCURVE",
"558 293 OFFCURVE",
"558 189 CURVE",
"558 85 OFFCURVE",
"485 40 OFFCURVE",
"391 40 CURVE",
"137 40 LINE",
"142 32 LINE",
"142 344 LINE",
"138 338 LINE",
"391 338 LINE"
);
}
);
width = 650;
},
{
anchors = (
{
name = bottom;
position = "{328, 0}";
},
{
name = top;
position = "{328, 700}";
}
);
layerId = "8816CCA3-DDF9-4C51-BD56-64EE3675A105";
paths = (
{
closed = 1;
nodes = (
"136 700 LINE",
"101 700 OFFCURVE",
"75 674 OFFCURVE",
"75 639 CURVE",
"75 61 LINE",
"75 26 OFFCURVE",
"101 0 OFFCURVE",
"136 0 CURVE",
"385 0 LINE",
"484 0 OFFCURVE",
"615 36 OFFCURVE",
"615 213 CURVE",
"615 373 OFFCURVE",
"462 410 OFFCURVE",
"380 410 CURVE",
"376 365 LINE",
"508 365 OFFCURVE",
"578 428 OFFCURVE",
"578 522 CURVE",
"578 639 OFFCURVE",
"516 700 OFFCURVE",
"388 700 CURVE"
);
},
{
closed = 1;
nodes = (
"417 582 OFFCURVE",
"448 557 OFFCURVE",
"448 500 CURVE",
"448 452 OFFCURVE",
"411 426 OFFCURVE",
"373 426 CURVE",
"193 426 LINE",
"205 417 LINE",
"205 598 LINE",
"192 582 LINE",
"370 582 LINE"
);
},
{
closed = 1;
nodes = (
"419 308 OFFCURVE",
"485 302 OFFCURVE",
"485 213 CURVE",
"485 148 OFFCURVE",
"446 115 OFFCURVE",
"385 115 CURVE",
"195 115 LINE",
"205 105 LINE",
"205 316 LINE",
"196 308 LINE",
"378 308 LINE"
);
}
);
width = 655;
}
);
leftMetricsKey = H;
note = B;
rightKerningGroup = B;
rightMetricsKey = O;
unicode = 0042;
},
{
glyphname = C;
lastChange = "2016-07-27 21:05:05 +0000";
layers = (
{
anchors = (
{
name = bottom;
position = "{411, 0}";
},
{
name = top;
position = "{399, 700}";
}
);
layerId = "254266E2-2911-423D-9D37-8CC6105656EE";
paths = (
{
closed = 1;
nodes = (
"558 684 OFFCURVE",
"480 710 OFFCURVE",
"399 710 CURVE",
"208 710 OFFCURVE",
"50 557 OFFCURVE",
"50 350 CURVE",
"50 143 OFFCURVE",
"208 -10 OFFCURVE",
"399 -10 CURVE",
"480 -10 OFFCURVE",
"570 23 OFFCURVE",
"619 58 CURVE",
"628 65 OFFCURVE",
"630 77 OFFCURVE",
"623 86 CURVE",
"616 95 OFFCURVE",
"604 97 OFFCURVE",
"595 90 CURVE",
"539 52 OFFCURVE",
"474 28 OFFCURVE",
"399 28 CURVE",
"229 28 OFFCURVE",
"92 161 OFFCURVE",
"92 350 CURVE",
"92 539 OFFCURVE",
"229 672 OFFCURVE",
"399 672 CURVE",
"473 672 OFFCURVE",
"540 647 OFFCURVE",
"596 609 CURVE",
"605 603 OFFCURVE",
"616 604 OFFCURVE",
"623 613 CURVE",
"630 624 OFFCURVE",
"628 634 OFFCURVE",
"618 642 CURVE"
);
}
);
width = 662;
},
{
anchors = (
{
name = bottom;
position = "{384, 0}";
},
{
name = top;
position = "{364, 700}";
}
);
layerId = "8816CCA3-DDF9-4C51-BD56-64EE3675A105";
paths = (
{
closed = 1;
nodes = (
"516 691 OFFCURVE",
"459 705 OFFCURVE",
"400 705 CURVE",
"191 705 OFFCURVE",
"40 556 OFFCURVE",
"40 350 CURVE",
"40 112 OFFCURVE",
"209 -10 OFFCURVE",
"400 -10 CURVE",
"457 -10 OFFCURVE",
"514 3 OFFCURVE",
"566 29 CURVE",
"599 45 OFFCURVE",
"608 85 OFFCURVE",
"582 119 CURVE",
"563 143 OFFCURVE",
"534 146 OFFCURVE",
"506 133 CURVE",
"473 116 OFFCURVE",
"436 110 OFFCURVE",
"400 110 CURVE",
"269 110 OFFCURVE",
"170 187 OFFCURVE",
"170 350 CURVE",
"170 489 OFFCURVE",
"257 585 OFFCURVE",
"400 585 CURVE",
"438 585 OFFCURVE",
"474 577 OFFCURVE",
"506 562 CURVE",
"534 548 OFFCURVE",
"563 550 OFFCURVE",
"581 574 CURVE",
"606 605 OFFCURVE",
"600 648 OFFCURVE",
"565 666 CURVE"
);
}
);
width = 627;
}
);
leftKerningGroup = C;
leftMetricsKey = O;
note = C;
unicode = 0043;
},
{
glyphname = D;
lastChange = "2016-07-29 19:47:25 +0000";
layers = (
{
anchors = (
{
name = bottom;
position = "{320, 0}";
},
{
name = center;
position = "{124, 350}";
},
{
name = top;
position = "{313, 700}";
}
);
layerId = "254266E2-2911-423D-9D37-8CC6105656EE";
paths = (
{
closed = 1;
nodes = (
"120 700 LINE SMOOTH",
"109 700 OFFCURVE",
"100 691 OFFCURVE",
"100 680 CURVE SMOOTH",
"100 20 LINE SMOOTH",
"100 9 OFFCURVE",
"109 0 OFFCURVE",
"120 0 CURVE SMOOTH",
"380 0 LINE SMOOTH",
"581 0 OFFCURVE",
"670 158 OFFCURVE",
"670 350 CURVE SMOOTH",
"670 532 OFFCURVE",
"581 700 OFFCURVE",
"380 700 CURVE SMOOTH"
);
},
{
closed = 1;
nodes = (
"136 40 LINE",
"142 31 LINE",
"142 668 LINE",
"136 660 LINE",
"370 660 LINE SMOOTH",
"553 660 OFFCURVE",
"628 513 OFFCURVE",
"628 350 CURVE SMOOTH",
"628 177 OFFCURVE",
"553 40 OFFCURVE",
"370 40 CURVE SMOOTH"
);
}
);
width = 720;
},
{
anchors = (
{
name = bottom;
position = "{318, 0}";
},
{
name = center;
position = "{134, 350}";
},
{
name = top;
position = "{308, 700}";
}
);
layerId = "8816CCA3-DDF9-4C51-BD56-64EE3675A105";
paths = (
{
closed = 1;
nodes = (
"136 700 LINE SMOOTH",
"101 700 OFFCURVE",
"75 674 OFFCURVE",
"75 639 CURVE SMOOTH",
"75 61 LINE SMOOTH",
"75 26 OFFCURVE",
"101 0 OFFCURVE",
"136 0 CURVE SMOOTH",
"375 0 LINE SMOOTH",
"568 0 OFFCURVE",
"675 156 OFFCURVE",
"675 350 CURVE SMOOTH",
"675 543 OFFCURVE",
"568 700 OFFCURVE",
"375 700 CURVE SMOOTH"
);
},
{
closed = 1;
nodes = (
"194 115 LINE",
"200 104 LINE",
"200 594 LINE",
"190 585 LINE",
"365 585 LINE SMOOTH",
"491 585 OFFCURVE",
"545 476 OFFCURVE",
"545 350 CURVE SMOOTH",
"545 223 OFFCURVE",
"491 115 OFFCURVE",
"365 115 CURVE SMOOTH"
);
}
);
width = 715;
}
);
leftMetricsKey = H;
note = D;
rightKerningGroup = D;
rightMetricsKey = O;
unicode = 0044;
},
{
glyphname = E;
lastChange = "2016-07-29 19:47:56 +0000";
layers = (
{
anchors = (
{
name = bottom;
position = "{320, 0}";
},
{
name = ogonek;
position = "{510, 10}";
},
{
name = top;
position = "{322, 700}";
},
{
name = topleft;
position = "{20, 700}";
}
);
layerId = "254266E2-2911-423D-9D37-8CC6105656EE";
paths = (
{
closed = 1;
nodes = (
"109 700 OFFCURVE",
"100 691 OFFCURVE",
"100 680 CURVE SMOOTH",
"100 20 LINE SMOOTH",
"100 9 OFFCURVE",
"109 0 OFFCURVE",
"120 0 CURVE SMOOTH",
"497 0 LINE SMOOTH",
"508 0 OFFCURVE",
"517 8 OFFCURVE",
"517 20 CURVE SMOOTH",
"517 31 OFFCURVE",
"508 40 OFFCURVE",
"497 40 CURVE SMOOTH",
"138 40 LINE",
"142 35 LINE",
"142 352 LINE",
"132 341 LINE",
"452 341 LINE SMOOTH",
"463 341 OFFCURVE",
"472 349 OFFCURVE",
"472 361 CURVE SMOOTH",
"472 372 OFFCURVE",
"463 381 OFFCURVE",
"452 381 CURVE SMOOTH",
"130 381 LINE",
"142 367 LINE",
"142 677 LINE",
"132 660 LINE",
"497 660 LINE SMOOTH",
"508 660 OFFCURVE",
"517 668 OFFCURVE",
"517 680 CURVE SMOOTH",
"517 691 OFFCURVE",
"508 700 OFFCURVE",
"497 700 CURVE SMOOTH",
"120 700 LINE SMOOTH"
);
}
);
width = 567;
},
{
anchors = (
{
name = bottom;
position = "{286, 0}";
},
{
name = ogonek;
position = "{425, 10}";
},
{
name = top;
position = "{306, 700}";
},
{
name = topleft;
position = "{20, 700}";
}
);
layerId = "8816CCA3-DDF9-4C51-BD56-64EE3675A105";
paths = (
{
closed = 1;
nodes = (
"101 700 OFFCURVE",
"75 674 OFFCURVE",
"75 639 CURVE",
"75 61 LINE",
"75 26 OFFCURVE",
"101 0 OFFCURVE",
"136 0 CURVE",
"471 0 LINE",
"506 0 OFFCURVE",
"532 23 OFFCURVE",
"532 57 CURVE",
"532 87 OFFCURVE",
"506 115 OFFCURVE",
"471 115 CURVE",
"192 115 LINE",
"200 106 LINE",
"200 308 LINE",
"195 300 LINE",
"426 300 LINE",
"461 300 OFFCURVE",
"487 322 OFFCURVE",
"487 356 CURVE",
"487 391 OFFCURVE",
"461 415 OFFCURVE",
"426 415 CURVE",
"192 415 LINE",
"200 407 LINE",
"200 602 LINE",
"191 585 LINE",
"471 585 LINE",
"506 585 OFFCURVE",
"532 607 OFFCURVE",
"532 641 CURVE",
"532 676 OFFCURVE",
"506 700 OFFCURVE",
"471 700 CURVE",
"136 700 LINE"
);
}
);
width = 572;
}
);
leftMetricsKey = H;
note = E;
rightKerningGroup = E;
unicode = 0045;
},
{
glyphname = Eogonek;
lastChange = "2016-07-29 19:57:10 +0000";
layers = (
{
anchors = (
{
name = _ogonek;
position = "{550, 10}";
},
{
name = bottom;
position = "{320, 0}";
},
{
name = ogonek;
position = "{510, 10}";
},
{
name = top;
position = "{304, 700}";
},
{
name = topleft;
position = "{20, 700}";
}
);
layerId = "254266E2-2911-423D-9D37-8CC6105656EE";
paths = (
{
closed = 1;
nodes = (
"500 -185 OFFCURVE",
"531 -163 OFFCURVE",
"531 -136 CURVE",
"531 -129 OFFCURVE",
"526 -122 OFFCURVE",
"517 -122 CURVE",
"507 -122 OFFCURVE",
"501 -128 OFFCURVE",
"496 -137 CURVE SMOOTH",
"492 -145 OFFCURVE",
"481 -148 OFFCURVE",
"464 -148 CURVE",
"436 -148 OFFCURVE",
"409 -125 OFFCURVE",
"409 -85 CURVE",
"409 -39 OFFCURVE",
"456 -3 OFFCURVE",
"492 -1 CURVE SMOOTH",
"508 0 OFFCURVE",
"517 8 OFFCURVE",
"517 20 CURVE SMOOTH",
"517 31 OFFCURVE",
"508 40 OFFCURVE",
"497 40 CURVE SMOOTH",
"138 40 LINE",
"142 35 LINE",
"142 352 LINE",
"132 341 LINE",
"452 341 LINE SMOOTH",
"463 341 OFFCURVE",
"472 349 OFFCURVE",
"472 361 CURVE SMOOTH",
"472 372 OFFCURVE",
"463 381 OFFCURVE",
"452 381 CURVE SMOOTH",
"130 381 LINE",
"142 367 LINE",
"142 677 LINE",
"132 660 LINE",
"497 660 LINE SMOOTH",
"508 660 OFFCURVE",
"517 668 OFFCURVE",
"517 680 CURVE SMOOTH",
"517 691 OFFCURVE",
"508 700 OFFCURVE",
"497 700 CURVE SMOOTH",
"120 700 LINE SMOOTH",
"109 700 OFFCURVE",
"100 691 OFFCURVE",
"100 680 CURVE SMOOTH",
"100 20 LINE SMOOTH",
"100 9 OFFCURVE",
"109 0 OFFCURVE",
"120 0 CURVE SMOOTH",
"465 0 LINE",
"457 17 LINE",
"415 3 OFFCURVE",
"371 -31 OFFCURVE",
"371 -93 CURVE",
"371 -149 OFFCURVE",
"415 -185 OFFCURVE",
"459 -185 CURVE"
);
}
);
width = 581;
},
{
anchors = (
{
name = _ogonek;
position = "{424.866, 10}";
},
{
name = bottom;
position = "{286, 0}";
},
{
name = ogonek;
position = "{425, 10}";
},
{
name = top;
position = "{289, 700}";
},
{
name = topleft;
position = "{20, 700}";
}
);
layerId = "8816CCA3-DDF9-4C51-BD56-64EE3675A105";
paths = (
{
closed = 1;
nodes = (
"452 -207 OFFCURVE",
"508 -165 OFFCURVE",
"508 -132 CURVE SMOOTH",
"508 -102 OFFCURVE",
"488 -84 OFFCURVE",
"464 -84 CURVE SMOOTH",
"454 -84 OFFCURVE",
"435 -86 OFFCURVE",
"423 -102 CURVE SMOOTH",
"417 -110 OFFCURVE",
"410 -114 OFFCURVE",
"402 -114 CURVE SMOOTH",
"386 -114 OFFCURVE",
"371 -102 OFFCURVE",
"371 -78 CURVE SMOOTH",
"371 -45 OFFCURVE",
"413 -14 OFFCURVE",
"473 0 CURVE SMOOTH",
"508 8 OFFCURVE",
"532 23 OFFCURVE",
"532 57 CURVE",
"532 93 OFFCURVE",
"506 115 OFFCURVE",
"471 115 CURVE",
"192 115 LINE",
"200 106 LINE",
"200 308 LINE",
"195 300 LINE",
"426 300 LINE",
"461 300 OFFCURVE",
"487 329 OFFCURVE",
"487 356 CURVE",
"487 391 OFFCURVE",
"461 415 OFFCURVE",
"426 415 CURVE",
"192 415 LINE",
"200 407 LINE",
"200 603 LINE",
"191 586 LINE",
"471 586 LINE",
"506 586 OFFCURVE",
"532 613 OFFCURVE",
"532 641 CURVE",
"532 676 OFFCURVE",
"506 700 OFFCURVE",
"471 700 CURVE",
"136 700 LINE",
"101 700 OFFCURVE",
"75 674 OFFCURVE",
"75 639 CURVE",
"75 61 LINE",
"75 26 OFFCURVE",
"101 0 OFFCURVE",
"136 0 CURVE",
"457 0 LINE",
"465 56 LINE",
"386 35 OFFCURVE",
"272 -10 OFFCURVE",
"272 -100 CURVE SMOOTH",
"272 -174 OFFCURVE",
"326 -207 OFFCURVE",
"392 -207 CURVE SMOOTH"
);
}
);
width = 572;
}
);
leftMetricsKey = E;
note = Eogonek;
rightMetricsKey = E;
unicode = 0118;
},
{
glyphname = F;
lastChange = "2016-07-29 19:48:09 +0000";
layers = (
{
anchors = (
{
name = bottom;
position = "{284, 0}";
},
{
name = center;
position = "{127, 214}";
},
{
name = top;
position = "{284, 700}";
}
);
layerId = "254266E2-2911-423D-9D37-8CC6105656EE";
paths = (
{
closed = 1;
nodes = (
"132 0 OFFCURVE",
"140 9 OFFCURVE",
"140 20 CURVE SMOOTH",
"140 352 LINE",
"134 344 LINE",
"452 344 LINE SMOOTH",
"463 344 OFFCURVE",
"472 352 OFFCURVE",
"472 364 CURVE SMOOTH",
"472 375 OFFCURVE",
"463 384 OFFCURVE",
"452 384 CURVE SMOOTH",
"136 384 LINE",
"140 376 LINE",
"140 664 LINE",
"137 660 LINE",
"497 660 LINE SMOOTH",
"508 660 OFFCURVE",
"517 668 OFFCURVE",
"517 680 CURVE SMOOTH",
"517 691 OFFCURVE",
"508 700 OFFCURVE",
"497 700 CURVE SMOOTH",
"120 700 LINE SMOOTH",
"109 700 OFFCURVE",
"100 691 OFFCURVE",
"100 680 CURVE SMOOTH",
"100 20 LINE SMOOTH",
"100 9 OFFCURVE",
"108 0 OFFCURVE",
"120 0 CURVE SMOOTH"
);
}
);
width = 567;
},
{
anchors = (
{
name = bottom;
position = "{281, 0}";
},
{
name = center;
position = "{132, 186}";
},
{
name = top;
position = "{281, 700}";
}
);
layerId = "8816CCA3-DDF9-4C51-BD56-64EE3675A105";
paths = (
{
closed = 1;
nodes = (
"171 0 OFFCURVE",
"200 26 OFFCURVE",
"200 61 CURVE",
"200 303 LINE",
"191 294 LINE",
"416 294 LINE",
"451 294 OFFCURVE",
"477 321 OFFCURVE",
"477 350 CURVE",
"477 385 OFFCURVE",
"451 409 OFFCURVE",
"416 409 CURVE",
"193 409 LINE",
"200 396 LINE",
"200 597 LINE",
"191 585 LINE",
"461 585 LINE",
"496 585 OFFCURVE",
"522 612 OFFCURVE",
"522 641 CURVE",
"522 676 OFFCURVE",
"496 700 OFFCURVE",
"461 700 CURVE",
"136 700 LINE",
"101 700 OFFCURVE",
"75 674 OFFCURVE",
"75 639 CURVE",
"75 61 LINE",
"75 26 OFFCURVE",
"100 0 OFFCURVE",
"138 0 CURVE"
);
}
);
width = 562;
}
);
leftMetricsKey = H;
note = F;
rightKerningGroup = F;
unicode = 0046;
},
{
glyphname = G;
lastChange = "2016-07-28 22:38:22 +0000";
layers = (
{
anchors = (
{
name = bottom;
position = "{388, 0}";
},
{
name = top;
position = "{377, 700}";
}
);
layerId = "254266E2-2911-423D-9D37-8CC6105656EE";
paths = (
{
closed = 1;
nodes = (
"486 -10 OFFCURVE",
"561 16 OFFCURVE",
"620 56 CURVE",
"627 61 OFFCURVE",
"629 69 OFFCURVE",
"629 74 CURVE",
"629 325 LINE",
"629 336 OFFCURVE",
"621 345 OFFCURVE",
"609 345 CURVE",
"409 345 LINE",
"398 345 OFFCURVE",
"389 337 OFFCURVE",
"389 325 CURVE",
"389 314 OFFCURVE",
"398 305 OFFCURVE",
"409 305 CURVE",
"603 305 LINE",
"589 318 LINE",
"589 68 LINE",
"593 86 LINE",
"543 53 OFFCURVE",
"475 30 OFFCURVE",
"409 30 CURVE",
"223 30 OFFCURVE",
"92 164 OFFCURVE",
"92 350 CURVE",
"92 536 OFFCURVE",
"223 670 OFFCURVE",
"409 670 CURVE",
"474 670 OFFCURVE",
"533 651 OFFCURVE",
"583 623 CURVE",
"587 621 OFFCURVE",
"591 619 OFFCURVE",
"596 619 CURVE",
"603 619 OFFCURVE",
"615 625 OFFCURVE",
"615 639 CURVE",
"615 646 OFFCURVE",
"612 652 OFFCURVE",
"606 656 CURVE",
"552 692 OFFCURVE",
"482 710 OFFCURVE",
"409 710 CURVE",
"201 710 OFFCURVE",
"50 559 OFFCURVE",
"50 350 CURVE",
"50 141 OFFCURVE",
"201 -10 OFFCURVE",
"409 -10 CURVE"
);
}
);
width = 694;
},
{
anchors = (
{
name = bottom;
position = "{402, 0}";
},
{
name = top;
position = "{388, 700}";
}
);
layerId = "8816CCA3-DDF9-4C51-BD56-64EE3675A105";
paths = (
{
closed = 1;
nodes = (
"485 -10 OFFCURVE",
"559 13 OFFCURVE",
"620 51 CURVE",
"636 61 OFFCURVE",
"651 78 OFFCURVE",
"651 105 CURVE",
"651 317 LINE",
"651 352 OFFCURVE",
"626 378 OFFCURVE",
"591 378 CURVE",
"427 378 LINE",
"392 378 OFFCURVE",
"366 353 OFFCURVE",
"366 318 CURVE",
"366 283 OFFCURVE",
"392 258 OFFCURVE",
"427 258 CURVE",
"538 258 LINE",
"521 273 LINE",
"521 102 LINE",
"530 132 LINE",
"499 118 OFFCURVE",
"445 110 OFFCURVE",
"405 110 CURVE",
"275 110 OFFCURVE",
"170 219 OFFCURVE",
"170 350 CURVE",
"170 482 OFFCURVE",
"275 590 OFFCURVE",
"405 590 CURVE",
"446 590 OFFCURVE",
"484 581 OFFCURVE",
"517 567 CURVE",
"528 562 OFFCURVE",
"539 559 OFFCURVE",
"550 559 CURVE",
"583 559 OFFCURVE",
"607 589 OFFCURVE",
"607 621 CURVE",
"607 640 OFFCURVE",
"597 659 OFFCURVE",
"577 670 CURVE",
"528 697 OFFCURVE",
"467 710 OFFCURVE",
"405 710 CURVE",
"203 710 OFFCURVE",
"40 549 OFFCURVE",
"40 350 CURVE",
"40 151 OFFCURVE",
"203 -10 OFFCURVE",
"405 -10 CURVE"
);
}
);
width = 696;
}
);
leftKerningGroup = C;
leftMetricsKey = O;
note = G;
rightKerningGroup = G;
unicode = 0047;
},
{
glyphname = H;
lastChange = "2016-07-29 19:48:25 +0000";
layers = (
{
anchors = (
{
name = bottom;
position = "{360, 0}";
},
{
name = center;
position = "{360, 350}";
},
{
name = top;
position = "{360, 700}";
},
{
name = topleft;
position = "{20, 700}";
}
);
background = {
paths = (
{
closed = 1;
nodes = (
"587 700 OFFCURVE",
"579 691 OFFCURVE",
"579 680 CURVE SMOOTH",
"579 385 LINE SMOOTH",
"579 382 OFFCURVE",
"577 380 OFFCURVE",
"574 380 CURVE SMOOTH",
"145 380 LINE SMOOTH",
"142 380 OFFCURVE",
"140 382 OFFCURVE",
"140 385 CURVE SMOOTH",
"140 680 LINE SMOOTH",
"140 691 OFFCURVE",
"132 700 OFFCURVE",
"120 700 CURVE SMOOTH",
"109 700 OFFCURVE",
"100 691 OFFCURVE",
"100 680 CURVE SMOOTH",
"100 20 LINE SMOOTH",
"100 9 OFFCURVE",
"108 0 OFFCURVE",
"120 0 CURVE SMOOTH",
"131 0 OFFCURVE",
"140 9 OFFCURVE",
"140 20 CURVE SMOOTH",
"140 335 LINE SMOOTH",
"140 338 OFFCURVE",
"142 340 OFFCURVE",
"145 340 CURVE SMOOTH",
"574 340 LINE SMOOTH",
"577 340 OFFCURVE",
"579 338 OFFCURVE",
"579 335 CURVE SMOOTH",
"579 20 LINE SMOOTH",
"579 9 OFFCURVE",
"587 0 OFFCURVE",
"599 0 CURVE SMOOTH",
"610 0 OFFCURVE",
"619 9 OFFCURVE",
"619 20 CURVE SMOOTH",
"619 680 LINE SMOOTH",
"619 691 OFFCURVE",
"611 700 OFFCURVE",
"599 700 CURVE SMOOTH"
);
}
);
};
layerId = "254266E2-2911-423D-9D37-8CC6105656EE";
paths = (
{
closed = 1;
nodes = (
"109 700 OFFCURVE",
"100 691 OFFCURVE",
"100 679 CURVE SMOOTH",
"100 21 LINE SMOOTH",
"100 9 OFFCURVE",
"108 0 OFFCURVE",
"121 0 CURVE SMOOTH",
"132 0 OFFCURVE",
"141 9 OFFCURVE",
"142 21 CURVE",
"142 679 LINE SMOOTH",
"142 691 OFFCURVE",
"133 700 OFFCURVE",
"121 700 CURVE SMOOTH"
);
},
{
closed = 1;
nodes = (
"587 700 OFFCURVE",
"578 691 OFFCURVE",
"578 679 CURVE SMOOTH",
"578 21 LINE SMOOTH",
"578 9 OFFCURVE",
"586 0 OFFCURVE",
"599 0 CURVE SMOOTH",
"610 0 OFFCURVE",
"619 9 OFFCURVE",
"620 21 CURVE",
"620 679 LINE SMOOTH",
"620 691 OFFCURVE",
"611 700 OFFCURVE",
"599 700 CURVE SMOOTH"
);
},
{
closed = 1;
nodes = (
"110 340 LINE",
"599 340 LINE",
"601 380 LINE",
"116 380 LINE"
);
}
);
width = 720;
},
{
anchors = (
{
name = bottom;
position = "{360, 0}";
},
{
name = center;
position = "{360, 350}";
},
{
name = top;
position = "{360, 700}";
},
{
name = topleft;
position = "{20, 700}";
}
);
background = {
paths = (
{
closed = 1;
nodes = (
"539 419 LINE SMOOTH",
"539 413 OFFCURVE",
"535 409 OFFCURVE",
"529 409 CURVE SMOOTH",
"210 409 LINE SMOOTH",
"204 409 OFFCURVE",
"200 412 OFFCURVE",
"200 419 CURVE SMOOTH",
"200 639 LINE SMOOTH",
"200 674 OFFCURVE",
"175 700 OFFCURVE",
"140 700 CURVE SMOOTH",
"105 700 OFFCURVE",
"80 674 OFFCURVE",
"80 639 CURVE SMOOTH",
"80 61 LINE SMOOTH",
"80 26 OFFCURVE",
"105 0 OFFCURVE",
"140 0 CURVE SMOOTH",
"175 0 OFFCURVE",
"200 26 OFFCURVE",
"200 61 CURVE SMOOTH",
"200 279 LINE SMOOTH",
"200 286 OFFCURVE",
"204 289 OFFCURVE",
"210 289 CURVE SMOOTH",
"529 289 LINE SMOOTH",
"536 289 OFFCURVE",
"539 286 OFFCURVE",
"539 279 CURVE SMOOTH",
"539 61 LINE SMOOTH",
"539 26 OFFCURVE",
"564 0 OFFCURVE",
"599 0 CURVE SMOOTH",
"634 0 OFFCURVE",
"659 26 OFFCURVE",
"659 61 CURVE SMOOTH",
"659 639 LINE SMOOTH",
"659 674 OFFCURVE",
"634 700 OFFCURVE",
"599 700 CURVE SMOOTH",
"564 700 OFFCURVE",
"539 674 OFFCURVE",
"539 639 CURVE SMOOTH"
);
}
);
};
layerId = "8816CCA3-DDF9-4C51-BD56-64EE3675A105";
paths = (
{
closed = 1;
nodes = (
"101 700 OFFCURVE",
"75 674 OFFCURVE",
"75 639 CURVE SMOOTH",
"75 61 LINE SMOOTH",
"75 26 OFFCURVE",
"100 0 OFFCURVE",
"137 0 CURVE SMOOTH",
"170 0 OFFCURVE",
"200 26 OFFCURVE",
"200 61 CURVE SMOOTH",
"200 639 LINE SMOOTH",
"200 674 OFFCURVE",
"171 700 OFFCURVE",
"139 700 CURVE SMOOTH"
);
},
{
closed = 1;
nodes = (
"549 700 OFFCURVE",
"519 674 OFFCURVE",
"519 639 CURVE SMOOTH",
"519 61 LINE SMOOTH",
"519 26 OFFCURVE",
"548 0 OFFCURVE",
"580 0 CURVE SMOOTH",
"618 0 OFFCURVE",
"644 26 OFFCURVE",
"644 61 CURVE SMOOTH",
"644 639 LINE SMOOTH",
"644 674 OFFCURVE",
"619 700 OFFCURVE",
"582 700 CURVE SMOOTH"
);
},
{
closed = 1;
nodes = (
"136 294 LINE",
"582 294 LINE",
"582 409 LINE",
"136 409 LINE"
);
}
);
width = 719;
}
);
leftMetricsKey = H;
note = H;
rightMetricsKey = H;
unicode = 0048;
},
{
glyphname = Hbar;
lastChange = "2016-07-26 14:03:55 +0000";
layers = (
{
components = (
{
name = H;
transform = "{1, 0, 0, 1, 60, 0}";
}
);
layerId = "254266E2-2911-423D-9D37-8CC6105656EE";
paths = (
{
closed = 1;
nodes = (
"721 489 LINE SMOOTH",
"732 489 OFFCURVE",
"741 497 OFFCURVE",
"741 509 CURVE SMOOTH",
"741 520 OFFCURVE",
"732 529 OFFCURVE",
"721 529 CURVE SMOOTH",
"120 529 LINE SMOOTH",
"109 529 OFFCURVE",
"100 521 OFFCURVE",
"100 509 CURVE SMOOTH",
"100 498 OFFCURVE",
"109 489 OFFCURVE",
"120 489 CURVE SMOOTH"
);
}
);
width = 841;
},
{
components = (
{
name = H;
transform = "{1, 0, 0, 1, 43, 0}";
}
);
layerId = "8816CCA3-DDF9-4C51-BD56-64EE3675A105";
paths = (
{
closed = 1;
nodes = (
"714 490 LINE SMOOTH",
"744 490 OFFCURVE",
"765 511 OFFCURVE",
"765 539 CURVE SMOOTH",
"765 569 OFFCURVE",
"744 590 OFFCURVE",
"714 590 CURVE SMOOTH",
"91 590 LINE SMOOTH",
"61 590 OFFCURVE",
"40 569 OFFCURVE",
"40 541 CURVE SMOOTH",
"40 511 OFFCURVE",
"61 490 OFFCURVE",
"91 490 CURVE SMOOTH"
);
}
);
width = 805;
}
);
note = Hbar;
unicode = 0126;
},
{
glyphname = I;
lastChange = "2016-07-29 19:44:34 +0000";
layers = (
{
anchors = (
{
name = bottom;
position = "{121, 0}";
},
{
name = ogonek;
position = "{218, 10}";
},
{
name = top;
position = "{121, 700}";
},
{
name = topleft;
position = "{20, 700}";
}
);
layerId = "254266E2-2911-423D-9D37-8CC6105656EE";
paths = (
{
closed = 1;
nodes = (
"142 679 LINE SMOOTH",
"142 691 OFFCURVE",
"133 700 OFFCURVE",
"121 700 CURVE SMOOTH",
"109 700 OFFCURVE",
"100 691 OFFCURVE",
"100 679 CURVE SMOOTH",
"100 21 LINE SMOOTH",
"100 9 OFFCURVE",
"108 0 OFFCURVE",
"121 0 CURVE SMOOTH",
"132 0 OFFCURVE",
"141 9 OFFCURVE",
"142 21 CURVE"
);
}
);
width = 242;
},
{
anchors = (
{
name = bottom;
position = "{140, 0}";
},
{
name = ogonek;
position = "{252, 10}";
},
{
name = top;
position = "{140, 700}";
},
{
name = topleft;
position = "{20, 700}";
}
);
layerId = "8816CCA3-DDF9-4C51-BD56-64EE3675A105";
paths = (
{
closed = 1;
nodes = (
"200 639 LINE",
"200 674 OFFCURVE",
"171 700 OFFCURVE",
"139 700 CURVE",
"101 700 OFFCURVE",
"75 674 OFFCURVE",
"75 639 CURVE",
"75 61 LINE",
"75 26 OFFCURVE",
"100 0 OFFCURVE",
"137 0 CURVE",
"170 0 OFFCURVE",
"200 26 OFFCURVE",
"200 61 CURVE"
);
}
);
width = 275;
}
);
leftMetricsKey = H;
note = I;
rightMetricsKey = H;
unicode = 0049;
},
{
glyphname = IJ;
lastChange = "2016-07-29 19:44:47 +0000";
layers = (
{
anchors = (
{
name = bottom;
position = "{137, 0}";
},
{
name = ogonek;
position = "{234, 10}";
},
{
name = top;
position = "{483, 700}";
},
{
name = topleft;
position = "{137, 700}";
}
);
components = (
{
name = J;
transform = "{1, 0, 0, 1, 25, 0}";
}
);
layerId = "254266E2-2911-423D-9D37-8CC6105656EE";
paths = (
{
closed = 1;
nodes = (
"158 679 LINE SMOOTH",
"158 691 OFFCURVE",
"149 700 OFFCURVE",
"137 700 CURVE SMOOTH",
"125 700 OFFCURVE",
"116 691 OFFCURVE",
"116 679 CURVE SMOOTH",
"116 251 LINE SMOOTH",
"116 239 OFFCURVE",
"124 230 OFFCURVE",
"137 230 CURVE SMOOTH",
"148 230 OFFCURVE",
"157 239 OFFCURVE",
"158 251 CURVE"
);
}
);
width = 603;
},
{
anchors = (
{
name = bottom;
position = "{-105, 239}";
},
{
name = ogonek;
position = "{7, 10}";
},
{
name = top;
position = "{-105, 700}";
},
{
name = topleft;
position = "{-225, 700}";
}
);
components = (
{
name = J;
transform = "{1, 0, 0, 1, 35, 0}";
}
);
layerId = "8816CCA3-DDF9-4C51-BD56-64EE3675A105";
paths = (
{
closed = 1;
nodes = (
"206 639 LINE",
"206 674 OFFCURVE",
"177 700 OFFCURVE",
"145 700 CURVE",
"107 700 OFFCURVE",
"81 674 OFFCURVE",
"81 639 CURVE",
"81 315 LINE",
"81 280 OFFCURVE",
"106 254 OFFCURVE",
"143 254 CURVE",
"176 254 OFFCURVE",
"206 280 OFFCURVE",
"206 315 CURVE"
);
}
);
width = 587;
}
);
leftMetricsKey = H;
note = IJ;
rightMetricsKey = H;
unicode = 0132;
},
{
glyphname = Iogonek;
lastChange = "2016-07-26 14:06:31 +0000";
layers = (
{
anchors = (
{
name = _ogonek;
position = "{216, 10}";
},
{
name = bottom;
position = "{122, 0}";
},
{
name = ogonek;
position = "{216, 10}";
},
{
name = top;
position = "{119, 700}";
},
{
name = topleft;
position = "{18, 700}";
}
);
layerId = "254266E2-2911-423D-9D37-8CC6105656EE";
paths = (
{
closed = 1;
nodes = (
"99 23 LINE",
"57 9 OFFCURVE",
"15 -31 OFFCURVE",
"15 -93 CURVE",
"15 -149 OFFCURVE",
"59 -185 OFFCURVE",
"103 -185 CURVE",
"144 -185 OFFCURVE",
"175 -163 OFFCURVE",
"175 -136 CURVE",
"175 -129 OFFCURVE",
"170 -122 OFFCURVE",
"161 -122 CURVE",
"144 -122 OFFCURVE",
"146 -148 OFFCURVE",
"108 -148 CURVE",
"80 -148 OFFCURVE",
"53 -125 OFFCURVE",
"53 -85 CURVE",
"53 -39 OFFCURVE",
"91 -6 OFFCURVE",
"120 6 CURVE SMOOTH",
"135 12 OFFCURVE",
"140 16 OFFCURVE",
"140 30 CURVE SMOOTH",
"140 679 LINE SMOOTH",
"140 691 OFFCURVE",
"131 700 OFFCURVE",
"119 700 CURVE SMOOTH",
"107 700 OFFCURVE",
"98 691 OFFCURVE",
"98 679 CURVE SMOOTH",
"98 21 LINE",
"104 19 LINE"
);
}
);
width = 220;
},
{
anchors = (
{
name = _ogonek;
position = "{126.866, 10}";
},
{
name = bottom;
position = "{140, 0}";
},
{
name = ogonek;
position = "{252, 10}";
},
{
name = top;
position = "{140, 700}";
},
{
name = topleft;
position = "{20, 700}";
}
);
layerId = "8816CCA3-DDF9-4C51-BD56-64EE3675A105";
paths = (
{
closed = 1;
nodes = (
"157 63 LINE",
"78 42 OFFCURVE",
"-26 8 OFFCURVE",
"-26 -100 CURVE SMOOTH",
"-26 -174 OFFCURVE",
"28 -207 OFFCURVE",
"94 -207 CURVE SMOOTH",
"154 -207 OFFCURVE",
"210 -165 OFFCURVE",
"210 -132 CURVE SMOOTH",
"210 -102 OFFCURVE",
"190 -84 OFFCURVE",
"166 -84 CURVE SMOOTH",
"156 -84 OFFCURVE",
"137 -86 OFFCURVE",
"125 -102 CURVE SMOOTH",
"119 -110 OFFCURVE",
"112 -114 OFFCURVE",
"104 -114 CURVE SMOOTH",
"88 -114 OFFCURVE",
"73 -102 OFFCURVE",
"73 -78 CURVE SMOOTH",
"73 -45 OFFCURVE",
"119 -19 OFFCURVE",
"179 -2 CURVE SMOOTH",
"200 4 OFFCURVE",
"205 21 OFFCURVE",
"205 35 CURVE",
"205 639 LINE",
"205 674 OFFCURVE",
"178 700 OFFCURVE",
"141 700 CURVE",
"103 700 OFFCURVE",
"75 674 OFFCURVE",
"75 639 CURVE",
"75 34 LINE",
"139 0 LINE"
);
}
);
width = 280;
}
);
note = Iogonek;
unicode = 012E;
},
{
glyphname = J;
lastChange = "2016-07-29 20:00:10 +0000";
layers = (
{
anchors = (
{
name = bottom;
position = "{289, 0}";
},
{
name = top;
position = "{458, 700}";
}
);
layerId = "254266E2-2911-423D-9D37-8CC6105656EE";
paths = (
{
closed = 1;
nodes = (
"393 -10 OFFCURVE",
"478 74 OFFCURVE",
"478 199 CURVE SMOOTH",
"478 680 LINE SMOOTH",
"478 691 OFFCURVE",
"470 700 OFFCURVE",
"458 700 CURVE SMOOTH",
"445 700 OFFCURVE",
"436 691 OFFCURVE",
"436 680 CURVE SMOOTH",
"436 199 LINE SMOOTH",
"436 96 OFFCURVE",
"370 30 OFFCURVE",
"267 30 CURVE SMOOTH",
"197 30 OFFCURVE",
"139 77 OFFCURVE",
"114 144 CURVE",
"110 152 OFFCURVE",
"105 157 OFFCURVE",
"95 157 CURVE SMOOTH",
"86 157 OFFCURVE",
"75 151 OFFCURVE",
"75 139 CURVE SMOOTH",
"75 136 OFFCURVE",
"76 132 OFFCURVE",
"77 129 CURVE",
"110 48 OFFCURVE",
"180 -10 OFFCURVE",
"267 -10 CURVE SMOOTH"
);
}
);
width = 578;
},
{
anchors = (
{
name = bottom;
position = "{276, 0}";
},
{
name = top;
position = "{415, 700}";
}
);
layerId = "8816CCA3-DDF9-4C51-BD56-64EE3675A105";
paths = (
{
closed = 1;
nodes = (
"372 -10 OFFCURVE",
"477 97 OFFCURVE",
"477 219 CURVE",
"477 639 LINE",
"477 674 OFFCURVE",
"452 700 OFFCURVE",
"415 700 CURVE",
"382 700 OFFCURVE",
"352 674 OFFCURVE",
"352 639 CURVE",
"352 219 LINE",
"352 161 OFFCURVE",
"298 110 OFFCURVE",
"238 110 CURVE",
"205 110 OFFCURVE",
"180 119 OFFCURVE",
"154 143 CURVE",
"138 159 OFFCURVE",
"118 173 OFFCURVE",
"98 173 CURVE SMOOTH",
"73 173 OFFCURVE",
"40 147 OFFCURVE",
"40 114 CURVE SMOOTH",
"40 103 OFFCURVE",
"44 91 OFFCURVE",
"52 79 CURVE",
"93 22 OFFCURVE",
"162 -10 OFFCURVE",
"238 -10 CURVE"
);
}
);
width = 552;
}
);
leftKerningGroup = J;
note = J;
rightKerningGroup = J;
rightMetricsKey = H;
unicode = 004A;
},
{
glyphname = K;
lastChange = "2016-07-29 19:45:12 +0000";
layers = (
{
anchors = (
{
name = bottom;
position = "{300, 0}";
},
{
name = top;
position = "{341, 700}";
}
);
layerId = "254266E2-2911-423D-9D37-8CC6105656EE";
paths = (
{
closed = 1;
nodes = (
"614 -5 OFFCURVE",
"629 0 OFFCURVE",
"629 16 CURVE SMOOTH",
"629 21 OFFCURVE",
"627 26 OFFCURVE",
"624 30 CURVE SMOOTH",
"322 408 LINE",
"290 376 LINE",
"592 2 LINE SMOOTH",
"596 -3 OFFCURVE",
"601 -5 OFFCURVE",
"606 -5 CURVE SMOOTH"
);
},
{
closed = 1;
nodes = (
"583 696 OFFCURVE",
"578 694 OFFCURVE",
"574 690 CURVE SMOOTH",
"127 271 LINE",
"136 228 LINE",
"602 662 LINE SMOOTH",
"606 666 OFFCURVE",
"608 671 OFFCURVE",
"608 676 CURVE SMOOTH",
"608 687 OFFCURVE",
"599 696 OFFCURVE",
"588 696 CURVE SMOOTH"
);
},
{
closed = 1;
nodes = (
"132 0 OFFCURVE",
"141 9 OFFCURVE",
"142 21 CURVE",
"142 679 LINE SMOOTH",
"142 691 OFFCURVE",
"133 700 OFFCURVE",
"121 700 CURVE SMOOTH",
"109 700 OFFCURVE",
"100 691 OFFCURVE",
"100 679 CURVE SMOOTH",
"100 21 LINE SMOOTH",
"100 9 OFFCURVE",
"108 0 OFFCURVE",
"121 0 CURVE SMOOTH"
);
}
);
width = 682;
},
{
anchors = (
{
name = bottom;
position = "{328, 0}";
},
{
name = top;
position = "{328, 700}";
}
);
layerId = "8816CCA3-DDF9-4C51-BD56-64EE3675A105";
paths = (
{
closed = 1;
nodes = (
"592 0 OFFCURVE",
"625 26 OFFCURVE",
"625 63 CURVE SMOOTH",
"625 76 OFFCURVE",
"619 93 OFFCURVE",
"611 104 CURVE SMOOTH",
"372 420 LINE",
"281 327 LINE",
"512 23 LINE SMOOTH",
"523 8 OFFCURVE",
"540 0 OFFCURVE",
"557 0 CURVE SMOOTH"
);
},
{
closed = 1;
nodes = (
"552 705 OFFCURVE",
"534 696 OFFCURVE",
"520 682 CURVE SMOOTH",
"182 349 LINE",
"187 206 LINE",
"606 607 LINE SMOOTH",
"618 619 OFFCURVE",
"624 632 OFFCURVE",
"624 646 CURVE SMOOTH",
"624 672 OFFCURVE",
"601 705 OFFCURVE",
"569 705 CURVE SMOOTH"
);
},
{
closed = 1;
nodes = (
"175 0 OFFCURVE",
"200 26 OFFCURVE",
"200 61 CURVE",
"200 639 LINE",
"200 674 OFFCURVE",
"176 700 OFFCURVE",
"139 700 CURVE",
"101 700 OFFCURVE",
"75 674 OFFCURVE",
"75 639 CURVE",
"75 61 LINE",
"75 26 OFFCURVE",
"100 0 OFFCURVE",
"137 0 CURVE"
);
}
);
width = 655;
}
);
leftMetricsKey = H;
note = K;
rightKerningGroup = K;
unicode = 004B;
},
{
glyphname = L;
lastChange = "2016-09-19 13:09:05 +0000";
layers = (
{
anchors = (
{
name = bottom;
position = "{286, 0}";
},
{
name = center;
position = "{261, 350}";
},
{
name = top;
position = "{111, 700}";
},
{
name = topright;
position = "{502, 700}";
}
);
layerId = "254266E2-2911-423D-9D37-8CC6105656EE";
paths = (
{
closed = 1;
nodes = (
"124 40 LINE",
"142 22 LINE",
"142 680 LINE",
"142 691 OFFCURVE",
"133 700 OFFCURVE",
"121 700 CURVE",
"109 700 OFFCURVE",
"100 691 OFFCURVE",
"100 680 CURVE",
"100 20 LINE",
"100 9 OFFCURVE",
"108 0 OFFCURVE",
"120 0 CURVE",
"487 0 LINE",
"498 0 OFFCURVE",
"507 8 OFFCURVE",
"507 20 CURVE",
"507 31 OFFCURVE",
"498 40 OFFCURVE",
"487 40 CURVE"
);
}
);
width = 522;
},
{
anchors = (
{
name = bottom;
position = "{281, 0}";
},
{
name = center;
position = "{281, 350}";
},
{
name = top;
position = "{131, 700}";
},
{
name = topright;
position = "{542, 700}";
}
);
layerId = "8816CCA3-DDF9-4C51-BD56-64EE3675A105";
paths = (
{
closed = 1;
nodes = (
"178 117 LINE",
"200 100 LINE",
"200 639 LINE",
"200 674 OFFCURVE",
"171 700 OFFCURVE",
"139 700 CURVE",
"101 700 OFFCURVE",
"75 674 OFFCURVE",
"75 639 CURVE",
"75 61 LINE",
"75 26 OFFCURVE",
"101 0 OFFCURVE",
"136 0 CURVE",
"461 0 LINE",
"496 0 OFFCURVE",
"522 24 OFFCURVE",
"522 58 CURVE",
"522 93 OFFCURVE",
"496 117 OFFCURVE",
"461 117 CURVE"
);
}
);
width = 562;
}
);
leftMetricsKey = H;
note = L;
rightKerningGroup = L;
unicode = 004C;
},
{
glyphname = Lcaron;
lastChange = "2016-07-26 14:09:13 +0000";
layers = (
{
components = (
{
name = caronalt;
transform = "{1, 0, 0, 1, 373, 40}";
}
);
layerId = "254266E2-2911-423D-9D37-8CC6105656EE";
paths = (
{
closed = 1;
nodes = (
"145 40 LINE SMOOTH",
"142 40 OFFCURVE",
"140 42 OFFCURVE",
"140 45 CURVE SMOOTH",
"140 680 LINE SMOOTH",
"140 691 OFFCURVE",
"132 700 OFFCURVE",
"120 700 CURVE SMOOTH",
"109 700 OFFCURVE",
"100 691 OFFCURVE",
"100 680 CURVE SMOOTH",
"100 20 LINE SMOOTH",
"100 9 OFFCURVE",
"108 0 OFFCURVE",
"120 0 CURVE SMOOTH",
"487 0 LINE SMOOTH",
"498 0 OFFCURVE",
"507 8 OFFCURVE",
"507 20 CURVE SMOOTH",
"507 31 OFFCURVE",
"498 40 OFFCURVE",
"487 40 CURVE SMOOTH"
);
}
);
width = 523;
},
{
components = (
{
name = caronalt;
transform = "{1, 0, 0, 1, 303, -1}";
}
);
layerId = "8816CCA3-DDF9-4C51-BD56-64EE3675A105";
paths = (
{
closed = 1;
nodes = (
"205 120 LINE SMOOTH",
"199 120 OFFCURVE",
"195 124 OFFCURVE",
"195 130 CURVE SMOOTH",
"195 639 LINE SMOOTH",
"195 674 OFFCURVE",
"170 700 OFFCURVE",
"136 700 CURVE SMOOTH",
"101 700 OFFCURVE",
"75 674 OFFCURVE",
"75 639 CURVE SMOOTH",
"75 61 LINE SMOOTH",
"75 26 OFFCURVE",
"101 0 OFFCURVE",
"136 0 CURVE SMOOTH",
"461 0 LINE SMOOTH",
"496 0 OFFCURVE",
"522 25 OFFCURVE",
"522 59 CURVE SMOOTH",
"522 94 OFFCURVE",
"496 120 OFFCURVE",
"461 120 CURVE SMOOTH"
);
}
);
width = 562;
}
);
leftMetricsKey = H;
note = Lcaron;
rightMetricsKey = L;
unicode = 013D;
},
{
glyphname = Lslash;
lastChange = "2016-07-26 14:10:39 +0000";
layers = (
{
layerId = "254266E2-2911-423D-9D37-8CC6105656EE";
paths = (
{
closed = 1;
nodes = (
"71 348 OFFCURVE",
"75 348 OFFCURVE",
"78 350 CURVE SMOOTH",
"278 438 LINE SMOOTH",
"287 442 OFFCURVE",
"291 447 OFFCURVE",
"291 457 CURVE SMOOTH",
"291 464 OFFCURVE",
"287 477 OFFCURVE",
"273 477 CURVE SMOOTH",
"270 477 OFFCURVE",
"266 476 OFFCURVE",
"262 474 CURVE SMOOTH",
"62 386 LINE SMOOTH",
"54 382 OFFCURVE",
"50 377 OFFCURVE",
"50 367 CURVE SMOOTH",
"50 356 OFFCURVE",
"56 348 OFFCURVE",
"68 348 CURVE SMOOTH"
);
},
{
closed = 1;
nodes = (
"179 680 LINE SMOOTH",
"179 691 OFFCURVE",
"171 700 OFFCURVE",
"159 700 CURVE SMOOTH",
"148 700 OFFCURVE",
"139 691 OFFCURVE",
"139 680 CURVE SMOOTH",
"139 20 LINE SMOOTH",
"139 9 OFFCURVE",
"147 0 OFFCURVE",
"159 0 CURVE SMOOTH",
"526 0 LINE SMOOTH",
"537 0 OFFCURVE",
"546 8 OFFCURVE",
"546 20 CURVE SMOOTH",
"546 31 OFFCURVE",
"537 40 OFFCURVE",
"526 40 CURVE SMOOTH",
"172 40 LINE",
"179 32 LINE"
);
}
);
width = 561;
},
{
layerId = "8816CCA3-DDF9-4C51-BD56-64EE3675A105";
paths = (
{
closed = 1;
nodes = (
"93 270 OFFCURVE",
"100 272 OFFCURVE",
"107 275 CURVE SMOOTH",
"401 405 LINE SMOOTH",
"421 414 OFFCURVE",
"433 431 OFFCURVE",
"433 450 CURVE SMOOTH",
"433 471 OFFCURVE",
"416 502 OFFCURVE",
"383 502 CURVE SMOOTH",
"376 502 OFFCURVE",
"368 500 OFFCURVE",
"361 497 CURVE SMOOTH",
"67 367 LINE SMOOTH",
"46 358 OFFCURVE",
"35 341 OFFCURVE",
"35 323 CURVE SMOOTH",
"35 302 OFFCURVE",
"51 270 OFFCURVE",
"86 270 CURVE SMOOTH"
);
},
{
closed = 1;
nodes = (
"266 639 LINE SMOOTH",
"266 674 OFFCURVE",
"241 700 OFFCURVE",
"207 700 CURVE SMOOTH",
"172 700 OFFCURVE",
"146 674 OFFCURVE",
"146 639 CURVE SMOOTH",
"146 61 LINE SMOOTH",
"146 26 OFFCURVE",
"172 0 OFFCURVE",
"207 0 CURVE SMOOTH",
"532 0 LINE SMOOTH",
"567 0 OFFCURVE",
"593 25 OFFCURVE",
"593 59 CURVE SMOOTH",
"593 94 OFFCURVE",
"567 120 OFFCURVE",
"532 120 CURVE SMOOTH",
"260 120 LINE",
"266 109 LINE"
);
}
);
width = 633;
}
);
note = Lslash;
rightMetricsKey = L;
unicode = 0141;
},
{
glyphname = M;
lastChange = "2016-07-29 19:48:51 +0000";
layers = (
{
anchors = (
{
name = bottom;
position = "{415, 0}";
},
{
name = top;
position = "{415, 700}";
}
);
layerId = "254266E2-2911-423D-9D37-8CC6105656EE";
paths = (
{
closed = 1;
nodes = (
"107 700 OFFCURVE",
"100 689 OFFCURVE",
"100 680 CURVE",
"100 20 LINE",
"100 9 OFFCURVE",
"108 0 OFFCURVE",
"120 0 CURVE",
"131 0 OFFCURVE",
"140 9 OFFCURVE",
"140 20 CURVE",
"140 643 LINE",
"124 643 LINE",
"399 228 LINE SMOOTH",
"402 223 OFFCURVE",
"408 220 OFFCURVE",
"415 220 CURVE SMOOTH",
"421 220 OFFCURVE",
"426 223 OFFCURVE",
"429 228 CURVE SMOOTH",
"698 635 LINE",
"687 635 LINE",
"687 20 LINE",
"687 9 OFFCURVE",
"696 0 OFFCURVE",
"708 0 CURVE",
"719 0 OFFCURVE",
"729 9 OFFCURVE",
"729 20 CURVE",
"729 680 LINE",
"729 690 OFFCURVE",
"722 699 OFFCURVE",
"711 700 CURVE",
"704 701 OFFCURVE",
"697 698 OFFCURVE",
"692 691 CURVE",
"405 264 LINE",
"425 264 LINE",
"138 691 LINE",
"133 698 OFFCURVE",
"125 700 OFFCURVE",
"119 700 CURVE"
);
}
);
width = 829;
},
{
anchors = (
{
name = bottom;
position = "{410, 0}";
},
{
name = top;
position = "{410, 700}";
}
);
layerId = "8816CCA3-DDF9-4C51-BD56-64EE3675A105";
paths = (
{
closed = 1;
nodes = (
"103 701 OFFCURVE",
"75 673 OFFCURVE",
"75 640 CURVE",
"75 61 LINE",
"75 26 OFFCURVE",
"98 0 OFFCURVE",
"132 0 CURVE",
"167 0 OFFCURVE",
"190 26 OFFCURVE",
"190 61 CURVE",
"190 567 LINE",
"164 514 LINE",
"355 212 LINE",
"367 197 OFFCURVE",
"386 185 OFFCURVE",
"404 186 CURVE",
"423 185 OFFCURVE",
"442 197 OFFCURVE",
"454 212 CURVE",
"658 523 LINE",
"619 532 LINE",
"619 61 LINE",
"619 26 OFFCURVE",
"644 0 OFFCURVE",
"682 0 CURVE",
"719 0 OFFCURVE",
"744 26 OFFCURVE",
"744 61 CURVE",
"744 640 LINE",
"744 676 OFFCURVE",
"714 701 OFFCURVE",
"682 701 CURVE",
"663 701 OFFCURVE",
"644 690 OFFCURVE",
"633 674 CURVE SMOOTH",
"384 302 LINE",
"434 300 LINE",
"191 674 LINE SMOOTH",
"180 690 OFFCURVE",
"157 701 OFFCURVE",
"138 701 CURVE"
);
}
);
width = 819;
}
);
leftMetricsKey = H;
note = M;
rightMetricsKey = H;
unicode = 004D;
},
{
glyphname = N;
lastChange = "2016-07-29 19:49:04 +0000";
layers = (
{
anchors = (
{
name = bottom;
position = "{363, 0}";
},
{
name = top;
position = "{363, 700}";
}
);
layerId = "254266E2-2911-423D-9D37-8CC6105656EE";
paths = (
{
closed = 1;
nodes = (
"596 700 OFFCURVE",
"587 692 OFFCURVE",
"587 681 CURVE",
"587 43 LINE",
"595 63 LINE",
"133 693 LINE",
"129 698 OFFCURVE",
"123 700 OFFCURVE",
"118 700 CURVE",
"110 700 OFFCURVE",
"100 695 OFFCURVE",
"100 680 CURVE",
"100 17 LINE",
"100 8 OFFCURVE",
"107 0 OFFCURVE",
"119 0 CURVE",
"129 0 OFFCURVE",
"138 8 OFFCURVE",
"138 17 CURVE",
"138 649 LINE",
"124 642 LINE",
"588 8 LINE",
"592 3 OFFCURVE",
"598 0 OFFCURVE",
"604 0 CURVE",
"615 0 OFFCURVE",
"625 7 OFFCURVE",
"625 22 CURVE",
"625 681 LINE",
"625 692 OFFCURVE",
"618 700 OFFCURVE",
"606 700 CURVE"
);
}
);
width = 725;
},
{
anchors = (
{
name = bottom;
position = "{368, 0}";
},
{
name = top;
position = "{368, 700}";
}
);
layerId = "8816CCA3-DDF9-4C51-BD56-64EE3675A105";
paths = (
{
closed = 1;
nodes = (
"573 700 OFFCURVE",
"551 676 OFFCURVE",
"551 644 CURVE",
"551 180 LINE",
"568 192 LINE",
"187 678 LINE",
"177 692 OFFCURVE",
"155 700 OFFCURVE",
"136 700 CURVE",
"101 700 OFFCURVE",
"75 674 OFFCURVE",
"75 639 CURVE",
"75 56 LINE",
"75 24 OFFCURVE",
"97 0 OFFCURVE",
"129 0 CURVE",
"162 0 OFFCURVE",
"185 24 OFFCURVE",
"185 56 CURVE",
"185 532 LINE",
"159 516 LINE",
"552 17 LINE",
"561 6 OFFCURVE",
"582 0 OFFCURVE",
"599 0 CURVE",
"634 0 OFFCURVE",
"660 26 OFFCURVE",
"660 61 CURVE",
"660 644 LINE",
"660 676 OFFCURVE",
"638 700 OFFCURVE",
"606 700 CURVE"
);
}
);
width = 735;
}
);
leftMetricsKey = H;
note = N;
rightMetricsKey = H;
unicode = 004E;
},
{
glyphname = Eng;
lastChange = "2016-07-26 14:24:48 +0000";
layers = (
{
layerId = "254266E2-2911-423D-9D37-8CC6105656EE";
paths = (
{
closed = 1;
nodes = (
"611 -200 OFFCURVE",
"645 -123 OFFCURVE",
"645 -44 CURVE",
"645 42 LINE",
"645 676 LINE SMOOTH",
"645 687 OFFCURVE",
"637 696 OFFCURVE",
"625 696 CURVE SMOOTH",
"614 696 OFFCURVE",
"605 687 OFFCURVE",
"605 676 CURVE SMOOTH",
"605 63 LINE",
"611 71 LINE",
"137 691 LINE",
"136 693 OFFCURVE",
"128 700 OFFCURVE",
"121 700 CURVE SMOOTH",
"110 700 OFFCURVE",
"100 693 OFFCURVE",
"100 680 CURVE SMOOTH",
"100 20 LINE SMOOTH",
"100 9 OFFCURVE",
"108 0 OFFCURVE",
"120 0 CURVE SMOOTH",
"131 0 OFFCURVE",
"140 9 OFFCURVE",
"140 20 CURVE SMOOTH",
"140 626 LINE",
"139 623 LINE",
"612 4 LINE",
"606 37 LINE",
"605 -44 LINE SMOOTH",
"604 -111 OFFCURVE",
"584 -160 OFFCURVE",
"469 -160 CURVE SMOOTH",
"457 -160 OFFCURVE",
"448 -168 OFFCURVE",
"448 -180 CURVE SMOOTH",
"448 -192 OFFCURVE",
"457 -200 OFFCURVE",
"470 -200 CURVE SMOOTH"
);
}
);
width = 745;
},
{
layerId = "8816CCA3-DDF9-4C51-BD56-64EE3675A105";
paths = (
{
closed = 1;
nodes = (
"590 -201 OFFCURVE",
"680 -156 OFFCURVE",
"680 -14 CURVE SMOOTH",
"680 50 LINE",
"680 639 LINE SMOOTH",
"680 674 OFFCURVE",
"655 700 OFFCURVE",
"621 700 CURVE SMOOTH",
"586 700 OFFCURVE",
"560 674 OFFCURVE",
"560 639 CURVE SMOOTH",
"560 187 LINE",
"578 195 LINE",
"186 674 LINE",
"172 692 OFFCURVE",
"156 700 OFFCURVE",
"136 700 CURVE SMOOTH",
"101 700 OFFCURVE",
"75 674 OFFCURVE",
"75 639 CURVE SMOOTH",
"75 61 LINE SMOOTH",
"75 26 OFFCURVE",
"100 0 OFFCURVE",
"134 0 CURVE SMOOTH",
"169 0 OFFCURVE",
"195 26 OFFCURVE",
"195 61 CURVE SMOOTH",
"195 498 LINE",
"179 499 LINE",
"566 28 LINE",
"560 54 LINE",
"560 -19 LINE SMOOTH",
"560 -69 OFFCURVE",
"539 -89 OFFCURVE",
"497 -90 CURVE SMOOTH",
"463 -91 OFFCURVE",
"439 -116 OFFCURVE",
"439 -148 CURVE SMOOTH",
"439 -180 OFFCURVE",
"466 -200 OFFCURVE",
"503 -200 CURVE SMOOTH"
);
}
);
width = 755;
}
);
leftMetricsKey = N;
note = Eng;
rightMetricsKey = N;
unicode = 014A;
},
{
glyphname = Nhookleft;
lastChange = "2016-07-26 17:23:55 +0000";
layers = (
{
anchors = (
{
name = bottom;
position = "{363, 0}";
},
{
name = top;
position = "{363, 700}";
}
);
layerId = "254266E2-2911-423D-9D37-8CC6105656EE";
paths = (
{
closed = 1;
nodes = (
"67 -188 OFFCURVE",
"138 -145 OFFCURVE",
"138 -58 CURVE",
"138 649 LINE",
"124 642 LINE",
"588 8 LINE",
"592 3 OFFCURVE",
"598 0 OFFCURVE",
"604 0 CURVE",
"615 0 OFFCURVE",
"625 7 OFFCURVE",
"625 22 CURVE",
"625 681 LINE",
"625 692 OFFCURVE",
"618 700 OFFCURVE",
"606 700 CURVE",
"596 700 OFFCURVE",
"587 692 OFFCURVE",
"587 681 CURVE",
"587 43 LINE",
"595 63 LINE",
"133 693 LINE",
"129 698 OFFCURVE",
"123 700 OFFCURVE",
"118 700 CURVE",
"110 700 OFFCURVE",
"100 695 OFFCURVE",
"100 680 CURVE",
"100 -58 LINE",
"100 -124 OFFCURVE",
"44 -152 OFFCURVE",
"0 -159 CURVE",
"-10 -160 OFFCURVE",
"-18 -167 OFFCURVE",
"-18 -180 CURVE SMOOTH",
"-18 -191 OFFCURVE",
"-9 -200 OFFCURVE",
"4 -198 CURVE SMOOTH"
);
}
);
width = 725;
},
{
anchors = (
{
name = bottom;
position = "{300, 0}";
},
{
name = top;
position = "{300, 700}";
}
);
layerId = "8816CCA3-DDF9-4C51-BD56-64EE3675A105";
paths = (
{
closed = 1;
nodes = (
"44 -197 OFFCURVE",
"189 -195 OFFCURVE",
"189 -10 CURVE",
"189 532 LINE",
"159 516 LINE",
"552 17 LINE",
"561 6 OFFCURVE",
"582 0 OFFCURVE",
"599 0 CURVE",
"634 0 OFFCURVE",
"660 26 OFFCURVE",
"660 61 CURVE",
"660 644 LINE",
"660 676 OFFCURVE",
"636 700 OFFCURVE",
"604 700 CURVE",
"571 700 OFFCURVE",
"546 676 OFFCURVE",
"546 644 CURVE",
"546 180 LINE",
"568 192 LINE",
"187 678 LINE",
"177 692 OFFCURVE",
"155 700 OFFCURVE",
"136 700 CURVE",
"101 700 OFFCURVE",
"75 674 OFFCURVE",
"75 639 CURVE",
"75 25 LINE",
"75 -20 OFFCURVE",
"73 -60 OFFCURVE",
"26 -74 CURVE SMOOTH",
"-9 -84 OFFCURVE",
"-25 -99 OFFCURVE",
"-25 -140 CURVE SMOOTH",
"-25 -171 OFFCURVE",
"-2 -196 OFFCURVE",
"30 -197 CURVE SMOOTH"
);
}
);
width = 735;
}
);
unicode = 019D;
},
{
glyphname = O;
lastChange = "2016-08-08 16:07:54 +0000";
layers = (
{
anchors = (
{
name = bottom;
position = "{384, 0}";
},
{
name = center;
position = "{384, 350}";
},
{
name = ogonek;
position = "{691, 10}";
},
{
name = top;
position = "{384, 700}";
},
{
name = topleft;
position = "{20, 700}";
},
{
name = topright;
position = "{391, 697}";
}
);
layerId = "254266E2-2911-423D-9D37-8CC6105656EE";
paths = (
{
closed = 1;
nodes = (
"718 563 OFFCURVE",
"579 710 OFFCURVE",
"384 710 CURVE",
"189 710 OFFCURVE",
"50 563 OFFCURVE",
"50 350 CURVE",
"50 137 OFFCURVE",
"189 -10 OFFCURVE",
"384 -10 CURVE",
"579 -10 OFFCURVE",
"718 137 OFFCURVE",
"718 350 CURVE"
);
},
{
closed = 1;
nodes = (
"676 159 OFFCURVE",
"555 30 OFFCURVE",
"384 30 CURVE",
"213 30 OFFCURVE",
"92 159 OFFCURVE",
"92 350 CURVE",
"92 541 OFFCURVE",
"213 670 OFFCURVE",
"384 670 CURVE",
"555 670 OFFCURVE",
"676 541 OFFCURVE",
"676 350 CURVE"
);
}
);
width = 768;
},
{
anchors = (
{
name = bottom;
position = "{380, 0}";
},
{
name = center;
position = "{380, 350}";
},
{
name = ogonek;
position = "{683, 10}";
},
{
name = top;
position = "{380, 700}";
},
{
name = topleft;
position = "{20, 700}";
},
{
name = topright;
position = "{379, 710}";
}
);
layerId = "8816CCA3-DDF9-4C51-BD56-64EE3675A105";
paths = (
{
closed = 1;
nodes = (
"719 549 OFFCURVE",
"577 710 OFFCURVE",
"379 710 CURVE",
"181 710 OFFCURVE",
"40 549 OFFCURVE",
"40 350 CURVE",
"40 151 OFFCURVE",
"181 -10 OFFCURVE",
"379 -10 CURVE",
"577 -10 OFFCURVE",
"719 151 OFFCURVE",
"719 350 CURVE"
);
},
{
closed = 1;
nodes = (
"589 216 OFFCURVE",
"502 110 OFFCURVE",
"379 110 CURVE",
"255 110 OFFCURVE",
"170 215 OFFCURVE",
"170 350 CURVE",
"170 485 OFFCURVE",
"255 590 OFFCURVE",
"379 590 CURVE",
"502 590 OFFCURVE",
"589 484 OFFCURVE",
"589 350 CURVE"
);
}
);
width = 759;
}
);
leftKerningGroup = C;
leftMetricsKey = O;
note = O;
rightKerningGroup = D;
rightMetricsKey = O;
unicode = 004F;
},
{
glyphname = Oogonek;
lastChange = "2016-07-26 17:26:55 +0000";
layers = (
{
components = (
{
name = O;
}
);
layerId = "254266E2-2911-423D-9D37-8CC6105656EE";
paths = (
{
closed = 1;
nodes = (
"470 -185 OFFCURVE",
"501 -163 OFFCURVE",
"501 -136 CURVE",
"501 -129 OFFCURVE",
"496 -122 OFFCURVE",
"487 -122 CURVE",
"476 -122 OFFCURVE",
"469 -131 OFFCURVE",
"461 -141 CURVE SMOOTH",
"456 -148 OFFCURVE",
"447 -148 OFFCURVE",
"434 -148 CURVE",
"406 -148 OFFCURVE",
"379 -125 OFFCURVE",
"379 -85 CURVE",
"379 -39 OFFCURVE",
"430 3 OFFCURVE",
"471 1 CURVE",
"427 17 LINE",
"385 3 OFFCURVE",
"341 -31 OFFCURVE",
"341 -93 CURVE",
"341 -149 OFFCURVE",
"385 -185 OFFCURVE",
"429 -185 CURVE"
);
}
);
width = 768;
},
{
components = (
{
name = O;
}
);
layerId = "8816CCA3-DDF9-4C51-BD56-64EE3675A105";
paths = (
{
closed = 1;
nodes = (
"468 -207 OFFCURVE",
"524 -165 OFFCURVE",
"524 -132 CURVE SMOOTH",
"524 -102 OFFCURVE",
"504 -84 OFFCURVE",
"480 -84 CURVE SMOOTH",
"470 -84 OFFCURVE",
"451 -86 OFFCURVE",
"439 -102 CURVE SMOOTH",
"433 -110 OFFCURVE",
"426 -114 OFFCURVE",
"418 -114 CURVE SMOOTH",
"402 -114 OFFCURVE",
"387 -102 OFFCURVE",
"387 -78 CURVE SMOOTH",
"387 -45 OFFCURVE",
"411 -13 OFFCURVE",
"493 10 CURVE",
"471 75 LINE",
"392 54 OFFCURVE",
"288 8 OFFCURVE",
"288 -100 CURVE SMOOTH",
"288 -174 OFFCURVE",
"342 -207 OFFCURVE",
"408 -207 CURVE SMOOTH"
);
}
);
width = 759;
}
);
unicode = 01EA;
},
{
glyphname = Oslash;
lastChange = "2016-07-26 15:16:38 +0000";
layers = (
{
anchors = (
{
name = bottom;
position = "{361, 0}";
},
{
name = top;
position = "{361, 700}";
}
);
components = (
{
name = O;
}
);
layerId = "254266E2-2911-423D-9D37-8CC6105656EE";
paths = (
{
closed = 1;
nodes = (
"79 -20 OFFCURVE",
"85 -12 OFFCURVE",
"91 -4 CURVE SMOOTH",
"667 687 LINE SMOOTH",
"672 693 OFFCURVE",
"673 698 OFFCURVE",
"673 702 CURVE SMOOTH",
"673 712 OFFCURVE",
"664 718 OFFCURVE",
"656 718 CURVE SMOOTH",
"646 718 OFFCURVE",
"642 717 OFFCURVE",
"634 707 CURVE SMOOTH",
"54 10 LINE",
"51 6 OFFCURVE",
"49 1 OFFCURVE",
"49 -3 CURVE SMOOTH",
"49 -12 OFFCURVE",
"56 -20 OFFCURVE",
"66 -20 CURVE SMOOTH"
);
}
);
width = 721;
},
{
anchors = (
{
name = bottom;
position = "{370, 0}";
},
{
name = top;
position = "{370, 700}";
}
);
components = (
{
name = O;
}
);
layerId = "8816CCA3-DDF9-4C51-BD56-64EE3675A105";
paths = (
{
closed = 1;
nodes = (
"110 -31 OFFCURVE",
"124 -24 OFFCURVE",
"134 -11 CURVE SMOOTH",
"684 667 LINE SMOOTH",
"692 677 OFFCURVE",
"696 689 OFFCURVE",
"696 700 CURVE SMOOTH",
"696 728 OFFCURVE",
"671 749 OFFCURVE",
"645 749 CURVE SMOOTH",
"631 749 OFFCURVE",
"617 743 OFFCURVE",
"606 730 CURVE SMOOTH",
"56 52 LINE SMOOTH",
"48 42 OFFCURVE",
"44 30 OFFCURVE",
"44 19 CURVE SMOOTH",
"44 -9 OFFCURVE",
"70 -31 OFFCURVE",
"95 -31 CURVE SMOOTH"
);
}
);
width = 739;
}
);
leftMetricsKey = "+10";
note = Oslash;
rightMetricsKey = "+10";
unicode = 00D8;
},
{
glyphname = OE;
lastChange = "2016-07-26 15:17:24 +0000";
layers = (
{
anchors = (
{
name = bottom;
position = "{494, 0}";
},
{
name = top;
position = "{494, 700}";
}
);
layerId = "254266E2-2911-423D-9D37-8CC6105656EE";
paths = (
{
closed = 1;
nodes = (
"575 40 LINE",
"581 33 LINE",
"581 352 LINE",
"575 346 LINE",
"883 346 LINE SMOOTH",
"894 346 OFFCURVE",
"903 354 OFFCURVE",
"903 366 CURVE SMOOTH",
"903 377 OFFCURVE",
"894 386 OFFCURVE",
"883 386 CURVE SMOOTH",
"575 386 LINE",
"581 375 LINE",
"581 664 LINE",
"576 660 LINE",
"928 660 LINE SMOOTH",
"939 660 OFFCURVE",
"948 668 OFFCURVE",
"948 680 CURVE SMOOTH",
"948 691 OFFCURVE",
"939 700 OFFCURVE",
"928 700 CURVE SMOOTH",
"340 700 LINE SMOOTH",
"139 700 OFFCURVE",
"50 532 OFFCURVE",
"50 350 CURVE SMOOTH",
"50 158 OFFCURVE",
"139 0 OFFCURVE",
"340 0 CURVE SMOOTH",
"928 0 LINE SMOOTH",
"939 0 OFFCURVE",
"948 8 OFFCURVE",
"948 20 CURVE SMOOTH",
"948 31 OFFCURVE",
"939 40 OFFCURVE",
"928 40 CURVE SMOOTH"
);
},
{
closed = 1;
nodes = (
"350 40 LINE SMOOTH",
"167 40 OFFCURVE",
"90 177 OFFCURVE",
"90 350 CURVE SMOOTH",
"90 513 OFFCURVE",
"167 660 OFFCURVE",
"350 660 CURVE SMOOTH",
"544 660 LINE",
"540 666 LINE",
"540 30 LINE",
"547 40 LINE"
);
}
);
width = 998;
},
{
anchors = (
{
name = bottom;
position = "{484, 0}";
},
{
name = top;
position = "{484, 700}";
}
);
layerId = "8816CCA3-DDF9-4C51-BD56-64EE3675A105";
paths = (
{
closed = 1;
nodes = (
"594 120 LINE",
"600 111 LINE",
"600 304 LINE",
"588 284 LINE",
"821 284 LINE SMOOTH",
"856 284 OFFCURVE",
"882 309 OFFCURVE",
"882 343 CURVE SMOOTH",
"882 378 OFFCURVE",
"856 404 OFFCURVE",
"821 404 CURVE SMOOTH",
"588 404 LINE",
"600 389 LINE",
"600 601 LINE",
"589 580 LINE",
"866 580 LINE SMOOTH",
"901 580 OFFCURVE",
"927 605 OFFCURVE",
"927 639 CURVE SMOOTH",
"927 674 OFFCURVE",
"901 700 OFFCURVE",
"866 700 CURVE SMOOTH",
"340 700 LINE SMOOTH",
"147 700 OFFCURVE",
"40 543 OFFCURVE",
"40 350 CURVE SMOOTH",
"40 156 OFFCURVE",
"147 0 OFFCURVE",
"340 0 CURVE SMOOTH",
"866 0 LINE SMOOTH",
"901 0 OFFCURVE",
"927 25 OFFCURVE",
"927 59 CURVE SMOOTH",
"927 94 OFFCURVE",
"901 120 OFFCURVE",
"866 120 CURVE SMOOTH"
);
},
{
closed = 1;
nodes = (
"340 120 LINE SMOOTH",
"214 120 OFFCURVE",
"160 223 OFFCURVE",
"160 350 CURVE SMOOTH",
"160 476 OFFCURVE",
"214 580 OFFCURVE",
"340 580 CURVE SMOOTH",
"493 580 LINE",
"480 598 LINE",
"480 104 LINE",
"495 120 LINE"
);
}
);
width = 967;
}
);
leftMetricsKey = O;
note = OE;
rightMetricsKey = E;
unicode = 0152;
},
{
glyphname = P;
lastChange = "2016-07-29 19:49:20 +0000";
layers = (
{
anchors = (
{
name = bottom;
position = "{297, 0}";
},
{
name = center;
position = "{124, 172}";
},
{
name = top;
position = "{297, 700}";
}
);
layerId = "254266E2-2911-423D-9D37-8CC6105656EE";
paths = (
{
closed = 1;
nodes = (
"120 700 LINE",
"109 700 OFFCURVE",
"100 691 OFFCURVE",
"100 680 CURVE",
"100 20 LINE",
"100 9 OFFCURVE",
"108 0 OFFCURVE",
"121 0 CURVE",
"132 0 OFFCURVE",
"142 9 OFFCURVE",
"142 20 CURVE",
"142 318 LINE",
"138 311 LINE",
"360 311 LINE",
"474 311 OFFCURVE",
"549 396 OFFCURVE",
"549 509 CURVE",
"549 622 OFFCURVE",
"474 700 OFFCURVE",
"360 700 CURVE"
);
},
{
closed = 1;
nodes = (
"138 351 LINE",
"142 348 LINE",
"142 665 LINE",
"139 660 LINE",
"360 660 LINE",
"451 660 OFFCURVE",
"507 600 OFFCURVE",
"507 509 CURVE",
"507 418 OFFCURVE",
"451 351 OFFCURVE",
"360 351 CURVE"
);
}
);
width = 594;
},
{
anchors = (
{
name = bottom;
position = "{302, 0}";
},
{
name = center;
position = "{139, 157}";
},
{
name = top;
position = "{302, 700}";
}
);
layerId = "8816CCA3-DDF9-4C51-BD56-64EE3675A105";
paths = (
{
closed = 1;
nodes = (
"136 700 LINE SMOOTH",
"101 700 OFFCURVE",
"75 674 OFFCURVE",
"75 639 CURVE SMOOTH",
"75 61 LINE SMOOTH",
"75 26 OFFCURVE",
"98 0 OFFCURVE",
"132 0 CURVE SMOOTH",
"167 0 OFFCURVE",
"190 26 OFFCURVE",
"190 61 CURVE SMOOTH",
"190 268 LINE",
"180 250 LINE",
"364 250 LINE SMOOTH",
"468 250 OFFCURVE",
"563 351 OFFCURVE",
"563 475 CURVE SMOOTH",
"563 600 OFFCURVE",
"468 700 OFFCURVE",
"364 700 CURVE SMOOTH"
);
},
{
closed = 1;
nodes = (
"179 364 LINE",
"190 348 LINE",
"190 603 LINE",
"178 585 LINE",
"364 585 LINE SMOOTH",
"402 585 OFFCURVE",
"443 533 OFFCURVE",
"443 475 CURVE SMOOTH",
"443 418 OFFCURVE",
"402 364 OFFCURVE",
"364 364 CURVE SMOOTH"
);
}
);
width = 603;
}
);
leftMetricsKey = H;
note = P;
rightKerningGroup = P;
unicode = 0050;
},
{
glyphname = Thorn;
lastChange = "2016-07-21 20:21:21 +0000";
layers = (
{
anchors = (
{
name = bottom;
position = "{262, 0}";
},
{
name = top;
position = "{262, 700}";
}
);
layerId = "254266E2-2911-423D-9D37-8CC6105656EE";
paths = (
{
closed = 1;
nodes = (
"140 720 LINE SMOOTH",
"140 731 OFFCURVE",
"132 740 OFFCURVE",
"120 740 CURVE SMOOTH",
"109 740 OFFCURVE",
"100 731 OFFCURVE",
"100 720 CURVE SMOOTH",
"100 20 LINE SMOOTH",
"100 9 OFFCURVE",
"108 0 OFFCURVE",
"120 0 CURVE SMOOTH",
"131 0 OFFCURVE",
"140 9 OFFCURVE",
"140 20 CURVE SMOOTH"
);
},
{
closed = 1;
nodes = (
"127 198 LINE",
"349 198 LINE",
"463 198 OFFCURVE",
"538 283 OFFCURVE",
"538 396 CURVE",
"538 509 OFFCURVE",
"463 587 OFFCURVE",
"349 587 CURVE",
"109 587 LINE",
"128 547 LINE",
"349 547 LINE",
"440 547 OFFCURVE",
"496 487 OFFCURVE",
"496 396 CURVE",
"496 305 OFFCURVE",
"440 238 OFFCURVE",
"349 238 CURVE",
"127 238 LINE"
);
}
);
width = 583;
},
{
anchors = (
{
name = bottom;
position = "{272, 0}";
},
{
name = top;
position = "{272, 700}";
}
);
layerId = "8816CCA3-DDF9-4C51-BD56-64EE3675A105";
paths = (
{
closed = 1;
nodes = (
"195 679 LINE SMOOTH",
"195 714 OFFCURVE",
"171 740 OFFCURVE",
"136 740 CURVE SMOOTH",
"101 740 OFFCURVE",
"75 714 OFFCURVE",
"75 679 CURVE SMOOTH",
"75 61 LINE SMOOTH",
"75 26 OFFCURVE",
"99 0 OFFCURVE",
"134 0 CURVE SMOOTH",
"169 0 OFFCURVE",
"195 26 OFFCURVE",
"195 61 CURVE SMOOTH"
);
},
{
closed = 1;
nodes = (
"124 160 LINE",
"364 160 LINE SMOOTH",
"466 160 OFFCURVE",
"563 261 OFFCURVE",
"563 385 CURVE SMOOTH",
"563 510 OFFCURVE",
"468 610 OFFCURVE",
"364 610 CURVE SMOOTH",
"136 610 LINE",
"183 490 LINE",
"364 490 LINE SMOOTH",
"402 490 OFFCURVE",
"443 443 OFFCURVE",
"443 385 CURVE SMOOTH",
"443 328 OFFCURVE",
"402 280 OFFCURVE",
"364 280 CURVE SMOOTH",
"184 280 LINE"
);
}
);
width = 603;
}
);
leftMetricsKey = H;
note = Thorn;
rightMetricsKey = P;
unicode = 00DE;
},
{
glyphname = Q;
lastChange = "2016-07-26 13:31:43 +0000";
layers = (
{
anchors = (
{
name = bottom;
position = "{391, 0}";
},
{
name = top;
position = "{391, 700}";
}
);
layerId = "254266E2-2911-423D-9D37-8CC6105656EE";
paths = (
{
closed = 1;
nodes = (
"765 -65 OFFCURVE",
"755 -83 OFFCURVE",
"736 -94 CURVE SMOOTH",
"715 -106 OFFCURVE",
"678 -127 OFFCURVE",
"621 -127 CURVE",
"493 -127 OFFCURVE",
"437 -40 OFFCURVE",
"320 -40 CURVE",
"321 -48 LINE",
"468 0 LINE",
"376 -4 LINE",
"215 -60 LINE",
"208 -63 OFFCURVE",
"204 -70 OFFCURVE",
"204 -77 CURVE",
"204 -89 OFFCURVE",
"213 -98 OFFCURVE",
"224 -98 CURVE",
"241 -98 OFFCURVE",
"264 -76 OFFCURVE",
"301 -76 CURVE",
"425 -76 OFFCURVE",
"464 -165 OFFCURVE",
"621 -165 CURVE",
"696 -165 OFFCURVE",
"797 -122 OFFCURVE",
"797 -82 CURVE",
"797 -72 OFFCURVE",
"791 -65 OFFCURVE",
"780 -65 CURVE SMOOTH"
);
},
{
closed = 1;
nodes = (
"718 563 OFFCURVE",
"579 710 OFFCURVE",
"384 710 CURVE",
"189 710 OFFCURVE",
"50 563 OFFCURVE",
"50 350 CURVE",
"50 137 OFFCURVE",
"189 -10 OFFCURVE",
"384 -10 CURVE",
"579 -10 OFFCURVE",
"718 137 OFFCURVE",
"718 350 CURVE"
);
},
{
closed = 1;
nodes = (
"676 159 OFFCURVE",
"555 30 OFFCURVE",
"384 30 CURVE",
"213 30 OFFCURVE",
"92 159 OFFCURVE",
"92 350 CURVE",
"92 541 OFFCURVE",
"213 670 OFFCURVE",
"384 670 CURVE",
"555 670 OFFCURVE",
"676 541 OFFCURVE",
"676 350 CURVE"
);
}
);
width = 782;
},
{
anchors = (
{
name = bottom;
position = "{378, 0}";
},
{
name = top;
position = "{378, 700}";
}
);
layerId = "8816CCA3-DDF9-4C51-BD56-64EE3675A105";
paths = (
{
closed = 1;
nodes = (
"701 -28 OFFCURVE",
"685 -45 OFFCURVE",
"663 -62 CURVE SMOOTH",
"644 -77 OFFCURVE",
"621 -91 OFFCURVE",
"585 -91 CURVE",
"498 -91 OFFCURVE",
"458 -23 OFFCURVE",
"365 -23 CURVE",
"308 -56 LINE",
"502 16 LINE",
"412 38 LINE",
"205 -39 LINE",
"183 -47 OFFCURVE",
"170 -64 OFFCURVE",
"170 -91 CURVE",
"170 -121 OFFCURVE",
"196 -151 OFFCURVE",
"229 -151 CURVE",
"277 -151 OFFCURVE",
"284 -125 OFFCURVE",
"322 -125 CURVE",
"402 -125 OFFCURVE",
"413 -200 OFFCURVE",
"578 -200 CURVE",
"653 -200 OFFCURVE",
"780 -148 OFFCURVE",
"780 -86 CURVE",
"780 -56 OFFCURVE",
"751 -28 OFFCURVE",
"723 -28 CURVE"
);
},
{
closed = 1;
nodes = (
"719 549 OFFCURVE",
"577 710 OFFCURVE",
"379 710 CURVE",
"181 710 OFFCURVE",
"40 549 OFFCURVE",
"40 350 CURVE",
"40 151 OFFCURVE",
"181 -10 OFFCURVE",
"379 -10 CURVE",
"577 -10 OFFCURVE",
"719 151 OFFCURVE",
"719 350 CURVE"
);
},
{
closed = 1;
nodes = (
"589 216 OFFCURVE",
"502 110 OFFCURVE",
"379 110 CURVE",
"255 110 OFFCURVE",
"170 215 OFFCURVE",
"170 350 CURVE",
"170 485 OFFCURVE",
"255 590 OFFCURVE",
"379 590 CURVE",
"502 590 OFFCURVE",
"589 484 OFFCURVE",
"589 350 CURVE"
);
}
);
width = 755;
}
);
leftKerningGroup = C;
leftMetricsKey = O;
note = Q;
rightKerningGroup = D;
unicode = 0051;
},
{
glyphname = R;
lastChange = "2016-07-29 19:49:36 +0000";
layers = (
{
anchors = (
{
name = bottom;
position = "{327, 0}";
},
{
name = top;
position = "{327, 700}";
}
);
layerId = "254266E2-2911-423D-9D37-8CC6105656EE";
paths = (
{
closed = 1;
nodes = (
"133 0 OFFCURVE",
"142 9 OFFCURVE",
"142 20 CURVE",
"142 325 LINE",
"133 313 LINE",
"376 313 LINE",
"433 313 OFFCURVE",
"522 294 OFFCURVE",
"522 170 CURVE",
"522 49 OFFCURVE",
"553 19 OFFCURVE",
"581 3 CURVE",
"592 -3 OFFCURVE",
"604 3 OFFCURVE",
"608 15 CURVE",
"611 25 OFFCURVE",
"606 34 OFFCURVE",
"598 39 CURVE",
"578 52 OFFCURVE",
"564 73 OFFCURVE",
"564 170 CURVE",
"564 284 OFFCURVE",
"486 347 OFFCURVE",
"406 347 CURVE",
"452 339 LINE",
"528 360 OFFCURVE",
"582 427 OFFCURVE",
"582 519 CURVE",
"582 623 OFFCURVE",
"502 700 OFFCURVE",
"384 700 CURVE",
"120 700 LINE",
"109 700 OFFCURVE",
"100 691 OFFCURVE",
"100 680 CURVE",
"100 20 LINE",
"100 9 OFFCURVE",
"108 0 OFFCURVE",
"121 0 CURVE"
);
},
{
closed = 1;
nodes = (
"142 342 LINE",
"142 667 LINE",
"137 660 LINE",
"379 660 LINE",
"478 660 OFFCURVE",
"540 599 OFFCURVE",
"540 518 CURVE",
"540 419 OFFCURVE",
"468 360 OFFCURVE",
"389 353 CURVE",
"132 353 LINE"
);
}
);
width = 664;
},
{
anchors = (
{
name = bottom;
position = "{344, 0}";
},
{
name = top;
position = "{344, 700}";
}
);
layerId = "8816CCA3-DDF9-4C51-BD56-64EE3675A105";
paths = (
{
closed = 1;
nodes = (
"180 0 OFFCURVE",
"200 26 OFFCURVE",
"200 61 CURVE",
"200 278 LINE",
"185 255 LINE",
"387 255 LINE",
"447 255 OFFCURVE",
"478 223 OFFCURVE",
"478 177 CURVE",
"478 73 OFFCURVE",
"515 30 OFFCURVE",
"550 10 CURVE",
"572 -3 OFFCURVE",
"618 -9 OFFCURVE",
"640 17 CURVE",
"662 42 OFFCURVE",
"653 81 OFFCURVE",
"624 98 CURVE",
"598 112 OFFCURVE",
"602 143 OFFCURVE",
"595 194 CURVE",
"590 247 OFFCURVE",
"563 293 OFFCURVE",
"507 324 CURVE",
"506 301 LINE",
"572 333 OFFCURVE",
"623 409 OFFCURVE",
"623 485 CURVE",
"623 610 OFFCURVE",
"528 700 OFFCURVE",
"424 700 CURVE",
"136 700 LINE",
"101 700 OFFCURVE",
"75 674 OFFCURVE",
"75 639 CURVE",
"75 61 LINE",
"75 26 OFFCURVE",
"110 0 OFFCURVE",
"147 0 CURVE"
);
},
{
closed = 1;
nodes = (
"200 334 LINE",
"200 617 LINE",
"188 585 LINE",
"419 585 LINE",
"455 585 OFFCURVE",
"493 540 OFFCURVE",
"493 482 CURVE",
"493 413 OFFCURVE",
"455 358 OFFCURVE",
"419 358 CURVE",
"186 358 LINE"
);
}
);
width = 687;
}
);
leftMetricsKey = H;
note = R;
rightKerningGroup = R;
unicode = 0052;
},
{
glyphname = S;
lastChange = "2016-07-20 13:36:17 +0000";
layers = (
{
anchors = (
{
name = bottom;
position = "{275, 0}";
},
{
name = top;
position = "{275, 700}";
}
);
layerId = "254266E2-2911-423D-9D37-8CC6105656EE";
paths = (
{
closed = 1;
nodes = (
"416 -9 OFFCURVE",
"499 72 OFFCURVE",
"499 163 CURVE",
"499 304 OFFCURVE",
"391 340 OFFCURVE",
"289 376 CURVE",
"202 407 OFFCURVE",
"111 444 OFFCURVE",
"111 536 CURVE SMOOTH",
"111 621 OFFCURVE",
"190 670 OFFCURVE",
"288 670 CURVE",
"360 670 OFFCURVE",
"421 639 OFFCURVE",
"457 592 CURVE",
"461 587 OFFCURVE",
"466 586 OFFCURVE",
"470 586 CURVE",
"482 586 OFFCURVE",
"494 597 OFFCURVE",
"494 607 CURVE",
"494 611 OFFCURVE",
"491 618 OFFCURVE",
"484 628 CURVE",
"442 682 OFFCURVE",
"364 710 OFFCURVE",
"288 710 CURVE",
"152 710 OFFCURVE",
"68 633 OFFCURVE",
"68 535 CURVE SMOOTH",
"68 407 OFFCURVE",
"170 372 OFFCURVE",
"269 335 CURVE",
"363 300 OFFCURVE",
"454 267 OFFCURVE",
"456 165 CURVE",
"456 83 OFFCURVE",
"381 30 OFFCURVE",
"279 30 CURVE",
"201 30 OFFCURVE",
"127 62 OFFCURVE",
"74 124 CURVE",
"68 131 OFFCURVE",
"63 133 OFFCURVE",
"57 133 CURVE",
"46 133 OFFCURVE",
"35 120 OFFCURVE",
"35 110 CURVE",
"35 102 OFFCURVE",
"38 98 OFFCURVE",
"41 95 CURVE",
"110 26 OFFCURVE",
"179 -11 OFFCURVE",
"283 -10 CURVE"
);
}
);
width = 550;
},
{
anchors = (
{
name = bottom;
position = "{299, 0}";
},
{
name = top;
position = "{299, 700}";
}
);
layerId = "8816CCA3-DDF9-4C51-BD56-64EE3675A105";
paths = (
{
closed = 1;
nodes = (
"435 -10 OFFCURVE",
"557 69 OFFCURVE",
"557 199 CURVE",
"557 335 OFFCURVE",
"477 380 OFFCURVE",
"316 409 CURVE SMOOTH",
"223 426 OFFCURVE",
"169 449 OFFCURVE",
"169 510 CURVE",
"169 559 OFFCURVE",
"214 595 OFFCURVE",
"301 595 CURVE",
"352 595 OFFCURVE",
"424 566 OFFCURVE",
"457 539 CURVE",
"465 533 OFFCURVE",
"475 530 OFFCURVE",
"484 530 CURVE",
"515 530 OFFCURVE",
"541 558 OFFCURVE",
"541 588 CURVE",
"541 608 OFFCURVE",
"530 627 OFFCURVE",
"512 641 CURVE",
"465 681 OFFCURVE",
"388 710 OFFCURVE",
"301 710 CURVE",
"162 710 OFFCURVE",
"51 635 OFFCURVE",
"51 505 CURVE",
"51 390 OFFCURVE",
"126 322 OFFCURVE",
"270 301 CURVE SMOOTH",
"384 284 OFFCURVE",
"437 252 OFFCURVE",
"437 192 CURVE",
"437 142 OFFCURVE",
"373 105 OFFCURVE",
"300 105 CURVE",
"227 105 OFFCURVE",
"183 126 OFFCURVE",
"132 168 CURVE",
"122 176 OFFCURVE",
"110 180 OFFCURVE",
"98 180 CURVE",
"65 180 OFFCURVE",
"40 152 OFFCURVE",
"40 122 CURVE",
"40 103 OFFCURVE",
"50 84 OFFCURVE",
"67 69 CURVE",
"135 10 OFFCURVE",
"207 -10 OFFCURVE",
"300 -10 CURVE"
);
}
);
width = 597;
}
);
leftKerningGroup = S;
note = S;
rightKerningGroup = S;
unicode = 0053;
},
{
glyphname = Germandbls;
lastChange = "2016-07-26 17:27:50 +0000";
layers = (
{
layerId = "254266E2-2911-423D-9D37-8CC6105656EE";
paths = (
{
closed = 1;
nodes = (
"570 -9 OFFCURVE",
"641 72 OFFCURVE",
"641 163 CURVE SMOOTH",
"641 281 OFFCURVE",
"566 323 OFFCURVE",
"499 362 CURVE SMOOTH",
"444 394 OFFCURVE",
"393 424 OFFCURVE",
"393 496 CURVE SMOOTH",
"393 559 OFFCURVE",
"456 612 OFFCURVE",
"582 626 CURVE",
"594 628 OFFCURVE",
"602 633 OFFCURVE",
"602 645 CURVE SMOOTH",
"602 654 OFFCURVE",
"598 659 OFFCURVE",
"585 670 CURVE",
"541 703 OFFCURVE",
"466 726 OFFCURVE",
"396 726 CURVE SMOOTH",
"168 726 OFFCURVE",
"102 583 OFFCURVE",
"102 453 CURVE SMOOTH",
"100 24 LINE SMOOTH",
"100 11 OFFCURVE",
"107 4 OFFCURVE",
"120 4 CURVE SMOOTH",
"133 4 OFFCURVE",
"140 11 OFFCURVE",
"140 24 CURVE SMOOTH",
"142 453 LINE SMOOTH",
"142 573 OFFCURVE",
"198 688 OFFCURVE",
"396 688 CURVE SMOOTH",
"459 688 OFFCURVE",
"528 668 OFFCURVE",
"565 633 CURVE",
"568 654 LINE",
"430 645 OFFCURVE",
"350 582 OFFCURVE",
"350 495 CURVE SMOOTH",
"350 398 OFFCURVE",
"416 361 OFFCURVE",
"480 322 CURVE SMOOTH",
"538 287 OFFCURVE",
"594 251 OFFCURVE",
"598 165 CURVE",
"598 83 OFFCURVE",
"528 30 OFFCURVE",
"451 30 CURVE SMOOTH",
"405 30 OFFCURVE",
"359 57 OFFCURVE",
"326 104 CURVE SMOOTH",
"321 111 OFFCURVE",
"314 113 OFFCURVE",
"309 113 CURVE SMOOTH",
"298 113 OFFCURVE",
"286 103 OFFCURVE",
"286 92 CURVE SMOOTH",
"286 85 OFFCURVE",
"291 78 OFFCURVE",
"293 75 CURVE",
"337 19 OFFCURVE",
"383 -11 OFFCURVE",
"455 -10 CURVE SMOOTH"
);
}
);
width = 692;
},
{
layerId = "8816CCA3-DDF9-4C51-BD56-64EE3675A105";
paths = (
{
closed = 1;
nodes = (
"595 -9 OFFCURVE",
"706 81 OFFCURVE",
"706 192 CURVE SMOOTH",
"706 333 OFFCURVE",
"611 366 OFFCURVE",
"535 393 CURVE SMOOTH",
"482 412 OFFCURVE",
"438 437 OFFCURVE",
"438 482 CURVE SMOOTH",
"438 540 OFFCURVE",
"488 548 OFFCURVE",
"550 564 CURVE SMOOTH",
"599 577 OFFCURVE",
"646 574 OFFCURVE",
"646 617 CURVE SMOOTH",
"646 651 OFFCURVE",
"625 675 OFFCURVE",
"583 692 CURVE SMOOTH",
"539 710 OFFCURVE",
"474 726 OFFCURVE",
"384 726 CURVE SMOOTH",
"194 726 OFFCURVE",
"77 584 OFFCURVE",
"77 406 CURVE SMOOTH",
"75 61 LINE SMOOTH",
"75 26 OFFCURVE",
"102 0 OFFCURVE",
"139 0 CURVE SMOOTH",
"177 0 OFFCURVE",
"205 26 OFFCURVE",
"205 61 CURVE SMOOTH",
"207 439 LINE SMOOTH",
"208 566 OFFCURVE",
"300 626 OFFCURVE",
"397 624 CURVE",
"494 626 OFFCURVE",
"520 608 OFFCURVE",
"574 579 CURVE",
"502 639 LINE",
"413 630 OFFCURVE",
"305 582 OFFCURVE",
"305 446 CURVE SMOOTH",
"305 348 OFFCURVE",
"370 306 OFFCURVE",
"437 278 CURVE SMOOTH",
"506 249 OFFCURVE",
"576 234 OFFCURVE",
"576 173 CURVE SMOOTH",
"576 134 OFFCURVE",
"543 110 OFFCURVE",
"476 110 CURVE SMOOTH",
"430 110 OFFCURVE",
"379 143 OFFCURVE",
"348 176 CURVE SMOOTH",
"337 188 OFFCURVE",
"318 193 OFFCURVE",
"307 193 CURVE SMOOTH",
"272 193 OFFCURVE",
"252 158 OFFCURVE",
"252 128 CURVE SMOOTH",
"252 101 OFFCURVE",
"266 78 OFFCURVE",
"268 75 CURVE",
"312 19 OFFCURVE",
"408 -11 OFFCURVE",
"480 -10 CURVE SMOOTH"
);
}
);
width = 746;
}
);
leftMetricsKey = H;
rightMetricsKey = S;
unicode = 1E9E;
},
{
glyphname = Schwa;
lastChange = "2016-07-26 17:29:01 +0000";
layers = (
{
background = {
paths = (
{
closed = 1;
nodes = (
"50 333 LINE",
"54 144 OFFCURVE",
"212 -10 OFFCURVE",
"396 -10 CURVE SMOOTH",
"588 -10 OFFCURVE",
"743 151 OFFCURVE",
"743 350 CURVE SMOOTH",
"743 549 OFFCURVE",
"588 710 OFFCURVE",
"396 710 CURVE SMOOTH",
"263 710 OFFCURVE",
"168 662 OFFCURVE",
"92 570 CURVE SMOOTH",
"84 560 OFFCURVE",
"86 547 OFFCURVE",
"97 540 CURVE",
"106 535 OFFCURVE",
"116 537 OFFCURVE",
"123 545 CURVE SMOOTH",
"192 629 OFFCURVE",
"273 670 OFFCURVE",
"396 670 CURVE SMOOTH",
"558 670 OFFCURVE",
"691 539 OFFCURVE",
"702 372 CURVE",
"702 369 OFFCURVE",
"719 367 OFFCURVE",
"715 367 CURVE SMOOTH",
"70 367 LINE SMOOTH",
"59 367 OFFCURVE",
"50 360 OFFCURVE",
"50 350 CURVE SMOOTH"
);
},
{
closed = 1;
nodes = (
"717 327 LINE SMOOTH",
"720 327 OFFCURVE",
"702 325 OFFCURVE",
"702 322 CURVE",
"688 158 OFFCURVE",
"556 30 OFFCURVE",
"396 30 CURVE SMOOTH",
"237 30 OFFCURVE",
"97 163 OFFCURVE",
"89 327 CURVE"
);
}
);
};
layerId = "254266E2-2911-423D-9D37-8CC6105656EE";
paths = (
{
closed = 1;
nodes = (
"557 -10 OFFCURVE",
"703 151 OFFCURVE",
"703 350 CURVE",
"703 549 OFFCURVE",
"557 710 OFFCURVE",
"376 710 CURVE",
"251 710 OFFCURVE",
"163 662 OFFCURVE",
"92 570 CURVE",
"84 560 OFFCURVE",
"86 547 OFFCURVE",
"97 540 CURVE",
"106 535 OFFCURVE",
"116 537 OFFCURVE",
"123 545 CURVE",
"186 629 OFFCURVE",
"262 670 OFFCURVE",
"376 670 CURVE",
"527 670 OFFCURVE",
"660 527 OFFCURVE",
"660 347 CURVE",
"660 167 OFFCURVE",
"527 30 OFFCURVE",
"376 30 CURVE",
"227 30 OFFCURVE",
"99 163 OFFCURVE",
"91 327 CURVE",
"677 327 LINE",
"675 367 LINE",
"70 367 LINE",
"59 367 OFFCURVE",
"50 360 OFFCURVE",
"50 350 CURVE",
"50 333 LINE",
"54 144 OFFCURVE",
"202 -10 OFFCURVE",
"376 -10 CURVE"
);
}
);
width = 753;
},
{
layerId = "8816CCA3-DDF9-4C51-BD56-64EE3675A105";
paths = (
{
closed = 1;
nodes = (
"580 -10 OFFCURVE",
"736 151 OFFCURVE",
"736 350 CURVE SMOOTH",
"736 549 OFFCURVE",
"577 710 OFFCURVE",
"385 710 CURVE SMOOTH",
"277 710 OFFCURVE",
"196 688 OFFCURVE",
"119 621 CURVE SMOOTH",
"90 596 OFFCURVE",
"93 556 OFFCURVE",
"120 533 CURVE SMOOTH",
"144 512 OFFCURVE",
"176 512 OFFCURVE",
"202 532 CURVE SMOOTH",
"259 577 OFFCURVE",
"321 590 OFFCURVE",
"385 590 CURVE SMOOTH",
"509 590 OFFCURVE",
"609 526 OFFCURVE",
"609 353 CURVE SMOOTH",
"609 194 OFFCURVE",
"511 110 OFFCURVE",
"388 110 CURVE SMOOTH",
"284 110 OFFCURVE",
"195 183 OFFCURVE",
"169 284 CURVE",
"695 284 LINE",
"684 404 LINE",
"115 404 LINE SMOOTH",
"77 404 OFFCURVE",
"40 379 OFFCURVE",
"40 330 CURVE",
"40 305 LINE",
"53 108 OFFCURVE",
"219 -10 OFFCURVE",
"388 -10 CURVE SMOOTH"
);
}
);
width = 776;
}
);
leftMetricsKey = O;
rightMetricsKey = O;
unicode = 018F;
},
{
glyphname = T;
lastChange = "2016-07-29 19:59:09 +0000";
layers = (
{
anchors = (
{
name = bottom;
position = "{298, 0}";
},
{
name = center;
position = "{298, 350}";
},
{
name = top;
position = "{298, 700}";
}
);
layerId = "254266E2-2911-423D-9D37-8CC6105656EE";
paths = (
{
closed = 1;
nodes = (
"309 0 OFFCURVE",
"318 9 OFFCURVE",
"318 20 CURVE SMOOTH",
"318 676 LINE",
"278 676 LINE",
"278 20 LINE SMOOTH",
"278 9 OFFCURVE",
"286 0 OFFCURVE",
"298 0 CURVE SMOOTH"
);
},
{
closed = 1;
nodes = (
"541 662 LINE SMOOTH",
"552 662 OFFCURVE",
"561 669 OFFCURVE",
"561 681 CURVE SMOOTH",
"561 692 OFFCURVE",
"552 700 OFFCURVE",
"541 700 CURVE SMOOTH",
"55 700 LINE SMOOTH",
"44 700 OFFCURVE",
"35 692 OFFCURVE",
"35 681 CURVE SMOOTH",
"35 670 OFFCURVE",
"44 662 OFFCURVE",
"55 662 CURVE SMOOTH"
);
}
);
width = 596;
},
{
anchors = (
{
name = bottom;
position = "{313, 0}";
},
{
name = center;
position = "{313, 350}";
},
{
name = top;
position = "{313, 700}";
}
);
layerId = "8816CCA3-DDF9-4C51-BD56-64EE3675A105";
paths = (
{
closed = 1;
nodes = (
"350 0 OFFCURVE",
"378 26 OFFCURVE",
"378 61 CURVE SMOOTH",
"378 641 LINE",
"248 641 LINE",
"248 61 LINE SMOOTH",
"248 26 OFFCURVE",
"275 0 OFFCURVE",
"312 0 CURVE SMOOTH"
);
},
{
closed = 1;
nodes = (
"535 585 LINE SMOOTH",
"570 585 OFFCURVE",
"596 607 OFFCURVE",
"596 642 CURVE SMOOTH",
"596 677 OFFCURVE",
"570 700 OFFCURVE",
"535 700 CURVE SMOOTH",
"91 700 LINE SMOOTH",
"56 700 OFFCURVE",
"30 677 OFFCURVE",
"30 643 CURVE SMOOTH",
"30 608 OFFCURVE",
"56 585 OFFCURVE",
"91 585 CURVE SMOOTH"
);
}
);
width = 626;
}
);
leftKerningGroup = T;
note = T;
rightKerningGroup = T;
unicode = 0054;
},
{
glyphname = U;
lastChange = "2016-08-08 16:07:03 +0000";
layers = (
{
anchors = (
{
name = bottom;
position = "{358, 0}";
},
{
name = ogonek;
position = "{643, 10}";
},
{
name = top;
position = "{358, 700}";
},
{
name = topright;
position = "{521, 697}";
}
);
layerId = "254266E2-2911-423D-9D37-8CC6105656EE";
paths = (
{
closed = 1;
nodes = (
"583 700 OFFCURVE",
"575 691 OFFCURVE",
"575 680 CURVE",
"575 248 LINE",
"575 128 OFFCURVE",
"477 30 OFFCURVE",
"358 30 CURVE",
"239 30 OFFCURVE",
"142 128 OFFCURVE",
"142 248 CURVE",
"142 680 LINE",
"142 691 OFFCURVE",
"133 700 OFFCURVE",
"121 700 CURVE",
"108 700 OFFCURVE",
"100 691 OFFCURVE",
"100 680 CURVE",
"100 248 LINE",
"100 106 OFFCURVE",
"216 -10 OFFCURVE",
"358 -10 CURVE",
"499 -10 OFFCURVE",
"615 106 OFFCURVE",
"615 248 CURVE",
"615 680 LINE",
"615 691 OFFCURVE",
"607 700 OFFCURVE",
"595 700 CURVE"
);
}
);
width = 715;
},
{
anchors = (
{
name = bottom;
position = "{353, 0}";
},
{
name = ogonek;
position = "{634, 10}";
},
{
name = top;
position = "{353, 700}";
},
{
name = topright;
position = "{486, 713}";
}
);
layerId = "8816CCA3-DDF9-4C51-BD56-64EE3675A105";
paths = (
{
closed = 1;
nodes = (
"537 701 OFFCURVE",
"516 675 OFFCURVE",
"516 640 CURVE",
"516 278 LINE",
"516 178 OFFCURVE",
"439 115 OFFCURVE",
"353 115 CURVE",
"272 115 OFFCURVE",
"199 178 OFFCURVE",
"199 278 CURVE",
"199 640 LINE",
"199 675 OFFCURVE",
"170 701 OFFCURVE",
"139 701 CURVE",
"101 701 OFFCURVE",
"75 675 OFFCURVE",
"75 640 CURVE",
"75 278 LINE",
"75 111 OFFCURVE",
"189 -5 OFFCURVE",
"353 -5 CURVE",
"516 -5 OFFCURVE",
"630 111 OFFCURVE",
"630 278 CURVE",
"630 640 LINE",
"630 675 OFFCURVE",
"607 701 OFFCURVE",
"572 701 CURVE"
);
}
);
width = 705;
}
);
leftKerningGroup = U;
leftMetricsKey = H;
note = U;
rightKerningGroup = U;
rightMetricsKey = H;
unicode = 0055;
},
{
glyphname = Uogonek;
lastChange = "2016-08-08 18:16:11 +0000";
layers = (
{
anchors = (
{
name = _ogonek;
position = "{520, 10}";
},
{
name = bottom;
position = "{358, 0}";
},
{
name = ogonek;
position = "{643, 10}";
},
{
name = top;
position = "{358, 700}";
},
{
name = topright;
position = "{695, 700}";
}
);
layerId = "254266E2-2911-423D-9D37-8CC6105656EE";
paths = (
{
closed = 1;
nodes = (
"470 -185 OFFCURVE",
"501 -163 OFFCURVE",
"501 -136 CURVE",
"501 -129 OFFCURVE",
"495 -122 OFFCURVE",
"486 -122 CURVE",
"476 -122 OFFCURVE",
"471 -128 OFFCURVE",
"465 -138 CURVE SMOOTH",
"460 -146 OFFCURVE",
"450 -148 OFFCURVE",
"434 -148 CURVE",
"406 -148 OFFCURVE",
"379 -125 OFFCURVE",
"379 -85 CURVE",
"379 -18 OFFCURVE",
"446 6 OFFCURVE",
"479 21 CURVE SMOOTH",
"563 59 OFFCURVE",
"615 150 OFFCURVE",
"615 248 CURVE",
"615 680 LINE",
"615 691 OFFCURVE",
"607 700 OFFCURVE",
"595 700 CURVE",
"583 700 OFFCURVE",
"575 691 OFFCURVE",
"575 680 CURVE",
"575 248 LINE",
"575 128 OFFCURVE",
"481 30 OFFCURVE",
"358 30 CURVE",
"239 30 OFFCURVE",
"142 128 OFFCURVE",
"142 248 CURVE",
"142 680 LINE",
"142 691 OFFCURVE",
"133 700 OFFCURVE",
"121 700 CURVE",
"108 700 OFFCURVE",
"100 691 OFFCURVE",
"100 680 CURVE",
"100 248 LINE",
"100 106 OFFCURVE",
"216 -10 OFFCURVE",
"358 -10 CURVE",
"371 -10 OFFCURVE",
"384 -9 OFFCURVE",
"396 -7 CURVE",
"431 19 LINE",
"389 5 OFFCURVE",
"341 -31 OFFCURVE",
"341 -93 CURVE",
"341 -149 OFFCURVE",
"385 -185 OFFCURVE",
"429 -185 CURVE"
);
}
);
width = 715;
},
{
anchors = (
{
name = _ogonek;
position = "{633.866, 10}";
},
{
name = bottom;
position = "{353, 0}";
},
{
name = ogonek;
position = "{634, 10}";
},
{
name = top;
position = "{353, 700}";
},
{
name = topright;
position = "{685, 700}";
}
);
layerId = "8816CCA3-DDF9-4C51-BD56-64EE3675A105";
paths = (
{
closed = 1;
nodes = (
"501 -207 OFFCURVE",
"557 -165 OFFCURVE",
"557 -132 CURVE SMOOTH",
"557 -102 OFFCURVE",
"537 -84 OFFCURVE",
"513 -84 CURVE SMOOTH",
"503 -84 OFFCURVE",
"484 -86 OFFCURVE",
"472 -102 CURVE SMOOTH",
"466 -110 OFFCURVE",
"459 -114 OFFCURVE",
"451 -114 CURVE SMOOTH",
"435 -114 OFFCURVE",
"420 -102 OFFCURVE",
"420 -78 CURVE SMOOTH",
"420 -45 OFFCURVE",
"453 0 OFFCURVE",
"520 44 CURVE SMOOTH",
"601 97 OFFCURVE",
"630 199 OFFCURVE",
"630 278 CURVE",
"630 640 LINE",
"630 675 OFFCURVE",
"607 701 OFFCURVE",
"572 701 CURVE",
"543 701 OFFCURVE",
"516 675 OFFCURVE",
"516 640 CURVE",
"516 278 LINE",
"516 178 OFFCURVE",
"439 115 OFFCURVE",
"353 115 CURVE",
"272 115 OFFCURVE",
"199 178 OFFCURVE",
"199 278 CURVE",
"199 640 LINE",
"199 675 OFFCURVE",
"176 701 OFFCURVE",
"139 701 CURVE",
"101 701 OFFCURVE",
"75 675 OFFCURVE",
"75 640 CURVE",
"75 278 LINE",
"75 111 OFFCURVE",
"189 -5 OFFCURVE",
"353 -5 CURVE",
"366 -5 OFFCURVE",
"380 -4 OFFCURVE",
"393 -4 CURVE",
"504 93 LINE",
"425 72 OFFCURVE",
"321 8 OFFCURVE",
"321 -100 CURVE SMOOTH",
"321 -174 OFFCURVE",
"375 -207 OFFCURVE",
"441 -207 CURVE SMOOTH"
);
}
);
width = 705;
}
);
leftKerningGroup = U;
rightKerningGroup = U;
unicode = 0172;
},
{
glyphname = V;
lastChange = "2016-07-20 13:36:17 +0000";
layers = (
{
anchors = (
{
name = bottom;
position = "{330, 0}";
},
{
name = top;
position = "{330, 700}";
}
);
layerId = "254266E2-2911-423D-9D37-8CC6105656EE";
paths = (
{
closed = 1;
nodes = (
"597 700 OFFCURVE",
"590 695 OFFCURVE",
"586 687 CURVE",
"325 59 LINE",
"337 58 LINE",
"77 684 LINE SMOOTH",
"72 696 OFFCURVE",
"65 700 OFFCURVE",
"55 700 CURVE",
"45 700 OFFCURVE",
"36 692 OFFCURVE",
"36 681 CURVE",
"36 676 OFFCURVE",
"38 671 OFFCURVE",
"39 669 CURVE",
"311 13 LINE",
"314 5 OFFCURVE",
"322 0 OFFCURVE",
"330 0 CURVE",
"338 0 OFFCURVE",
"345 5 OFFCURVE",
"349 13 CURVE",
"623 672 LINE",
"624 675 OFFCURVE",
"625 679 OFFCURVE",
"625 682 CURVE",
"625 692 OFFCURVE",
"618 700 OFFCURVE",
"605 700 CURVE"
);
}
);
width = 660;
},
{
anchors = (
{
name = bottom;
position = "{339, 0}";
},
{
name = top;
position = "{339, 700}";
}
);
layerId = "8816CCA3-DDF9-4C51-BD56-64EE3675A105";
paths = (
{
closed = 1;
nodes = (
"563 702 OFFCURVE",
"542 688 OFFCURVE",
"531 664 CURVE",
"330 148 LINE",
"365 149 LINE",
"146 664 LINE",
"135 689 OFFCURVE",
"114 703 OFFCURVE",
"91 703 CURVE SMOOTH",
"66 703 OFFCURVE",
"30 682 OFFCURVE",
"30 643 CURVE SMOOTH",
"30 635 OFFCURVE",
"31 626 OFFCURVE",
"35 618 CURVE",
"282 38 LINE",
"293 14 OFFCURVE",
"314 1 OFFCURVE",
"336 0 CURVE",
"359 0 OFFCURVE",
"383 12 OFFCURVE",
"395 39 CURVE",
"642 617 LINE",
"646 626 OFFCURVE",
"648 635 OFFCURVE",
"648 644 CURVE SMOOTH",
"648 677 OFFCURVE",
"619 702 OFFCURVE",
"586 702 CURVE SMOOTH"
);
}
);
width = 678;
}
);
leftKerningGroup = V;
note = V;
rightKerningGroup = V;
unicode = 0056;
},
{
glyphname = W;
lastChange = "2016-07-26 13:33:01 +0000";
layers = (
{
anchors = (
{
name = bottom;
position = "{487, 0}";
},
{
name = top;
position = "{487, 700}";
}
);
layerId = "254266E2-2911-423D-9D37-8CC6105656EE";
paths = (
{
closed = 1;
nodes = (
"907 702 OFFCURVE",
"901 697 OFFCURVE",
"898 689 CURVE",
"683 63 LINE",
"692 64 LINE",
"506 532 LINE",
"503 540 OFFCURVE",
"495 545 OFFCURVE",
"487 545 CURVE",
"478 545 OFFCURVE",
"471 540 OFFCURVE",
"468 532 CURVE",
"284 67 LINE",
"291 68 LINE",
"76 689 LINE",
"73 697 OFFCURVE",
"65 702 OFFCURVE",
"57 702 CURVE SMOOTH",
"47 702 OFFCURVE",
"35 695 OFFCURVE",
"35 682 CURVE SMOOTH",
"35 680 OFFCURVE",
"36 676 OFFCURVE",
"37 673 CURVE",
"266 13 LINE",
"268 5 OFFCURVE",
"276 0 OFFCURVE",
"283 0 CURVE SMOOTH",
"292 0 OFFCURVE",
"300 3 OFFCURVE",
"304 12 CURVE",
"491 484 LINE",
"483 484 LINE",
"670 12 LINE",
"673 3 OFFCURVE",
"681 0 OFFCURVE",
"690 0 CURVE SMOOTH",
"697 0 OFFCURVE",
"705 5 OFFCURVE",
"708 13 CURVE",
"937 673 LINE",
"938 676 OFFCURVE",
"939 681 OFFCURVE",
"939 683 CURVE SMOOTH",
"939 696 OFFCURVE",
"930 702 OFFCURVE",
"918 702 CURVE SMOOTH"
);
}
);
width = 974;
},
{
anchors = (
{
name = bottom;
position = "{472, 0}";
},
{
name = top;
position = "{472, 700}";
}
);
layerId = "8816CCA3-DDF9-4C51-BD56-64EE3675A105";
paths = (
{
closed = 1;
nodes = (
"836 703 OFFCURVE",
"811 689 OFFCURVE",
"803 664 CURVE SMOOTH",
"646 188 LINE",
"662 198 LINE",
"532 524 LINE SMOOTH",
"522 548 OFFCURVE",
"501 563 OFFCURVE",
"476 562 CURVE",
"450 563 OFFCURVE",
"429 548 OFFCURVE",
"419 524 CURVE SMOOTH",
"277 183 LINE",
"299 182 LINE",
"140 664 LINE SMOOTH",
"132 689 OFFCURVE",
"107 703 OFFCURVE",
"82 703 CURVE SMOOTH",
"51 703 OFFCURVE",
"16 678 OFFCURVE",
"16 638 CURVE SMOOTH",
"16 632 OFFCURVE",
"17 625 OFFCURVE",
"19 618 CURVE SMOOTH",
"216 38 LINE SMOOTH",
"224 14 OFFCURVE",
"248 1 OFFCURVE",
"270 0 CURVE",
"293 0 OFFCURVE",
"317 13 OFFCURVE",
"329 39 CURVE SMOOTH",
"475 369 LINE",
"466 375 LINE",
"614 39 LINE SMOOTH",
"626 13 OFFCURVE",
"650 0 OFFCURVE",
"673 0 CURVE",
"695 1 OFFCURVE",
"719 14 OFFCURVE",
"727 38 CURVE SMOOTH",
"924 618 LINE SMOOTH",
"926 625 OFFCURVE",
"927 632 OFFCURVE",
"927 638 CURVE SMOOTH",
"927 678 OFFCURVE",
"892 703 OFFCURVE",
"862 703 CURVE SMOOTH"
);
}
);
width = 943;
}
);
leftKerningGroup = W;
note = W;
rightKerningGroup = W;
unicode = 0057;
},
{
glyphname = X;
lastChange = "2016-07-29 19:50:26 +0000";
layers = (
{
anchors = (
{
name = bottom;
position = "{295, 0}";
},
{
name = top;
position = "{295, 700}";
}
);
layerId = "254266E2-2911-423D-9D37-8CC6105656EE";
paths = (
{
closed = 1;
nodes = (
"533 704 OFFCURVE",
"528 701 OFFCURVE",
"524 696 CURVE SMOOTH",
"293 379 LINE",
"315 345 LINE",
"554 674 LINE SMOOTH",
"557 678 OFFCURVE",
"559 684 OFFCURVE",
"559 688 CURVE SMOOTH",
"559 698 OFFCURVE",
"550 704 OFFCURVE",
"539 704 CURVE SMOOTH"
);
},
{
closed = 1;
nodes = (
"39 703 OFFCURVE",
"30 695 OFFCURVE",
"30 683 CURVE SMOOTH",
"30 679 OFFCURVE",
"31 675 OFFCURVE",
"34 671 CURVE SMOOTH",
"522 5 LINE SMOOTH",
"526 -1 OFFCURVE",
"532 -3 OFFCURVE",
"538 -3 CURVE SMOOTH",
"549 -3 OFFCURVE",
"559 5 OFFCURVE",
"559 17 CURVE SMOOTH",
"559 21 OFFCURVE",
"557 25 OFFCURVE",
"554 29 CURVE SMOOTH",
"67 695 LINE SMOOTH",
"63 701 OFFCURVE",
"56 703 OFFCURVE",
"50 703 CURVE SMOOTH"
);
},
{
closed = 1;
nodes = (
"56 -3 OFFCURVE",
"61 -1 OFFCURVE",
"65 5 CURVE SMOOTH",
"295 319 LINE",
"275 353 LINE",
"36 27 LINE SMOOTH",
"33 22 OFFCURVE",
"31 18 OFFCURVE",
"31 14 CURVE SMOOTH",
"31 7 OFFCURVE",
"37 -3 OFFCURVE",
"50 -3 CURVE SMOOTH"
);
}
);
width = 589;
},
{
anchors = (
{
name = bottom;
position = "{328, 0}";
},
{
name = top;
position = "{328, 700}";
}
);
layerId = "8816CCA3-DDF9-4C51-BD56-64EE3675A105";
paths = (
{
closed = 1;
nodes = (
"536 701 OFFCURVE",
"518 690 OFFCURVE",
"505 672 CURVE SMOOTH",
"328 437 LINE",
"396 344 LINE",
"597 609 LINE SMOOTH",
"606 621 OFFCURVE",
"610 633 OFFCURVE",
"610 645 CURVE SMOOTH",
"610 672 OFFCURVE",
"584 701 OFFCURVE",
"554 701 CURVE SMOOTH"
);
},
{
closed = 1;
nodes = (
"78 703 OFFCURVE",
"47 676 OFFCURVE",
"47 642 CURVE SMOOTH",
"47 630 OFFCURVE",
"51 617 OFFCURVE",
"60 606 CURVE SMOOTH",
"500 21 LINE SMOOTH",
"513 4 OFFCURVE",
"530 -5 OFFCURVE",
"549 -5 CURVE SMOOTH",
"576 -5 OFFCURVE",
"609 18 OFFCURVE",
"609 55 CURVE SMOOTH",
"609 68 OFFCURVE",
"605 81 OFFCURVE",
"597 92 CURVE SMOOTH",
"157 677 LINE SMOOTH",
"144 694 OFFCURVE",
"126 703 OFFCURVE",
"108 703 CURVE SMOOTH"
);
},
{
closed = 1;
nodes = (
"118 -5 OFFCURVE",
"136 5 OFFCURVE",
"149 23 CURVE SMOOTH",
"329 267 LINE",
"263 364 LINE",
"60 89 LINE SMOOTH",
"50 76 OFFCURVE",
"45 62 OFFCURVE",
"45 48 CURVE SMOOTH",
"45 21 OFFCURVE",
"69 -5 OFFCURVE",
"99 -5 CURVE SMOOTH"
);
}
);
width = 655;
}
);
leftKerningGroup = X;
note = X;
rightKerningGroup = X;
unicode = 0058;
},
{
glyphname = Y;
lastChange = "2016-07-29 19:50:56 +0000";
layers = (
{
anchors = (
{
name = bottom;
position = "{274, 0}";
},
{
name = top;
position = "{274, 700}";
},
{
name = topleft;
position = "{20, 700}";
}
);
layerId = "254266E2-2911-423D-9D37-8CC6105656EE";
paths = (
{
closed = 1;
nodes = (
"500 704 OFFCURVE",
"494 701 OFFCURVE",
"490 695 CURVE",
"270 394 LINE",
"280 392 LINE",
"58 695 LINE",
"54 701 OFFCURVE",
"47 704 OFFCURVE",
"41 704 CURVE SMOOTH",
"31 704 OFFCURVE",
"20 695 OFFCURVE",
"20 685 CURVE SMOOTH",
"20 680 OFFCURVE",
"21 676 OFFCURVE",
"24 672 CURVE",
"258 351 LINE",
"253 372 LINE",
"253 20 LINE",
"253 9 OFFCURVE",
"261 0 OFFCURVE",
"274 0 CURVE",
"286 0 OFFCURVE",
"295 9 OFFCURVE",
"295 20 CURVE",
"295 379 LINE",
"286 350 LINE",
"523 672 LINE",
"525 676 OFFCURVE",
"527 680 OFFCURVE",
"527 685 CURVE SMOOTH",
"527 692 OFFCURVE",
"520 704 OFFCURVE",
"507 704 CURVE SMOOTH"
);
}
);
width = 547;
},
{
anchors = (
{
name = bottom;
position = "{303, -1}";
},
{
name = top;
position = "{298, 700}";
},
{
name = topleft;
position = "{20, 700}";
}
);
layerId = "8816CCA3-DDF9-4C51-BD56-64EE3675A105";
paths = (
{
closed = 1;
nodes = (
"503 703 OFFCURVE",
"485 693 OFFCURVE",
"471 673 CURVE SMOOTH",
"294 414 LINE",
"322 410 LINE",
"130 675 LINE SMOOTH",
"116 694 OFFCURVE",
"99 703 OFFCURVE",
"81 703 CURVE SMOOTH",
"52 703 OFFCURVE",
"17 678 OFFCURVE",
"17 642 CURVE SMOOTH",
"17 628 OFFCURVE",
"22 612 OFFCURVE",
"35 595 CURVE SMOOTH",
"251 308 LINE",
"243 340 LINE",
"243 61 LINE",
"243 26 OFFCURVE",
"270 0 OFFCURVE",
"303 0 CURVE",
"334 0 OFFCURVE",
"361 26 OFFCURVE",
"361 61 CURVE",
"361 348 LINE",
"343 279 LINE",
"570 604 LINE SMOOTH",
"578 616 OFFCURVE",
"581 629 OFFCURVE",
"581 641 CURVE SMOOTH",
"581 677 OFFCURVE",
"552 703 OFFCURVE",
"521 703 CURVE SMOOTH"
);
}
);
width = 596;
}
);
leftKerningGroup = Y;
note = Y;
rightKerningGroup = Y;
unicode = 0059;
},
{
glyphname = Z;
lastChange = "2016-07-29 19:56:15 +0000";
layers = (
{
anchors = (
{
name = bottom;
position = "{322, 0}";
},
{
name = top;
position = "{322, 700}";
}
);
layerId = "254266E2-2911-423D-9D37-8CC6105656EE";
paths = (
{
closed = 1;
nodes = (
"100 700 LINE",
"89 700 OFFCURVE",
"80 692 OFFCURVE",
"80 681 CURVE",
"80 671 OFFCURVE",
"89 662 OFFCURVE",
"100 662 CURVE",
"545 662 LINE",
"539 666 LINE",
"64 33 LINE",
"61 29 OFFCURVE",
"60 25 OFFCURVE",
"60 21 CURVE SMOOTH",
"60 11 OFFCURVE",
"67 0 OFFCURVE",
"80 0 CURVE",
"572 0 LINE",
"583 0 OFFCURVE",
"592 8 OFFCURVE",
"592 19 CURVE",
"592 28 OFFCURVE",
"583 38 OFFCURVE",
"572 38 CURVE",
"112 38 LINE",
"111 28 LINE",
"589 668 LINE",
"592 672 OFFCURVE",
"593 676 OFFCURVE",
"593 680 CURVE SMOOTH",
"593 689 OFFCURVE",
"587 700 OFFCURVE",
"570 700 CURVE"
);
}
);
width = 643;
},
{
anchors = (
{
name = bottom;
position = "{324, 0}";
},
{
name = top;
position = "{324, 700}";
}
);
layerId = "8816CCA3-DDF9-4C51-BD56-64EE3675A105";
paths = (
{
closed = 1;
nodes = (
"139 700 LINE SMOOTH",
"104 700 OFFCURVE",
"78 677 OFFCURVE",
"78 643 CURVE SMOOTH",
"78 608 OFFCURVE",
"104 585 OFFCURVE",
"139 585 CURVE SMOOTH",
"442 585 LINE",
"433 591 LINE",
"49 97 LINE SMOOTH",
"40 85 OFFCURVE",
"35 72 OFFCURVE",
"35 59 CURVE SMOOTH",
"35 29 OFFCURVE",
"64 0 OFFCURVE",
"99 0 CURVE SMOOTH",
"538 0 LINE SMOOTH",
"573 0 OFFCURVE",
"599 24 OFFCURVE",
"599 58 CURVE SMOOTH",
"599 93 OFFCURVE",
"573 115 OFFCURVE",
"538 115 CURVE SMOOTH",
"204 115 LINE",
"216 111 LINE",
"599 603 LINE SMOOTH",
"608 615 OFFCURVE",
"613 628 OFFCURVE",
"613 641 CURVE SMOOTH",
"613 677 OFFCURVE",
"577 700 OFFCURVE",
"548 700 CURVE SMOOTH"
);
}
);
width = 648;
}
);
leftKerningGroup = Z;
note = Z;
rightKerningGroup = Z;
unicode = 005A;
},
{
glyphname = a;
lastChange = "2016-07-29 20:03:43 +0000";
layers = (
{
anchors = (
{
name = bottom;
position = "{278, 0}";
},
{
name = ogonek;
position = "{535, 10}";
},
{
name = top;
position = "{288, 499}";
}
);
background = {
paths = (
{
closed = 1;
nodes = (
"455 515 OFFCURVE",
"447 506 OFFCURVE",
"447 495 CURVE SMOOTH",
"447 414 LINE SMOOTH",
"447 409 OFFCURVE",
"444 408 OFFCURVE",
"441 412 CURVE",
"395 480 OFFCURVE",
"320 525 OFFCURVE",
"235 525 CURVE SMOOTH",
"96 525 OFFCURVE",
"-17 406 OFFCURVE",
"-17 258 CURVE SMOOTH",
"-17 110 OFFCURVE",
"96 -10 OFFCURVE",
"235 -10 CURVE SMOOTH",
"320 -10 OFFCURVE",
"395 35 OFFCURVE",
"441 104 CURVE",
"444 108 OFFCURVE",
"447 107 OFFCURVE",
"447 102 CURVE SMOOTH",
"447 20 LINE SMOOTH",
"447 9 OFFCURVE",
"455 0 OFFCURVE",
"467 0 CURVE SMOOTH",
"478 0 OFFCURVE",
"487 9 OFFCURVE",
"487 20 CURVE SMOOTH",
"487 495 LINE SMOOTH",
"487 506 OFFCURVE",
"479 515 OFFCURVE",
"467 515 CURVE SMOOTH"
);
},
{
closed = 1;
nodes = (
"119 30 OFFCURVE",
"23 132 OFFCURVE",
"23 258 CURVE SMOOTH",
"23 384 OFFCURVE",
"119 485 OFFCURVE",
"235 485 CURVE SMOOTH",
"351 485 OFFCURVE",
"447 384 OFFCURVE",
"447 258 CURVE SMOOTH",
"447 132 OFFCURVE",
"351 30 OFFCURVE",
"235 30 CURVE SMOOTH"
);
}
);
};
layerId = "254266E2-2911-423D-9D37-8CC6105656EE";
paths = (
{
closed = 1;
nodes = (
"480 499 OFFCURVE",
"472 489 OFFCURVE",
"472 479 CURVE",
"472 334 LINE",
"488 309 LINE",
"488 427 OFFCURVE",
"395 515 OFFCURVE",
"280 515 CURVE",
"148 515 OFFCURVE",
"48 406 OFFCURVE",
"48 255 CURVE",
"48 104 OFFCURVE",
"146 -10 OFFCURVE",
"280 -10 CURVE",
"397 -10 OFFCURVE",
"488 89 OFFCURVE",
"488 175 CURVE",
"472 162 LINE",
"472 20 LINE",
"472 9 OFFCURVE",
"480 0 OFFCURVE",
"492 0 CURVE",
"503 0 OFFCURVE",
"512 9 OFFCURVE",
"512 20 CURVE",
"512 479 LINE",
"512 490 OFFCURVE",
"504 499 OFFCURVE",
"492 499 CURVE"
);
},
{
closed = 1;
nodes = (
"169 28 OFFCURVE",
"88 125 OFFCURVE",
"88 255 CURVE",
"88 385 OFFCURVE",
"171 477 OFFCURVE",
"282 477 CURVE",
"394 477 OFFCURVE",
"476 379 OFFCURVE",
"476 255 CURVE",
"476 125 OFFCURVE",
"394 28 OFFCURVE",
"282 28 CURVE"
);
}
);
width = 595;
},
{
anchors = (
{
name = bottom;
position = "{312, 0}";
},
{
name = ogonek;
position = "{557, 0}";
},
{
name = top;
position = "{302, 515}";
}
);
layerId = "8816CCA3-DDF9-4C51-BD56-64EE3675A105";
paths = (
{
closed = 1;
nodes = (
"463 545 OFFCURVE",
"438 519 OFFCURVE",
"438 484 CURVE",
"438 411 LINE",
"474 424 LINE",
"474 462 OFFCURVE",
"391 545 OFFCURVE",
"277 545 CURVE",
"142 545 OFFCURVE",
"35 431 OFFCURVE",
"35 267 CURVE",
"35 104 OFFCURVE",
"142 -10 OFFCURVE",
"281 -10 CURVE",
"381 -10 OFFCURVE",
"460 67 OFFCURVE",
"460 101 CURVE",
"438 110 LINE",
"438 61 LINE",
"438 26 OFFCURVE",
"463 0 OFFCURVE",
"498 0 CURVE",
"533 0 OFFCURVE",
"558 26 OFFCURVE",
"558 61 CURVE",
"558 484 LINE",
"558 520 OFFCURVE",
"533 545 OFFCURVE",
"498 545 CURVE"
);
},
{
closed = 1;
nodes = (
"209 100 OFFCURVE",
"150 172 OFFCURVE",
"150 267 CURVE",
"150 362 OFFCURVE",
"209 435 OFFCURVE",
"296 435 CURVE",
"384 435 OFFCURVE",
"443 362 OFFCURVE",
"443 267 CURVE",
"443 172 OFFCURVE",
"384 100 OFFCURVE",
"296 100 CURVE"
);
}
);
width = 623;
}
);
leftKerningGroup = a;
leftMetricsKey = o;
note = a;
rightKerningGroup = a;
rightMetricsKey = n;
unicode = 0061;
},
{
glyphname = aogonek;
lastChange = "2016-08-08 18:16:30 +0000";
layers = (
{
anchors = (
{
name = _ogonek;
position = "{567, 10}";
},
{
name = bottom;
position = "{298, 0}";
},
{
name = ogonek;
position = "{535, 10}";
},
{
name = top;
position = "{298, 499}";
}
);
layerId = "254266E2-2911-423D-9D37-8CC6105656EE";
paths = (
{
closed = 1;
nodes = (
"169 28 OFFCURVE",
"88 125 OFFCURVE",
"88 255 CURVE",
"88 385 OFFCURVE",
"171 477 OFFCURVE",
"282 477 CURVE",
"394 477 OFFCURVE",
"476 379 OFFCURVE",
"476 255 CURVE",
"476 125 OFFCURVE",
"394 28 OFFCURVE",
"282 28 CURVE"
);
},
{
closed = 1;
nodes = (
"517 -185 OFFCURVE",
"548 -163 OFFCURVE",
"548 -136 CURVE",
"548 -129 OFFCURVE",
"543 -122 OFFCURVE",
"534 -122 CURVE",
"524 -122 OFFCURVE",
"519 -129 OFFCURVE",
"513 -136 CURVE SMOOTH",
"506 -146 OFFCURVE",
"496 -148 OFFCURVE",
"481 -148 CURVE",
"453 -148 OFFCURVE",
"426 -125 OFFCURVE",
"426 -85 CURVE",
"426 -51 OFFCURVE",
"452 -19 OFFCURVE",
"484 -8 CURVE SMOOTH",
"507 0 OFFCURVE",
"512 10 OFFCURVE",
"512 20 CURVE",
"512 479 LINE",
"512 490 OFFCURVE",
"504 499 OFFCURVE",
"492 499 CURVE",
"480 499 OFFCURVE",
"472 489 OFFCURVE",
"472 479 CURVE",
"472 334 LINE",
"488 309 LINE",
"488 427 OFFCURVE",
"395 515 OFFCURVE",
"280 515 CURVE",
"148 515 OFFCURVE",
"48 406 OFFCURVE",
"48 255 CURVE",
"48 104 OFFCURVE",
"146 -10 OFFCURVE",
"280 -10 CURVE",
"397 -10 OFFCURVE",
"488 89 OFFCURVE",
"488 175 CURVE",
"472 162 LINE",
"472 9 LINE",
"474 17 LINE",
"432 3 OFFCURVE",
"388 -31 OFFCURVE",
"388 -93 CURVE",
"388 -149 OFFCURVE",
"432 -185 OFFCURVE",
"476 -185 CURVE"
);
}
);
width = 593;
},
{
anchors = (
{
name = _ogonek;
position = "{556.609, 0}";
},
{
name = bottom;
position = "{312, 0}";
},
{
name = ogonek;
position = "{557, 0}";
},
{
name = top;
position = "{312, 515}";
}
);
layerId = "8816CCA3-DDF9-4C51-BD56-64EE3675A105";
paths = (
{
closed = 1;
nodes = (
"209 100 OFFCURVE",
"150 172 OFFCURVE",
"150 267 CURVE",
"150 362 OFFCURVE",
"209 435 OFFCURVE",
"296 435 CURVE",
"384 435 OFFCURVE",
"443 362 OFFCURVE",
"443 267 CURVE",
"443 172 OFFCURVE",
"384 100 OFFCURVE",
"296 100 CURVE"
);
},
{
closed = 1;
nodes = (
"506 -217 OFFCURVE",
"562 -175 OFFCURVE",
"562 -142 CURVE SMOOTH",
"562 -112 OFFCURVE",
"542 -94 OFFCURVE",
"518 -94 CURVE SMOOTH",
"508 -94 OFFCURVE",
"489 -96 OFFCURVE",
"477 -112 CURVE SMOOTH",
"471 -120 OFFCURVE",
"464 -124 OFFCURVE",
"456 -124 CURVE SMOOTH",
"440 -124 OFFCURVE",
"425 -112 OFFCURVE",
"425 -88 CURVE SMOOTH",
"425 -55 OFFCURVE",
"471 -29 OFFCURVE",
"531 -12 CURVE SMOOTH",
"552 -6 OFFCURVE",
"558 11 OFFCURVE",
"558 25 CURVE",
"558 484 LINE",
"558 520 OFFCURVE",
"533 545 OFFCURVE",
"498 545 CURVE",
"463 545 OFFCURVE",
"438 519 OFFCURVE",
"438 484 CURVE",
"438 411 LINE",
"474 424 LINE",
"474 462 OFFCURVE",
"391 545 OFFCURVE",
"277 545 CURVE",
"142 545 OFFCURVE",
"35 431 OFFCURVE",
"35 267 CURVE",
"35 104 OFFCURVE",
"142 -10 OFFCURVE",
"281 -10 CURVE",
"381 -10 OFFCURVE",
"460 67 OFFCURVE",
"460 101 CURVE",
"438 110 LINE",
"438 -2 LINE",
"509 53 LINE",
"430 32 OFFCURVE",
"326 -2 OFFCURVE",
"326 -110 CURVE SMOOTH",
"326 -184 OFFCURVE",
"380 -217 OFFCURVE",
"446 -217 CURVE SMOOTH"
);
}
);
width = 623;
}
);
leftKerningGroup = a;
leftMetricsKey = a;
note = aogonek;
rightKerningGroup = a;
unicode = 0105;
},
{
glyphname = ae;
lastChange = "2016-07-26 22:09:33 +0000";
layers = (
{
anchors = (
{
name = bottom;
position = "{406, 0}";
},
{
name = ogonek;
position = "{838, 10}";
},
{
name = top;
position = "{457, 515}";
}
);
background = {
paths = (
{
closed = 1;
nodes = (
"423 480 LINE SMOOTH",
"423 491 OFFCURVE",
"415 500 OFFCURVE",
"403 500 CURVE SMOOTH",
"391 500 OFFCURVE",
"383 491 OFFCURVE",
"383 480 CURVE SMOOTH",
"383 400 LINE SMOOTH",
"383 395 OFFCURVE",
"380 394 OFFCURVE",
"377 398 CURVE",
"334 460 OFFCURVE",
"265 500 OFFCURVE",
"187 500 CURVE SMOOTH",
"57 500 OFFCURVE",
"-48 388 OFFCURVE",
"-48 250 CURVE SMOOTH",
"-48 112 OFFCURVE",
"57 0 OFFCURVE",
"187 0 CURVE SMOOTH",
"265 0 OFFCURVE",
"334 40 OFFCURVE",
"377 102 CURVE",
"380 106 OFFCURVE",
"383 105 OFFCURVE",
"383 100 CURVE SMOOTH",
"383 20 LINE SMOOTH",
"383 9 OFFCURVE",
"391 0 OFFCURVE",
"403 0 CURVE SMOOTH",
"414 0 OFFCURVE",
"423 9 OFFCURVE",
"423 20 CURVE SMOOTH",
"423 102 LINE SMOOTH",
"423 107 OFFCURVE",
"426 108 OFFCURVE",
"429 104 CURVE SMOOTH",
"474 41 OFFCURVE",
"547 0 OFFCURVE",
"634 0 CURVE SMOOTH",
"713 0 OFFCURVE",
"790 38 OFFCURVE",
"836 98 CURVE",
"843 108 OFFCURVE",
"840 121 OFFCURVE",
"830 127 CURVE",
"829 128 LINE",
"819 134 OFFCURVE",
"808 131 OFFCURVE",
"801 122 CURVE",
"766 72 OFFCURVE",
"702 40 OFFCURVE",
"634 40 CURVE SMOOTH",
"523 40 OFFCURVE",
"439 118 OFFCURVE",
"425 221 CURVE",
"424 224 OFFCURVE",
"426 226 OFFCURVE",
"429 226 CURVE SMOOTH",
"845 226 LINE SMOOTH",
"856 226 OFFCURVE",
"865 235 OFFCURVE",
"865 247 CURVE",
"860 404 OFFCURVE",
"755 500 OFFCURVE",
"624 500 CURVE SMOOTH",
"544 500 OFFCURVE",
"473 459 OFFCURVE",
"429 397 CURVE SMOOTH",
"426 393 OFFCURVE",
"423 394 OFFCURVE",
"423 399 CURVE SMOOTH"
);
},
{
closed = 1;
nodes = (
"81 40 OFFCURVE",
"-8 134 OFFCURVE",
"-8 250 CURVE SMOOTH",
"-8 366 OFFCURVE",
"81 460 OFFCURVE",
"187 460 CURVE SMOOTH",
"294 460 OFFCURVE",
"383 366 OFFCURVE",
"383 250 CURVE SMOOTH",
"383 134 OFFCURVE",
"294 40 OFFCURVE",
"187 40 CURVE SMOOTH"
);
},
{
closed = 1;
nodes = (
"428 266 LINE SMOOTH",
"425 266 OFFCURVE",
"423 268 OFFCURVE",
"423 271 CURVE",
"434 378 OFFCURVE",
"521 460 OFFCURVE",
"624 460 CURVE SMOOTH",
"725 460 OFFCURVE",
"812 380 OFFCURVE",
"824 271 CURVE",
"824 268 OFFCURVE",
"822 266 OFFCURVE",
"819 266 CURVE SMOOTH"
);
}
);
};
layerId = "254266E2-2911-423D-9D37-8CC6105656EE";
paths = (
{
closed = 1;
nodes = (
"187 515 OFFCURVE",
"107 459 OFFCURVE",
"66 405 CURVE",
"63 401 OFFCURVE",
"62 397 OFFCURVE",
"62 393 CURVE",
"62 384 OFFCURVE",
"69 375 OFFCURVE",
"79 375 CURVE",
"86 375 OFFCURVE",
"91 378 OFFCURVE",
"96 384 CURVE",
"126 429 OFFCURVE",
"199 477 OFFCURVE",
"266 477 CURVE",
"324 477 OFFCURVE",
"390 458 OFFCURVE",
"390 370 CURVE",
"390 251 LINE",
"426 252 LINE",
"426 388 LINE",
"426 485 OFFCURVE",
"350 515 OFFCURVE",
"266 515 CURVE"
);
},
{
closed = 1;
nodes = (
"320 -10 OFFCURVE",
"389 70 OFFCURVE",
"426 125 CURVE",
"404 157 LINE",
"379 106 OFFCURVE",
"290 28 OFFCURVE",
"202 28 CURVE",
"151 28 OFFCURVE",
"88 63 OFFCURVE",
"88 140 CURVE",
"88 218 OFFCURVE",
"172 266 OFFCURVE",
"322 266 CURVE",
"819 266 LINE",
"830 266 OFFCURVE",
"839 276 OFFCURVE",
"839 287 CURVE",
"834 443 OFFCURVE",
"726 515 OFFCURVE",
"613 515 CURVE",
"497 515 OFFCURVE",
"387 417 OFFCURVE",
"387 250 CURVE",
"387 92 OFFCURVE",
"493 -10 OFFCURVE",
"643 -10 CURVE",
"722 -10 OFFCURVE",
"789 36 OFFCURVE",
"830 90 CURVE",
"833 94 OFFCURVE",
"834 98 OFFCURVE",
"834 102 CURVE",
"834 111 OFFCURVE",
"826 120 OFFCURVE",
"817 120 CURVE",
"810 120 OFFCURVE",
"805 117 OFFCURVE",
"800 111 CURVE",
"770 66 OFFCURVE",
"710 28 OFFCURVE",
"643 28 CURVE",
"501 28 OFFCURVE",
"426 131 OFFCURVE",
"426 253 CURVE",
"426 403 OFFCURVE",
"532 475 OFFCURVE",
"613 475 CURVE",
"698 475 OFFCURVE",
"787 419 OFFCURVE",
"798 313 CURVE",
"798 295 LINE",
"808 304 LINE",
"320 304 LINE",
"142 304 OFFCURVE",
"48 239 OFFCURVE",
"48 136 CURVE",
"48 39 OFFCURVE",
"128 -10 OFFCURVE",
"198 -10 CURVE"
);
}
);
width = 887;
},
{
anchors = (
{
name = bottom;
position = "{416, 0}";
},
{
name = ogonek;
position = "{858, 10}";
},
{
name = top;
position = "{416, 515}";
}
);
layerId = "8816CCA3-DDF9-4C51-BD56-64EE3675A105";
paths = (
{
closed = 1;
nodes = (
"156 545 OFFCURVE",
"90 487 OFFCURVE",
"49 436 CURVE SMOOTH",
"38 422 OFFCURVE",
"35 408 OFFCURVE",
"35 395 CURVE SMOOTH",
"35 366 OFFCURVE",
"60 347 OFFCURVE",
"86 347 CURVE SMOOTH",
"103 347 OFFCURVE",
"119 355 OFFCURVE",
"131 368 CURVE",
"163 406 OFFCURVE",
"193 435 OFFCURVE",
"264 435 CURVE",
"305 435 OFFCURVE",
"371 426 OFFCURVE",
"371 351 CURVE",
"371 260 LINE",
"486 267 LINE",
"486 388 LINE",
"486 509 OFFCURVE",
"366 545 OFFCURVE",
"267 545 CURVE"
);
},
{
closed = 1;
nodes = (
"330 -10 OFFCURVE",
"407 57 OFFCURVE",
"436 100 CURVE",
"383 181 LINE",
"365 146 OFFCURVE",
"321 98 OFFCURVE",
"232 98 CURVE",
"195 98 OFFCURVE",
"158 115 OFFCURVE",
"158 156 CURVE",
"158 188 OFFCURVE",
"169 226 OFFCURVE",
"241 226 CURVE",
"820 226 LINE",
"852 226 OFFCURVE",
"879 248 OFFCURVE",
"881 280 CURVE",
"881 424 OFFCURVE",
"763 545 OFFCURVE",
"628 545 CURVE",
"496 545 OFFCURVE",
"371 439 OFFCURVE",
"371 260 CURVE",
"371 106 OFFCURVE",
"477 -10 OFFCURVE",
"648 -10 CURVE",
"714 -10 OFFCURVE",
"783 16 OFFCURVE",
"818 45 CURVE",
"837 60 OFFCURVE",
"846 77 OFFCURVE",
"846 94 CURVE SMOOTH",
"846 120 OFFCURVE",
"824 144 OFFCURVE",
"795 144 CURVE SMOOTH",
"784 144 OFFCURVE",
"773 141 OFFCURVE",
"761 135 CURVE",
"739 123 OFFCURVE",
"715 100 OFFCURVE",
"642 100 CURVE",
"562 100 OFFCURVE",
"486 159 OFFCURVE",
"486 268 CURVE",
"486 398 OFFCURVE",
"548 435 OFFCURVE",
"628 435 CURVE",
"690 435 OFFCURVE",
"748 390 OFFCURVE",
"753 333 CURVE",
"753 308 LINE",
"771 326 LINE",
"253 326 LINE",
"98 326 OFFCURVE",
"38 258 OFFCURVE",
"38 154 CURVE",
"38 39 OFFCURVE",
"138 -10 OFFCURVE",
"228 -10 CURVE"
);
}
);
width = 916;
}
);
leftMetricsKey = a;
note = ae;
rightMetricsKey = e;
unicode = 00E6;
},
{
glyphname = b;
lastChange = "2016-07-20 13:36:17 +0000";
layers = (
{
anchors = (
{
name = bottom;
position = "{298, 0}";
},
{
name = top;
position = "{298, 499}";
}
);
layerId = "254266E2-2911-423D-9D37-8CC6105656EE";
paths = (
{
closed = 1;
nodes = (
"226 515 OFFCURVE",
"147 462 OFFCURVE",
"110 364 CURVE",
"123 357 LINE",
"123 719 LINE",
"123 730 OFFCURVE",
"115 739 OFFCURVE",
"103 739 CURVE",
"91 739 OFFCURVE",
"83 730 OFFCURVE",
"83 719 CURVE",
"83 20 LINE",
"83 9 OFFCURVE",
"92 0 OFFCURVE",
"103 0 CURVE",
"115 0 OFFCURVE",
"123 9 OFFCURVE",
"123 20 CURVE",
"123 147 LINE",
"110 133 LINE",
"152 45 OFFCURVE",
"226 -10 OFFCURVE",
"315 -10 CURVE",
"447 -10 OFFCURVE",
"547 105 OFFCURVE",
"547 255 CURVE",
"547 406 OFFCURVE",
"448 515 OFFCURVE",
"315 515 CURVE"
);
},
{
closed = 1;
nodes = (
"424 477 OFFCURVE",
"507 384 OFFCURVE",
"507 255 CURVE",
"507 126 OFFCURVE",
"424 28 OFFCURVE",
"313 28 CURVE",
"199 28 OFFCURVE",
"119 125 OFFCURVE",
"119 255 CURVE",
"119 385 OFFCURVE",
"199 477 OFFCURVE",
"313 477 CURVE"
);
}
);
width = 595;
},
{
anchors = (
{
name = bottom;
position = "{312, 0}";
},
{
name = top;
position = "{312, 515}";
}
);
layerId = "8816CCA3-DDF9-4C51-BD56-64EE3675A105";
paths = (
{
closed = 1;
nodes = (
"248 545 OFFCURVE",
"168 468 OFFCURVE",
"168 434 CURVE",
"185 425 LINE",
"185 679 LINE",
"185 714 OFFCURVE",
"160 740 OFFCURVE",
"125 740 CURVE",
"90 740 OFFCURVE",
"65 714 OFFCURVE",
"65 679 CURVE",
"65 51 LINE",
"65 15 OFFCURVE",
"90 -10 OFFCURVE",
"125 -10 CURVE",
"160 -10 OFFCURVE",
"185 16 OFFCURVE",
"185 51 CURVE",
"185 124 LINE",
"154 111 LINE",
"154 73 OFFCURVE",
"238 -10 OFFCURVE",
"346 -10 CURVE",
"481 -10 OFFCURVE",
"588 104 OFFCURVE",
"588 268 CURVE",
"588 431 OFFCURVE",
"481 545 OFFCURVE",
"342 545 CURVE"
);
},
{
closed = 1;
nodes = (
"414 435 OFFCURVE",
"473 363 OFFCURVE",
"473 268 CURVE",
"473 173 OFFCURVE",
"414 100 OFFCURVE",
"327 100 CURVE",
"239 100 OFFCURVE",
"180 173 OFFCURVE",
"180 268 CURVE",
"180 363 OFFCURVE",
"239 435 OFFCURVE",
"327 435 CURVE"
);
}
);
width = 623;
}
);
leftKerningGroup = b;
leftMetricsKey = n;
note = b;
rightKerningGroup = b;
rightMetricsKey = o;
unicode = 0062;
},
{
glyphname = c;
lastChange = "2016-07-29 20:04:07 +0000";
layers = (
{
anchors = (
{
name = bottom;
position = "{257, 0}";
},
{
name = top;
position = "{297, 499}";
}
);
layerId = "254266E2-2911-423D-9D37-8CC6105656EE";
paths = (
{
closed = 1;
nodes = (
"148 515 OFFCURVE",
"48 392 OFFCURVE",
"48 253 CURVE",
"48 102 OFFCURVE",
"149 -10 OFFCURVE",
"296 -10 CURVE",
"404 -10 OFFCURVE",
"473 46 OFFCURVE",
"473 71 CURVE",
"473 82 OFFCURVE",
"466 89 OFFCURVE",
"456 89 CURVE",
"441 89 OFFCURVE",
"436 71 OFFCURVE",
"408 55 CURVE",
"385 42 OFFCURVE",
"359 28 OFFCURVE",
"299 28 CURVE",
"174 28 OFFCURVE",
"88 124 OFFCURVE",
"88 253 CURVE",
"88 378 OFFCURVE",
"183 477 OFFCURVE",
"299 477 CURVE",
"348 477 OFFCURVE",
"382 469 OFFCURVE",
"401 460 CURVE",
"431 445 OFFCURVE",
"431 424 OFFCURVE",
"454 424 CURVE",
"465 424 OFFCURVE",
"473 434 OFFCURVE",
"473 444 CURVE",
"473 480 OFFCURVE",
"389 515 OFFCURVE",
"300 515 CURVE"
);
}
);
width = 513;
},
{
anchors = (
{
name = bottom;
position = "{258, 0}";
},
{
name = top;
position = "{298, 515}";
}
);
layerId = "8816CCA3-DDF9-4C51-BD56-64EE3675A105";
paths = (
{
closed = 1;
nodes = (
"144 545 OFFCURVE",
"35 431 OFFCURVE",
"35 267 CURVE",
"35 110 OFFCURVE",
"135 -10 OFFCURVE",
"293 -10 CURVE",
"398 -10 OFFCURVE",
"493 31 OFFCURVE",
"493 81 CURVE SMOOTH",
"493 113 OFFCURVE",
"474 138 OFFCURVE",
"439 138 CURVE",
"409 138 OFFCURVE",
"400 122 OFFCURVE",
"381 112 CURVE SMOOTH",
"365 104 OFFCURVE",
"341 100 OFFCURVE",
"308 100 CURVE",
"218 100 OFFCURVE",
"155 171 OFFCURVE",
"155 267 CURVE",
"155 364 OFFCURVE",
"213 435 OFFCURVE",
"315 435 CURVE SMOOTH",
"328 435 OFFCURVE",
"362 430 OFFCURVE",
"376 422 CURVE SMOOTH",
"398 409 OFFCURVE",
"407 393 OFFCURVE",
"440 393 CURVE",
"470 393 OFFCURVE",
"487 421 OFFCURVE",
"487 448 CURVE",
"487 507 OFFCURVE",
"411 545 OFFCURVE",
"298 545 CURVE"
);
}
);
width = 515;
}
);
leftKerningGroup = c;
leftMetricsKey = o;
note = c;
rightKerningGroup = c;
unicode = 0063;
},
{
glyphname = d;
lastChange = "2016-07-26 15:39:33 +0000";
layers = (
{
anchors = (
{
name = bottom;
position = "{298, 0}";
},
{
name = center;
position = "{468, 614}";
},
{
name = top;
position = "{298, 499}";
},
{
name = topright;
position = "{575, 499}";
}
);
layerId = "254266E2-2911-423D-9D37-8CC6105656EE";
paths = (
{
closed = 1;
nodes = (
"480 740 OFFCURVE",
"472 731 OFFCURVE",
"472 720 CURVE",
"472 334 LINE",
"488 309 LINE",
"488 427 OFFCURVE",
"390 515 OFFCURVE",
"280 515 CURVE",
"148 515 OFFCURVE",
"48 403 OFFCURVE",
"48 253 CURVE",
"48 103 OFFCURVE",
"148 -10 OFFCURVE",
"280 -10 CURVE",
"398 -10 OFFCURVE",
"488 92 OFFCURVE",
"488 184 CURVE",
"472 162 LINE",
"472 20 LINE",
"472 9 OFFCURVE",
"480 0 OFFCURVE",
"492 0 CURVE",
"503 0 OFFCURVE",
"512 9 OFFCURVE",
"512 20 CURVE",
"512 720 LINE",
"512 731 OFFCURVE",
"504 740 OFFCURVE",
"492 740 CURVE"
);
},
{
closed = 1;
nodes = (
"171 28 OFFCURVE",
"88 124 OFFCURVE",
"88 253 CURVE",
"88 382 OFFCURVE",
"172 477 OFFCURVE",
"282 477 CURVE",
"394 477 OFFCURVE",
"476 382 OFFCURVE",
"476 253 CURVE",
"476 123 OFFCURVE",
"395 28 OFFCURVE",
"282 28 CURVE"
);
}
);
width = 595;
},
{
anchors = (
{
name = bottom;
position = "{312, 0}";
},
{
name = center;
position = "{475, 614}";
},
{
name = top;
position = "{312, 515}";
},
{
name = topright;
position = "{603, 515}";
}
);
background = {
paths = (
{
closed = 1;
nodes = (
"448 740 OFFCURVE",
"423 714 OFFCURVE",
"423 679 CURVE",
"423 456 LINE",
"423 451 OFFCURVE",
"420 450 OFFCURVE",
"418 454 CURVE",
"401 495 OFFCURVE",
"342 545 OFFCURVE",
"266 545 CURVE",
"111 545 OFFCURVE",
"0 431 OFFCURVE",
"0 267 CURVE",
"0 104 OFFCURVE",
"111 -10 OFFCURVE",
"266 -10 CURVE",
"342 -10 OFFCURVE",
"401 30 OFFCURVE",
"418 62 CURVE",
"420 66 OFFCURVE",
"423 65 OFFCURVE",
"423 61 CURVE",
"423 26 OFFCURVE",
"448 0 OFFCURVE",
"483 0 CURVE",
"518 0 OFFCURVE",
"543 26 OFFCURVE",
"543 61 CURVE",
"543 679 LINE",
"543 714 OFFCURVE",
"518 740 OFFCURVE",
"483 740 CURVE"
);
},
{
closed = 1;
nodes = (
"180 100 OFFCURVE",
"115 172 OFFCURVE",
"115 267 CURVE",
"115 362 OFFCURVE",
"180 435 OFFCURVE",
"276 435 CURVE",
"373 435 OFFCURVE",
"438 362 OFFCURVE",
"438 267 CURVE",
"438 172 OFFCURVE",
"373 100 OFFCURVE",
"276 100 CURVE"
);
}
);
};
layerId = "8816CCA3-DDF9-4C51-BD56-64EE3675A105";
paths = (
{
closed = 1;
nodes = (
"463 740 OFFCURVE",
"438 714 OFFCURVE",
"438 679 CURVE",
"438 411 LINE",
"474 424 LINE",
"474 462 OFFCURVE",
"391 545 OFFCURVE",
"277 545 CURVE",
"142 545 OFFCURVE",
"35 431 OFFCURVE",
"35 267 CURVE",
"35 104 OFFCURVE",
"142 -10 OFFCURVE",
"281 -10 CURVE",
"381 -10 OFFCURVE",
"460 67 OFFCURVE",
"460 101 CURVE",
"438 110 LINE",
"438 61 LINE",
"438 26 OFFCURVE",
"463 0 OFFCURVE",
"498 0 CURVE",
"533 0 OFFCURVE",
"558 26 OFFCURVE",
"558 61 CURVE",
"558 679 LINE",
"558 715 OFFCURVE",
"533 740 OFFCURVE",
"498 740 CURVE"
);
},
{
closed = 1;
nodes = (
"209 100 OFFCURVE",
"150 172 OFFCURVE",
"150 267 CURVE",
"150 362 OFFCURVE",
"209 435 OFFCURVE",
"296 435 CURVE",
"384 435 OFFCURVE",
"443 362 OFFCURVE",
"443 267 CURVE",
"443 172 OFFCURVE",
"384 100 OFFCURVE",
"296 100 CURVE"
);
}
);
width = 623;
}
);
leftKerningGroup = c;
leftMetricsKey = o;
note = d;
rightKerningGroup = d;
rightMetricsKey = n;
unicode = 0064;
},
{
glyphname = eth;
lastChange = "2016-07-26 17:03:59 +0000";
layers = (
{
layerId = "254266E2-2911-423D-9D37-8CC6105656EE";
paths = (
{
closed = 1;
nodes = (
"409 -1 OFFCURVE",
"513 118 OFFCURVE",
"513 285 CURVE",
"513 409 OFFCURVE",
"439 688 OFFCURVE",
"192 739 CURVE",
"190 740 OFFCURVE",
"187 740 OFFCURVE",
"185 740 CURVE SMOOTH",
"173 740 OFFCURVE",
"167 732 OFFCURVE",
"167 718 CURVE",
"167 709 OFFCURVE",
"173 703 OFFCURVE",
"183 700 CURVE",
"353 669 OFFCURVE",
"433 514 OFFCURVE",
"460 368 CURVE",
"477 362 LINE",
"449 436 OFFCURVE",
"385 513 OFFCURVE",
"280 513 CURVE",
"151 513 OFFCURVE",
"48 402 OFFCURVE",
"48 261 CURVE",
"48 119 OFFCURVE",
"151 -1 OFFCURVE",
"280 -1 CURVE SMOOTH"
);
},
{
closed = 1;
nodes = (
"175 37 OFFCURVE",
"88 141 OFFCURVE",
"88 261 CURVE",
"88 380 OFFCURVE",
"173 475 OFFCURVE",
"280 475 CURVE",
"387 475 OFFCURVE",
"472 371 OFFCURVE",
"472 261 CURVE",
"472 141 OFFCURVE",
"385 37 OFFCURVE",
"280 37 CURVE"
);
},
{
closed = 1;
nodes = (
"354 601 LINE",
"386 613 LINE",
"468 645 LINE",
"479 649 OFFCURVE",
"484 660 OFFCURVE",
"480 671 CURVE",
"476 682 OFFCURVE",
"465 687 OFFCURVE",
"454 682 CURVE",
"358 644 LINE",
"323 631 LINE",
"217 590 LINE",
"206 586 OFFCURVE",
"201 575 OFFCURVE",
"205 564 CURVE",
"209 553 OFFCURVE",
"220 549 OFFCURVE",
"231 553 CURVE"
);
}
);
width = 561;
},
{
layerId = "8816CCA3-DDF9-4C51-BD56-64EE3675A105";
paths = (
{
closed = 1;
nodes = (
"429 -10 OFFCURVE",
"541 96 OFFCURVE",
"541 280 CURVE",
"541 494 OFFCURVE",
"446 678 OFFCURVE",
"251 736 CURVE",
"239 739 OFFCURVE",
"229 740 OFFCURVE",
"220 740 CURVE",
"184 740 OFFCURVE",
"168 708 OFFCURVE",
"168 682 CURVE",
"168 653 OFFCURVE",
"190 629 OFFCURVE",
"221 621 CURVE",
"342 585 OFFCURVE",
"399 537 OFFCURVE",
"399 383 CURVE",
"463 342 LINE",
"447 452 OFFCURVE",
"382 534 OFFCURVE",
"272 534 CURVE",
"157 534 OFFCURVE",
"35 415 OFFCURVE",
"35 262 CURVE",
"35 109 OFFCURVE",
"147 -10 OFFCURVE",
"288 -10 CURVE"
);
},
{
closed = 1;
nodes = (
"213 110 OFFCURVE",
"155 175 OFFCURVE",
"155 262 CURVE",
"155 349 OFFCURVE",
"213 414 OFFCURVE",
"288 414 CURVE",
"364 414 OFFCURVE",
"421 349 OFFCURVE",
"421 262 CURVE",
"421 175 OFFCURVE",
"364 110 OFFCURVE",
"288 110 CURVE"
);
},
{
closed = 1;
nodes = (
"351 563 LINE",
"396 582 LINE",
"468 593 LINE",
"496 597 OFFCURVE",
"513 613 OFFCURVE",
"508 642 CURVE",
"502 669 OFFCURVE",
"477 675 OFFCURVE",
"448 671 CURVE",
"336 653 LINE",
"273 630 LINE",
"156 606 LINE",
"127 600 OFFCURVE",
"111 585 OFFCURVE",
"116 557 CURVE",
"121 529 OFFCURVE",
"146 522 OFFCURVE",
"176 528 CURVE"
);
}
);
width = 576;
}
);
leftMetricsKey = o;
note = eth;
rightMetricsKey = o;
unicode = 00F0;
},
{
glyphname = e;
lastChange = "2016-07-26 13:17:33 +0000";
layers = (
{
anchors = (
{
name = bottom;
position = "{274, 0}";
},
{
name = ogonek;
position = "{493, 10}";
},
{
name = top;
position = "{281, 499}";
}
);
layerId = "254266E2-2911-423D-9D37-8CC6105656EE";
paths = (
{
closed = 1;
nodes = (
"383 -10 OFFCURVE",
"450 36 OFFCURVE",
"491 90 CURVE",
"494 94 OFFCURVE",
"495 98 OFFCURVE",
"495 102 CURVE",
"495 111 OFFCURVE",
"487 120 OFFCURVE",
"478 120 CURVE",
"471 120 OFFCURVE",
"466 117 OFFCURVE",
"461 111 CURVE",
"431 66 OFFCURVE",
"371 28 OFFCURVE",
"304 28 CURVE",
"162 28 OFFCURVE",
"87 131 OFFCURVE",
"87 253 CURVE",
"87 403 OFFCURVE",
"193 475 OFFCURVE",
"274 475 CURVE",
"359 475 OFFCURVE",
"448 419 OFFCURVE",
"459 313 CURVE",
"459 295 LINE",
"469 304 LINE",
"66 304 LINE",
"72 266 LINE",
"480 266 LINE",
"491 266 OFFCURVE",
"500 276 OFFCURVE",
"500 287 CURVE",
"495 443 OFFCURVE",
"387 515 OFFCURVE",
"274 515 CURVE",
"158 515 OFFCURVE",
"48 417 OFFCURVE",
"48 250 CURVE",
"48 92 OFFCURVE",
"154 -10 OFFCURVE",
"304 -10 CURVE"
);
}
);
width = 548;
},
{
anchors = (
{
name = bottom;
position = "{290, 0}";
},
{
name = ogonek;
position = "{522, 10}";
},
{
name = top;
position = "{288, 515}";
}
);
layerId = "8816CCA3-DDF9-4C51-BD56-64EE3675A105";
paths = (
{
closed = 1;
nodes = (
"378 -10 OFFCURVE",
"447 16 OFFCURVE",
"482 45 CURVE",
"501 60 OFFCURVE",
"510 77 OFFCURVE",
"510 94 CURVE SMOOTH",
"510 120 OFFCURVE",
"488 144 OFFCURVE",
"459 144 CURVE SMOOTH",
"448 144 OFFCURVE",
"437 141 OFFCURVE",
"425 135 CURVE",
"403 123 OFFCURVE",
"379 100 OFFCURVE",
"306 100 CURVE",
"226 100 OFFCURVE",
"150 159 OFFCURVE",
"150 268 CURVE",
"150 398 OFFCURVE",
"212 435 OFFCURVE",
"292 435 CURVE",
"354 435 OFFCURVE",
"412 390 OFFCURVE",
"417 333 CURVE",
"417 306 LINE",
"439 326 LINE",
"72 326 LINE",
"102 226 LINE",
"484 226 LINE",
"516 226 OFFCURVE",
"543 248 OFFCURVE",
"545 280 CURVE",
"545 424 OFFCURVE",
"427 545 OFFCURVE",
"292 545 CURVE",
"160 545 OFFCURVE",
"35 439 OFFCURVE",
"35 260 CURVE",
"35 106 OFFCURVE",
"141 -10 OFFCURVE",
"312 -10 CURVE"
);
}
);
width = 580;
}
);
leftKerningGroup = c;
leftMetricsKey = o;
note = e;
rightKerningGroup = e;
rightMetricsKey = o;
unicode = 0065;
},
{
glyphname = eogonek;
lastChange = "2016-08-08 18:16:44 +0000";
layers = (
{
anchors = (
{
name = _ogonek;
position = "{493, 10}";
},
{
name = bottom;
position = "{274, 0}";
},
{
name = ogonek;
position = "{493, 10}";
},
{
name = top;
position = "{273, 499}";
}
);
layerId = "254266E2-2911-423D-9D37-8CC6105656EE";
paths = (
{
closed = 1;
nodes = (
"452 -185 OFFCURVE",
"493 -157 OFFCURVE",
"493 -136 CURVE",
"493 -127 OFFCURVE",
"488 -122 OFFCURVE",
"478 -122 CURVE",
"469 -122 OFFCURVE",
"463 -128 OFFCURVE",
"457 -137 CURVE SMOOTH",
"452 -144 OFFCURVE",
"442 -148 OFFCURVE",
"425 -148 CURVE",
"390 -148 OFFCURVE",
"366 -122 OFFCURVE",
"366 -87 CURVE",
"366 -17 OFFCURVE",
"434 16 OFFCURVE",
"491 90 CURVE",
"494 94 OFFCURVE",
"495 98 OFFCURVE",
"495 102 CURVE",
"495 111 OFFCURVE",
"487 120 OFFCURVE",
"478 120 CURVE",
"471 120 OFFCURVE",
"466 117 OFFCURVE",
"461 111 CURVE",
"431 66 OFFCURVE",
"371 28 OFFCURVE",
"304 28 CURVE",
"162 28 OFFCURVE",
"87 131 OFFCURVE",
"87 253 CURVE",
"87 394 OFFCURVE",
"178 475 OFFCURVE",
"274 475 CURVE",
"359 475 OFFCURVE",
"448 419 OFFCURVE",
"459 313 CURVE",
"459 292 LINE",
"470 304 LINE",
"73 304 LINE",
"70 266 LINE",
"480 266 LINE",
"491 266 OFFCURVE",
"500 276 OFFCURVE",
"500 287 CURVE",
"495 443 OFFCURVE",
"387 515 OFFCURVE",
"274 515 CURVE",
"158 515 OFFCURVE",
"48 417 OFFCURVE",
"48 250 CURVE",
"48 92 OFFCURVE",
"154 -10 OFFCURVE",
"304 -10 CURVE",
"339 -10 OFFCURVE",
"373 -1 OFFCURVE",
"401 14 CURVE",
"397 20 LINE",
"355 -7 OFFCURVE",
"328 -46 OFFCURVE",
"328 -93 CURVE",
"328 -149 OFFCURVE",
"376 -185 OFFCURVE",
"420 -185 CURVE"
);
}
);
width = 548;
},
{
anchors = (
{
name = _ogonek;
position = "{521.609, 10}";
},
{
name = bottom;
position = "{290, 0}";
},
{
name = ogonek;
position = "{522, 10}";
},
{
name = top;
position = "{298, 515}";
}
);
layerId = "8816CCA3-DDF9-4C51-BD56-64EE3675A105";
paths = (
{
closed = 1;
nodes = (
"471 -207 OFFCURVE",
"527 -165 OFFCURVE",
"527 -132 CURVE SMOOTH",
"527 -102 OFFCURVE",
"507 -84 OFFCURVE",
"483 -84 CURVE SMOOTH",
"473 -84 OFFCURVE",
"454 -86 OFFCURVE",
"442 -102 CURVE SMOOTH",
"436 -110 OFFCURVE",
"429 -114 OFFCURVE",
"421 -114 CURVE SMOOTH",
"405 -114 OFFCURVE",
"390 -102 OFFCURVE",
"390 -78 CURVE SMOOTH",
"390 -30 OFFCURVE",
"433 10 OFFCURVE",
"484 44 CURVE SMOOTH",
"508 60 OFFCURVE",
"513 76 OFFCURVE",
"513 90 CURVE",
"513 112 OFFCURVE",
"493 145 OFFCURVE",
"459 145 CURVE SMOOTH",
"448 145 OFFCURVE",
"436 141 OFFCURVE",
"425 135 CURVE",
"403 123 OFFCURVE",
"379 100 OFFCURVE",
"306 100 CURVE",
"226 100 OFFCURVE",
"150 159 OFFCURVE",
"150 268 CURVE",
"150 398 OFFCURVE",
"212 435 OFFCURVE",
"292 435 CURVE",
"354 435 OFFCURVE",
"412 390 OFFCURVE",
"417 333 CURVE",
"417 305 LINE",
"442 326 LINE",
"72 326 LINE",
"102 226 LINE",
"484 226 LINE",
"516 226 OFFCURVE",
"543 248 OFFCURVE",
"545 280 CURVE",
"545 424 OFFCURVE",
"427 545 OFFCURVE",
"292 545 CURVE",
"160 545 OFFCURVE",
"35 439 OFFCURVE",
"35 260 CURVE",
"35 106 OFFCURVE",
"141 -10 OFFCURVE",
"312 -10 CURVE",
"339 -10 OFFCURVE",
"367 -5 OFFCURVE",
"393 2 CURVE",
"474 63 LINE",
"395 42 OFFCURVE",
"291 8 OFFCURVE",
"291 -100 CURVE SMOOTH",
"291 -174 OFFCURVE",
"345 -207 OFFCURVE",
"411 -207 CURVE SMOOTH"
);
}
);
width = 580;
}
);
leftKerningGroup = c;
leftMetricsKey = e;
note = eogonek;
rightKerningGroup = e;
rightMetricsKey = e;
unicode = 0119;
},
{
glyphname = f;
lastChange = "2016-09-19 13:10:14 +0000";
layers = (
{
anchors = (
{
name = bottom;
position = "{166, 0}";
},
{
name = top;
position = "{166, 499}";
}
);
layerId = "254266E2-2911-423D-9D37-8CC6105656EE";
paths = (
{
closed = 1;
nodes = (
"177 735 OFFCURVE",
"127 697 OFFCURVE",
"127 615 CURVE SMOOTH",
"127 20 LINE SMOOTH",
"127 9 OFFCURVE",
"135 0 OFFCURVE",
"147 0 CURVE SMOOTH",
"158 0 OFFCURVE",
"167 9 OFFCURVE",
"167 20 CURVE SMOOTH",
"167 615 LINE SMOOTH",
"167 673 OFFCURVE",
"195 699 OFFCURVE",
"235 699 CURVE SMOOTH",
"257 699 OFFCURVE",
"276 687 OFFCURVE",
"290 687 CURVE SMOOTH",
"300 687 OFFCURVE",
"309 697 OFFCURVE",
"309 707 CURVE SMOOTH",
"309 730 OFFCURVE",
"262 735 OFFCURVE",
"239 735 CURVE SMOOTH"
);
},
{
closed = 1;
nodes = (
"47 493 LINE SMOOTH",
"37 493 OFFCURVE",
"28 486 OFFCURVE",
"28 474 CURVE SMOOTH",
"28 464 OFFCURVE",
"37 455 OFFCURVE",
"47 455 CURVE SMOOTH",
"285 455 LINE SMOOTH",
"295 455 OFFCURVE",
"304 463 OFFCURVE",
"304 474 CURVE SMOOTH",
"304 485 OFFCURVE",
"295 493 OFFCURVE",
"285 493 CURVE SMOOTH"
);
}
);
width = 332;
},
{
anchors = (
{
name = bottom;
position = "{209, 0}";
},
{
name = top;
position = "{209, 515}";
}
);
layerId = "8816CCA3-DDF9-4C51-BD56-64EE3675A105";
paths = (
{
closed = 1;
nodes = (
"206 740 OFFCURVE",
"140 666 OFFCURVE",
"140 571 CURVE SMOOTH",
"140 61 LINE SMOOTH",
"140 26 OFFCURVE",
"165 0 OFFCURVE",
"200 0 CURVE SMOOTH",
"235 0 OFFCURVE",
"260 26 OFFCURVE",
"260 61 CURVE SMOOTH",
"260 572 LINE SMOOTH",
"260 594 OFFCURVE",
"271 634 OFFCURVE",
"322 634 CURVE SMOOTH",
"345 634 OFFCURVE",
"372 625 OFFCURVE",
"384 625 CURVE SMOOTH",
"409 625 OFFCURVE",
"432 646 OFFCURVE",
"432 679 CURVE SMOOTH",
"432 723 OFFCURVE",
"384 740 OFFCURVE",
"340 740 CURVE SMOOTH"
);
},
{
closed = 1;
nodes = (
"86 525 LINE SMOOTH",
"54 525 OFFCURVE",
"30 502 OFFCURVE",
"30 470 CURVE SMOOTH",
"30 438 OFFCURVE",
"54 415 OFFCURVE",
"86 415 CURVE SMOOTH",
"351 415 LINE SMOOTH",
"383 415 OFFCURVE",
"407 438 OFFCURVE",
"407 470 CURVE SMOOTH",
"407 502 OFFCURVE",
"383 525 OFFCURVE",
"351 525 CURVE SMOOTH"
);
}
);
width = 417;
}
);
leftKerningGroup = f;
note = f;
rightKerningGroup = f;
unicode = 0066;
},
{
glyphname = g;
lastChange = "2018-03-20 15:44:07 +0000";
layers = (
{
anchors = (
{
name = bottom;
position = "{308, 0}";
},
{
name = top;
position = "{308, 499}";
}
);
layerId = "254266E2-2911-423D-9D37-8CC6105656EE";
paths = (
{
closed = 1;
nodes = (
"152 515 OFFCURVE",
"48 403 OFFCURVE",
"48 253 CURVE",
"48 103 OFFCURVE",
"152 -10 OFFCURVE",
"290 -10 CURVE",
"371 -10 OFFCURVE",
"471 33 OFFCURVE",
"502 147 CURVE",
"492 148 LINE",
"492 49 LINE",
"492 -77 OFFCURVE",
"414 -162 OFFCURVE",
"288 -162 CURVE",
"234 -162 OFFCURVE",
"194 -149 OFFCURVE",
"177 -142 CURVE",
"148 -130 OFFCURVE",
"141 -111 OFFCURVE",
"128 -111 CURVE",
"117 -111 OFFCURVE",
"111 -119 OFFCURVE",
"111 -129 CURVE",
"111 -165 OFFCURVE",
"206 -200 OFFCURVE",
"286 -200 CURVE",
"431 -200 OFFCURVE",
"532 -105 OFFCURVE",
"532 49 CURVE",
"532 479 LINE",
"532 490 OFFCURVE",
"524 499 OFFCURVE",
"512 499 CURVE",
"500 499 OFFCURVE",
"492 490 OFFCURVE",
"492 479 CURVE",
"492 379 LINE",
"505 342 LINE",
"505 418 OFFCURVE",
"410 515 OFFCURVE",
"290 515 CURVE"
);
},
{
closed = 1;
nodes = (
"408 477 OFFCURVE",
"496 387 OFFCURVE",
"496 253 CURVE",
"496 119 OFFCURVE",
"408 28 OFFCURVE",
"292 28 CURVE",
"175 28 OFFCURVE",
"88 124 OFFCURVE",
"88 253 CURVE",
"88 382 OFFCURVE",
"175 477 OFFCURVE",
"292 477 CURVE"
);
}
);
width = 615;
},
{
anchors = (
{
name = bottom;
position = "{317, 0}";
},
{
name = top;
position = "{317, 515}";
}
);
layerId = "8816CCA3-DDF9-4C51-BD56-64EE3675A105";
paths = (
{
closed = 1;
nodes = (
"144 545 OFFCURVE",
"35 431 OFFCURVE",
"35 267 CURVE",
"35 104 OFFCURVE",
"144 -10 OFFCURVE",
"286 -10 CURVE",
"383 -10 OFFCURVE",
"460 67 OFFCURVE",
"460 101 CURVE",
"448 110 LINE",
"448 23 LINE",
"448 -48 OFFCURVE",
"401 -90 OFFCURVE",
"301 -90 CURVE",
"259 -90 OFFCURVE",
"188 -61 OFFCURVE",
"169 -54 CURVE",
"163 -52 OFFCURVE",
"157 -51 OFFCURVE",
"150 -51 CURVE SMOOTH",
"116 -51 OFFCURVE",
"95 -87 OFFCURVE",
"95 -112 CURVE SMOOTH",
"95 -173 OFFCURVE",
"214 -200 OFFCURVE",
"301 -200 CURVE",
"441 -200 OFFCURVE",
"568 -135 OFFCURVE",
"568 39 CURVE",
"568 484 LINE",
"568 520 OFFCURVE",
"543 545 OFFCURVE",
"508 545 CURVE",
"473 545 OFFCURVE",
"448 519 OFFCURVE",
"448 484 CURVE",
"448 411 LINE",
"474 424 LINE",
"474 462 OFFCURVE",
"393 545 OFFCURVE",
"282 545 CURVE"
);
},
{
closed = 1;
nodes = (
"392 435 OFFCURVE",
"453 362 OFFCURVE",
"453 267 CURVE",
"453 172 OFFCURVE",
"392 100 OFFCURVE",
"301 100 CURVE",
"211 100 OFFCURVE",
"150 172 OFFCURVE",
"150 267 CURVE",
"150 362 OFFCURVE",
"211 435 OFFCURVE",
"301 435 CURVE"
);
}
);
width = 633;
}
);
leftKerningGroup = g;
leftMetricsKey = o;
note = g;
rightKerningGroup = g;
rightMetricsKey = n;
unicode = 0067;
},
{
glyphname = h;
lastChange = "2016-07-26 15:51:35 +0000";
layers = (
{
anchors = (
{
name = bottom;
position = "{281, 0}";
},
{
name = center;
position = "{123, 589}";
},
{
name = top;
position = "{103, 700}";
}
);
background = {
paths = (
{
closed = 1;
nodes = (
"214 525 OFFCURVE",
"144 478 OFFCURVE",
"126 442 CURVE",
"124 437 OFFCURVE",
"120 440 OFFCURVE",
"120 444 CURVE SMOOTH",
"120 720 LINE SMOOTH",
"120 731 OFFCURVE",
"112 740 OFFCURVE",
"100 740 CURVE SMOOTH",
"89 740 OFFCURVE",
"80 731 OFFCURVE",
"80 720 CURVE SMOOTH",
"80 20 LINE SMOOTH",
"80 9 OFFCURVE",
"88 0 OFFCURVE",
"100 0 CURVE SMOOTH",
"111 0 OFFCURVE",
"120 9 OFFCURVE",
"120 20 CURVE SMOOTH",
"120 332 LINE SMOOTH",
"120 416 OFFCURVE",
"209 485 OFFCURVE",
"293 485 CURVE SMOOTH",
"388 485 OFFCURVE",
"426 416 OFFCURVE",
"426 332 CURVE SMOOTH",
"426 20 LINE SMOOTH",
"426 9 OFFCURVE",
"434 0 OFFCURVE",
"446 0 CURVE SMOOTH",
"457 0 OFFCURVE",
"466 9 OFFCURVE",
"466 20 CURVE SMOOTH",
"466 332 LINE SMOOTH",
"466 438 OFFCURVE",
"410 525 OFFCURVE",
"293 525 CURVE SMOOTH"
);
}
);
};
layerId = "254266E2-2911-423D-9D37-8CC6105656EE";
paths = (
{
closed = 1;
nodes = (
"204 505 OFFCURVE",
"98 420 OFFCURVE",
"98 323 CURVE",
"123 371 LINE",
"123 720 LINE",
"123 731 OFFCURVE",
"115 740 OFFCURVE",
"103 740 CURVE",
"92 740 OFFCURVE",
"83 731 OFFCURVE",
"83 720 CURVE",
"83 20 LINE",
"83 9 OFFCURVE",
"91 0 OFFCURVE",
"103 0 CURVE",
"114 0 OFFCURVE",
"123 9 OFFCURVE",
"123 20 CURVE",
"123 312 LINE",
"123 397 OFFCURVE",
"215 467 OFFCURVE",
"301 467 CURVE",
"400 467 OFFCURVE",
"439 397 OFFCURVE",
"439 312 CURVE",
"439 20 LINE",
"439 9 OFFCURVE",
"447 0 OFFCURVE",
"459 0 CURVE",
"470 0 OFFCURVE",
"479 9 OFFCURVE",
"479 20 CURVE",
"479 312 LINE",
"479 418 OFFCURVE",
"421 505 OFFCURVE",
"301 505 CURVE"
);
}
);
width = 562;
},
{
anchors = (
{
name = bottom;
position = "{293, 0}";
},
{
name = center;
position = "{119, 594}";
},
{
name = top;
position = "{125, 740}";
}
);
layerId = "8816CCA3-DDF9-4C51-BD56-64EE3675A105";
paths = (
{
closed = 1;
nodes = (
"258 545 OFFCURVE",
"194 480 OFFCURVE",
"170 434 CURVE",
"185 431 LINE",
"185 679 LINE",
"185 714 OFFCURVE",
"160 740 OFFCURVE",
"125 740 CURVE",
"90 740 OFFCURVE",
"65 714 OFFCURVE",
"65 679 CURVE",
"65 61 LINE",
"65 26 OFFCURVE",
"90 0 OFFCURVE",
"125 0 CURVE",
"160 0 OFFCURVE",
"185 26 OFFCURVE",
"185 61 CURVE",
"185 317 LINE",
"185 382 OFFCURVE",
"227 435 OFFCURVE",
"304 435 CURVE",
"381 435 OFFCURVE",
"401 382 OFFCURVE",
"401 317 CURVE",
"401 61 LINE",
"401 26 OFFCURVE",
"426 0 OFFCURVE",
"461 0 CURVE",
"496 0 OFFCURVE",
"521 26 OFFCURVE",
"521 61 CURVE",
"521 317 LINE",
"521 442 OFFCURVE",
"489 545 OFFCURVE",
"346 545 CURVE"
);
}
);
width = 586;
}
);
leftKerningGroup = b;
leftMetricsKey = n;
note = h;
rightKerningGroup = h;
rightMetricsKey = n;
unicode = 0068;
},
{
glyphname = i;
lastChange = "2016-07-21 21:07:49 +0000";
layers = (
{
anchors = (
{
name = bottom;
position = "{103, 0}";
}
);
components = (
{
name = idotless;
},
{
name = dotaccentcomb;
transform = "{1, 0, 0, 1, 18, -1}";
}
);
layerId = "254266E2-2911-423D-9D37-8CC6105656EE";
width = 206;
},
{
anchors = (
{
name = bottom;
position = "{127, 0}";
}
);
background = {
paths = (
{
closed = 1;
nodes = (
"70 680 LINE SMOOTH",
"70 647 OFFCURVE",
"87 630 OFFCURVE",
"120 630 CURVE SMOOTH",
"146 630 LINE SMOOTH",
"179 630 OFFCURVE",
"196 648 OFFCURVE",
"196 680 CURVE SMOOTH",
"196 699 LINE SMOOTH",
"196 732 OFFCURVE",
"179 749 OFFCURVE",
"146 749 CURVE SMOOTH",
"120 749 LINE SMOOTH",
"88 749 OFFCURVE",
"70 731 OFFCURVE",
"70 699 CURVE SMOOTH"
);
}
);
};
components = (
{
name = idotless;
},
{
name = dotaccentcomb;
transform = "{1, 0, 0, 1, 5, 0}";
}
);
layerId = "8816CCA3-DDF9-4C51-BD56-64EE3675A105";
width = 236;
}
);
leftMetricsKey = n;
note = i;
rightKerningGroup = i;
rightMetricsKey = n;
unicode = 0069;
},
{
glyphname = idotless;
lastChange = "2016-07-21 15:14:34 +0000";
layers = (
{
anchors = (
{
name = bottom;
position = "{103, 0}";
},
{
name = ogonek;
position = "{165, 10}";
},
{
name = top;
position = "{103, 499}";
}
);
layerId = "254266E2-2911-423D-9D37-8CC6105656EE";
paths = (
{
closed = 1;
nodes = (
"123 495 LINE SMOOTH",
"123 506 OFFCURVE",
"115 515 OFFCURVE",
"103 515 CURVE SMOOTH",
"92 515 OFFCURVE",
"83 506 OFFCURVE",
"83 495 CURVE SMOOTH",
"83 20 LINE SMOOTH",
"83 9 OFFCURVE",
"91 0 OFFCURVE",
"103 0 CURVE SMOOTH",
"114 0 OFFCURVE",
"123 9 OFFCURVE",
"123 20 CURVE SMOOTH"
);
}
);
width = 206;
},
{
anchors = (
{
name = bottom;
position = "{118, 0}";
},
{
name = ogonek;
position = "{212, 10}";
},
{
name = top;
position = "{118, 515}";
}
);
layerId = "8816CCA3-DDF9-4C51-BD56-64EE3675A105";
paths = (
{
closed = 1;
nodes = (
"178 474 LINE SMOOTH",
"178 509 OFFCURVE",
"153 535 OFFCURVE",
"118 535 CURVE SMOOTH",
"83 535 OFFCURVE",
"58 509 OFFCURVE",
"58 474 CURVE SMOOTH",
"58 61 LINE SMOOTH",
"58 26 OFFCURVE",
"83 0 OFFCURVE",
"118 0 CURVE SMOOTH",
"153 0 OFFCURVE",
"178 26 OFFCURVE",
"178 61 CURVE SMOOTH"
);
}
);
width = 236;
}
);
note = dotlessi;
unicode = 0131;
},
{
glyphname = iogonek;
lastChange = "2016-07-26 15:59:13 +0000";
layers = (
{
anchors = (
{
name = _ogonek;
position = "{165, 10}";
},
{
name = bottom;
position = "{106, 0}";
},
{
name = ogonek;
position = "{165, 10}";
},
{
name = top;
position = "{103, 499}";
}
);
components = (
{
name = dotaccentcomb;
transform = "{1, 0, 0, 1, 18, -1}";
}
);
layerId = "254266E2-2911-423D-9D37-8CC6105656EE";
paths = (
{
closed = 1;
nodes = (
"115 -185 OFFCURVE",
"146 -163 OFFCURVE",
"146 -136 CURVE",
"146 -129 OFFCURVE",
"141 -122 OFFCURVE",
"132 -122 CURVE",
"121 -122 OFFCURVE",
"115 -131 OFFCURVE",
"107 -141 CURVE SMOOTH",
"102 -148 OFFCURVE",
"92 -148 OFFCURVE",
"79 -148 CURVE",
"51 -148 OFFCURVE",
"24 -125 OFFCURVE",
"24 -85 CURVE",
"24 -19 OFFCURVE",
"123 -13 OFFCURVE",
"123 28 CURVE",
"123 495 LINE SMOOTH",
"123 506 OFFCURVE",
"115 515 OFFCURVE",
"103 515 CURVE SMOOTH",
"92 515 OFFCURVE",
"83 506 OFFCURVE",
"83 495 CURVE SMOOTH",
"83 9 LINE",
"86 21 LINE",
"34 5 OFFCURVE",
"-14 -31 OFFCURVE",
"-14 -93 CURVE",
"-14 -149 OFFCURVE",
"30 -185 OFFCURVE",
"74 -185 CURVE"
);
}
);
width = 206;
},
{
anchors = (
{
name = _ogonek;
position = "{211.609, 10}";
},
{
name = bottom;
position = "{118, 0}";
},
{
name = ogonek;
position = "{212, 10}";
},
{
name = top;
position = "{118, 515}";
}
);
components = (
{
name = dotaccentcomb;
transform = "{1, 0, 0, 1, 5, 0}";
}
);
layerId = "8816CCA3-DDF9-4C51-BD56-64EE3675A105";
paths = (
{
closed = 1;
nodes = (
"161 -207 OFFCURVE",
"217 -165 OFFCURVE",
"217 -132 CURVE SMOOTH",
"217 -102 OFFCURVE",
"197 -84 OFFCURVE",
"173 -84 CURVE SMOOTH",
"163 -84 OFFCURVE",
"144 -86 OFFCURVE",
"132 -102 CURVE SMOOTH",
"126 -110 OFFCURVE",
"119 -114 OFFCURVE",
"111 -114 CURVE SMOOTH",
"95 -114 OFFCURVE",
"80 -102 OFFCURVE",
"80 -78 CURVE SMOOTH",
"80 0 OFFCURVE",
"178 -29 OFFCURVE",
"178 64 CURVE",
"178 474 LINE SMOOTH",
"178 509 OFFCURVE",
"153 535 OFFCURVE",
"118 535 CURVE SMOOTH",
"83 535 OFFCURVE",
"58 509 OFFCURVE",
"58 474 CURVE SMOOTH",
"58 6 LINE",
"164 48 LINE",
"83 27 OFFCURVE",
"-19 8 OFFCURVE",
"-19 -100 CURVE SMOOTH",
"-19 -174 OFFCURVE",
"35 -207 OFFCURVE",
"101 -207 CURVE SMOOTH"
);
}
);
width = 236;
}
);
leftMetricsKey = "+10";
note = iogonek;
rightMetricsKey = "+10";
unicode = 012F;
},
{
glyphname = jdotless;
lastChange = "2016-09-19 13:12:42 +0000";
layers = (
{
anchors = (
{
name = bottom;
position = "{112, 0}";
},
{
name = top;
position = "{116, 500}";
}
);
background = {
paths = (
{
closed = 1;
nodes = (
"65 -190 OFFCURVE",
"136 -145 OFFCURVE",
"136 -58 CURVE SMOOTH",
"136 480 LINE SMOOTH",
"136 491 OFFCURVE",
"128 500 OFFCURVE",
"116 500 CURVE SMOOTH",
"104 500 OFFCURVE",
"96 491 OFFCURVE",
"96 480 CURVE SMOOTH",
"96 -58 LINE SMOOTH",
"96 -124 OFFCURVE",
"42 -152 OFFCURVE",
"-2 -159 CURVE",
"-12 -160 OFFCURVE",
"-20 -168 OFFCURVE",
"-20 -178 CURVE SMOOTH",
"-20 -180 LINE SMOOTH",
"-20 -191 OFFCURVE",
"-11 -200 OFFCURVE",
"2 -198 CURVE SMOOTH"
);
}
);
};
layerId = "254266E2-2911-423D-9D37-8CC6105656EE";
paths = (
{
closed = 1;
nodes = (
"136 -148 OFFCURVE",
"136 -58 CURVE SMOOTH",
"136 480 LINE SMOOTH",
"136 491 OFFCURVE",
"128 500 OFFCURVE",
"116 500 CURVE SMOOTH",
"104 500 OFFCURVE",
"96 491 OFFCURVE",
"96 480 CURVE SMOOTH",
"96 -58 LINE SMOOTH",
"96 -124 OFFCURVE",
"42 -152 OFFCURVE",
"-2 -159 CURVE",
"-12 -160 OFFCURVE",
"-20 -168 OFFCURVE",
"-20 -178 CURVE SMOOTH",
"-20 -180 LINE SMOOTH",
"-20 -190 OFFCURVE",
"-13 -198 OFFCURVE",
"-1 -198 CURVE SMOOTH",
"54 -198 OFFCURVE"
);
}
);
width = 229;
},
{
anchors = (
{
name = bottom;
position = "{167, 0}";
},
{
name = top;
position = "{139, 515}";
}
);
layerId = "8816CCA3-DDF9-4C51-BD56-64EE3675A105";
paths = (
{
closed = 1;
nodes = (
"200 -124 OFFCURVE",
"200 -10 CURVE SMOOTH",
"200 474 LINE SMOOTH",
"200 509 OFFCURVE",
"175 535 OFFCURVE",
"140 535 CURVE SMOOTH",
"105 535 OFFCURVE",
"80 509 OFFCURVE",
"80 474 CURVE SMOOTH",
"80 25 LINE SMOOTH",
"80 -20 OFFCURVE",
"78 -59 OFFCURVE",
"31 -74 CURVE SMOOTH",
"1 -83 OFFCURVE",
"-20 -100 OFFCURVE",
"-20 -129 CURVE SMOOTH",
"-20 -140 LINE SMOOTH",
"-20 -171 OFFCURVE",
"3 -196 OFFCURVE",
"36 -196 CURVE SMOOTH",
"128 -196 OFFCURVE"
);
}
);
width = 275;
}
);
note = dotlessj;
unicode = 0237;
},
{
glyphname = k;
lastChange = "2016-07-26 13:25:21 +0000";
layers = (
{
anchors = (
{
name = bottom;
position = "{262, 0}";
},
{
name = top;
position = "{262, 499}";
}
);
layerId = "254266E2-2911-423D-9D37-8CC6105656EE";
paths = (
{
closed = 1;
nodes = (
"120 0 OFFCURVE",
"128 9 OFFCURVE",
"128 20 CURVE",
"128 720 LINE",
"128 731 OFFCURVE",
"120 740 OFFCURVE",
"108 740 CURVE SMOOTH",
"96 740 OFFCURVE",
"88 731 OFFCURVE",
"88 720 CURVE SMOOTH",
"88 20 LINE SMOOTH",
"88 9 OFFCURVE",
"96 0 OFFCURVE",
"108 0 CURVE SMOOTH"
);
},
{
closed = 1;
nodes = (
"450 505 OFFCURVE",
"446 503 OFFCURVE",
"442 499 CURVE",
"119 228 LINE",
"121 180 LINE",
"468 469 LINE SMOOTH",
"473 473 OFFCURVE",
"475 479 OFFCURVE",
"475 484 CURVE SMOOTH",
"475 496 OFFCURVE",
"465 505 OFFCURVE",
"455 505 CURVE SMOOTH"
);
},
{
closed = 1;
nodes = (
"466 0 OFFCURVE",
"481 6 OFFCURVE",
"481 20 CURVE SMOOTH",
"481 26 OFFCURVE",
"479 31 OFFCURVE",
"475 35 CURVE SMOOTH",
"234 291 LINE",
"204 265 LINE",
"446 7 LINE SMOOTH",
"450 3 OFFCURVE",
"456 0 OFFCURVE",
"461 0 CURVE SMOOTH"
);
}
);
width = 524;
},
{
anchors = (
{
name = bottom;
position = "{285, 0}";
},
{
name = top;
position = "{285, 515}";
}
);
layerId = "8816CCA3-DDF9-4C51-BD56-64EE3675A105";
paths = (
{
closed = 1;
nodes = (
"170 0 OFFCURVE",
"195 26 OFFCURVE",
"195 61 CURVE",
"195 679 LINE",
"195 714 OFFCURVE",
"170 740 OFFCURVE",
"135 740 CURVE SMOOTH",
"100 740 OFFCURVE",
"75 714 OFFCURVE",
"75 679 CURVE SMOOTH",
"75 61 LINE SMOOTH",
"75 26 OFFCURVE",
"100 0 OFFCURVE",
"135 0 CURVE SMOOTH"
);
},
{
closed = 1;
nodes = (
"438 535 OFFCURVE",
"422 529 OFFCURVE",
"409 516 CURVE SMOOTH",
"180 295 LINE",
"185 157 LINE",
"486 434 LINE SMOOTH",
"502 448 OFFCURVE",
"510 464 OFFCURVE",
"510 479 CURVE SMOOTH",
"510 503 OFFCURVE",
"484 535 OFFCURVE",
"453 535 CURVE SMOOTH"
);
},
{
closed = 1;
nodes = (
"495 1 OFFCURVE",
"529 25 OFFCURVE",
"529 60 CURVE SMOOTH",
"529 75 OFFCURVE",
"523 91 OFFCURVE",
"510 105 CURVE SMOOTH",
"330 301 LINE",
"239 217 LINE",
"424 21 LINE SMOOTH",
"436 8 OFFCURVE",
"452 1 OFFCURVE",
"468 1 CURVE SMOOTH"
);
}
);
width = 569;
}
);
leftKerningGroup = b;
leftMetricsKey = l;
note = k;
rightKerningGroup = k;
unicode = 006B;
},
{
glyphname = kgreenlandic;
lastChange = "2016-07-26 17:50:21 +0000";
layers = (
{
anchors = (
{
name = bottom;
position = "{300, 0}";
},
{
name = top;
position = "{300, 499}";
}
);
layerId = "254266E2-2911-423D-9D37-8CC6105656EE";
paths = (
{
closed = 1;
nodes = (
"120 0 OFFCURVE",
"128 9 OFFCURVE",
"128 20 CURVE SMOOTH",
"128 479 LINE SMOOTH",
"128 490 OFFCURVE",
"120 499 OFFCURVE",
"108 499 CURVE SMOOTH",
"96 499 OFFCURVE",
"88 490 OFFCURVE",
"88 479 CURVE SMOOTH",
"88 20 LINE SMOOTH",
"88 9 OFFCURVE",
"96 0 OFFCURVE",
"108 0 CURVE SMOOTH"
);
},
{
closed = 1;
nodes = (
"450 505 OFFCURVE",
"446 503 OFFCURVE",
"442 499 CURVE",
"119 228 LINE",
"121 180 LINE",
"468 469 LINE SMOOTH",
"473 473 OFFCURVE",
"475 479 OFFCURVE",
"475 484 CURVE SMOOTH",
"475 496 OFFCURVE",
"465 505 OFFCURVE",
"455 505 CURVE SMOOTH"
);
},
{
closed = 1;
nodes = (
"464 0 OFFCURVE",
"481 5 OFFCURVE",
"481 20 CURVE SMOOTH",
"481 26 OFFCURVE",
"479 31 OFFCURVE",
"475 35 CURVE SMOOTH",
"234 291 LINE",
"204 265 LINE",
"446 7 LINE SMOOTH",
"450 3 OFFCURVE",
"456 0 OFFCURVE",
"461 0 CURVE SMOOTH"
);
}
);
width = 524;
},
{
anchors = (
{
name = bottom;
position = "{300, 0}";
},
{
name = top;
position = "{300, 515}";
}
);
layerId = "8816CCA3-DDF9-4C51-BD56-64EE3675A105";
paths = (
{
closed = 1;
nodes = (
"170 0 OFFCURVE",
"195 26 OFFCURVE",
"195 61 CURVE SMOOTH",
"195 474 LINE SMOOTH",
"195 509 OFFCURVE",
"170 535 OFFCURVE",
"135 535 CURVE SMOOTH",
"100 535 OFFCURVE",
"75 509 OFFCURVE",
"75 474 CURVE SMOOTH",
"75 61 LINE SMOOTH",
"75 26 OFFCURVE",
"100 0 OFFCURVE",
"135 0 CURVE SMOOTH"
);
},
{
closed = 1;
nodes = (
"438 535 OFFCURVE",
"422 529 OFFCURVE",
"409 516 CURVE SMOOTH",
"180 295 LINE",
"185 157 LINE",
"486 434 LINE SMOOTH",
"502 448 OFFCURVE",
"510 464 OFFCURVE",
"510 479 CURVE SMOOTH",
"510 503 OFFCURVE",
"484 535 OFFCURVE",
"453 535 CURVE SMOOTH"
);
},
{
closed = 1;
nodes = (
"495 1 OFFCURVE",
"529 25 OFFCURVE",
"529 60 CURVE SMOOTH",
"529 75 OFFCURVE",
"523 91 OFFCURVE",
"510 105 CURVE SMOOTH",
"330 301 LINE",
"239 217 LINE",
"424 21 LINE SMOOTH",
"436 8 OFFCURVE",
"452 1 OFFCURVE",
"468 1 CURVE SMOOTH"
);
}
);
width = 569;
}
);
unicode = 0138;
},
{
glyphname = l;
lastChange = "2016-07-21 21:26:04 +0000";
layers = (
{
anchors = (
{
name = bottom;
position = "{108, 0}";
},
{
name = center;
position = "{108, 366}";
},
{
name = top;
position = "{108, 740}";
},
{
name = topright;
position = "{196, 740}";
}
);
layerId = "254266E2-2911-423D-9D37-8CC6105656EE";
paths = (
{
closed = 1;
nodes = (
"128 720 LINE SMOOTH",
"128 731 OFFCURVE",
"120 740 OFFCURVE",
"108 740 CURVE SMOOTH",
"97 740 OFFCURVE",
"88 731 OFFCURVE",
"88 720 CURVE SMOOTH",
"88 20 LINE SMOOTH",
"88 9 OFFCURVE",
"96 0 OFFCURVE",
"108 0 CURVE SMOOTH",
"119 0 OFFCURVE",
"128 9 OFFCURVE",
"128 20 CURVE SMOOTH"
);
}
);
width = 216;
},
{
anchors = (
{
name = bottom;
position = "{135, 0}";
},
{
name = center;
position = "{135, 258}";
},
{
name = top;
position = "{136, 740}";
},
{
name = topright;
position = "{250, 515}";
}
);
layerId = "8816CCA3-DDF9-4C51-BD56-64EE3675A105";
paths = (
{
closed = 1;
nodes = (
"195 679 LINE SMOOTH",
"195 714 OFFCURVE",
"170 740 OFFCURVE",
"136 740 CURVE SMOOTH",
"101 740 OFFCURVE",
"75 714 OFFCURVE",
"75 679 CURVE SMOOTH",
"75 61 LINE SMOOTH",
"75 26 OFFCURVE",
"100 0 OFFCURVE",
"134 0 CURVE SMOOTH",
"169 0 OFFCURVE",
"195 26 OFFCURVE",
"195 61 CURVE SMOOTH"
);
}
);
width = 270;
}
);
leftKerningGroup = b;
leftMetricsKey = l;
note = l;
rightKerningGroup = l;
rightMetricsKey = l;
unicode = 006C;
},
{
glyphname = lcaron;
lastChange = "2016-07-21 21:09:27 +0000";
layers = (
{
components = (
{
name = caronalt;
transform = "{1, 0, 0, 1, 144, 0}";
}
);
layerId = "254266E2-2911-423D-9D37-8CC6105656EE";
paths = (
{
closed = 1;
nodes = (
"123 720 LINE SMOOTH",
"123 731 OFFCURVE",
"115 740 OFFCURVE",
"103 740 CURVE SMOOTH",
"92 740 OFFCURVE",
"83 731 OFFCURVE",
"83 720 CURVE SMOOTH",
"83 20 LINE SMOOTH",
"83 9 OFFCURVE",
"91 0 OFFCURVE",
"103 0 CURVE SMOOTH",
"114 0 OFFCURVE",
"123 9 OFFCURVE",
"123 20 CURVE SMOOTH"
);
}
);
width = 265;
},
{
components = (
{
name = caronalt;
transform = "{1, 0, 0, 1, 223, 0}";
}
);
layerId = "8816CCA3-DDF9-4C51-BD56-64EE3675A105";
paths = (
{
closed = 1;
nodes = (
"195 679 LINE SMOOTH",
"195 714 OFFCURVE",
"170 740 OFFCURVE",
"136 740 CURVE SMOOTH",
"101 740 OFFCURVE",
"75 714 OFFCURVE",
"75 679 CURVE SMOOTH",
"75 61 LINE SMOOTH",
"75 26 OFFCURVE",
"100 0 OFFCURVE",
"134 0 CURVE SMOOTH",
"169 0 OFFCURVE",
"195 26 OFFCURVE",
"195 61 CURVE SMOOTH"
);
}
);
width = 430;
}
);
leftMetricsKey = l;
note = lcaron;
unicode = 013E;
},
{
glyphname = lslash;
lastChange = "2016-07-26 16:02:34 +0000";
layers = (
{
components = (
{
name = l;
}
);
layerId = "254266E2-2911-423D-9D37-8CC6105656EE";
paths = (
{
closed = 1;
nodes = (
"14 350 OFFCURVE",
"18 351 OFFCURVE",
"23 353 CURVE",
"208 437 LINE",
"216 440 OFFCURVE",
"223 446 OFFCURVE",
"223 458 CURVE",
"223 467 OFFCURVE",
"216 474 OFFCURVE",
"208 474 CURVE",
"202 474 OFFCURVE",
"197 472 OFFCURVE",
"193 470 CURVE",
"8 386 LINE",
"0 383 OFFCURVE",
"-5 376 OFFCURVE",
"-5 369 CURVE",
"-5 357 OFFCURVE",
"3 350 OFFCURVE",
"11 350 CURVE"
);
}
);
width = 218;
},
{
components = (
{
name = l;
}
);
layerId = "8816CCA3-DDF9-4C51-BD56-64EE3675A105";
paths = (
{
closed = 1;
nodes = (
"36 270 OFFCURVE",
"44 271 OFFCURVE",
"52 275 CURVE SMOOTH",
"267 374 LINE SMOOTH",
"286 383 OFFCURVE",
"298 400 OFFCURVE",
"298 419 CURVE SMOOTH",
"298 438 OFFCURVE",
"282 470 OFFCURVE",
"249 470 CURVE SMOOTH",
"241 470 OFFCURVE",
"234 468 OFFCURVE",
"226 465 CURVE SMOOTH",
"11 366 LINE SMOOTH",
"-8 357 OFFCURVE",
"-20 340 OFFCURVE",
"-20 321 CURVE SMOOTH",
"-20 302 OFFCURVE",
"-4 270 OFFCURVE",
"29 270 CURVE SMOOTH"
);
}
);
width = 270;
}
);
note = lslash;
unicode = 0142;
},
{
glyphname = m;
lastChange = "2016-07-20 13:36:17 +0000";
layers = (
{
anchors = (
{
name = bottom;
position = "{455, 0}";
},
{
name = top;
position = "{455, 499}";
}
);
layerId = "254266E2-2911-423D-9D37-8CC6105656EE";
paths = (
{
closed = 1;
nodes = (
"192 505 OFFCURVE",
"93 411 OFFCURVE",
"93 319 CURVE",
"123 370 LINE",
"123 479 LINE",
"123 490 OFFCURVE",
"115 499 OFFCURVE",
"103 499 CURVE",
"92 499 OFFCURVE",
"83 490 OFFCURVE",
"83 479 CURVE",
"83 20 LINE",
"83 9 OFFCURVE",
"91 0 OFFCURVE",
"103 0 CURVE",
"114 0 OFFCURVE",
"123 9 OFFCURVE",
"123 20 CURVE",
"123 312 LINE",
"123 397 OFFCURVE",
"212 467 OFFCURVE",
"296 467 CURVE",
"391 467 OFFCURVE",
"429 397 OFFCURVE",
"429 312 CURVE",
"429 20 LINE",
"429 9 OFFCURVE",
"437 0 OFFCURVE",
"449 0 CURVE",
"461 0 OFFCURVE",
"469 9 OFFCURVE",
"469 20 CURVE",
"469 307 LINE",
"469 395 OFFCURVE",
"560 467 OFFCURVE",
"647 467 CURVE",
"745 467 OFFCURVE",
"786 395 OFFCURVE",
"786 307 CURVE",
"786 20 LINE",
"786 9 OFFCURVE",
"794 0 OFFCURVE",
"806 0 CURVE",
"818 0 OFFCURVE",
"826 9 OFFCURVE",
"826 20 CURVE",
"826 311 LINE",
"826 420 OFFCURVE",
"771 505 OFFCURVE",
"651 505 CURVE",
"575 505 OFFCURVE",
"480 454 OFFCURVE",
"454 389 CURVE",
"449 370 LINE",
"462 379 LINE SMOOTH",
"439 465 OFFCURVE",
"371 505 OFFCURVE",
"296 505 CURVE"
);
}
);
width = 909;
},
{
anchors = (
{
name = bottom;
position = "{461, 0}";
},
{
name = top;
position = "{461, 515}";
}
);
layerId = "8816CCA3-DDF9-4C51-BD56-64EE3675A105";
paths = (
{
closed = 1;
nodes = (
"258 545 OFFCURVE",
"194 480 OFFCURVE",
"170 434 CURVE",
"185 431 LINE",
"185 474 LINE",
"185 509 OFFCURVE",
"160 535 OFFCURVE",
"125 535 CURVE",
"90 535 OFFCURVE",
"65 509 OFFCURVE",
"65 474 CURVE",
"65 61 LINE",
"65 26 OFFCURVE",
"90 0 OFFCURVE",
"125 0 CURVE",
"160 0 OFFCURVE",
"185 26 OFFCURVE",
"185 61 CURVE",
"185 317 LINE",
"185 382 OFFCURVE",
"227 435 OFFCURVE",
"304 435 CURVE",
"381 435 OFFCURVE",
"401 382 OFFCURVE",
"401 317 CURVE",
"401 61 LINE",
"401 26 OFFCURVE",
"426 0 OFFCURVE",
"461 0 CURVE",
"496 0 OFFCURVE",
"521 26 OFFCURVE",
"521 61 CURVE",
"521 317 LINE",
"521 382 OFFCURVE",
"563 435 OFFCURVE",
"640 435 CURVE",
"717 435 OFFCURVE",
"737 382 OFFCURVE",
"737 317 CURVE",
"737 61 LINE",
"737 26 OFFCURVE",
"762 0 OFFCURVE",
"797 0 CURVE",
"832 0 OFFCURVE",
"857 26 OFFCURVE",
"857 61 CURVE",
"857 317 LINE",
"857 442 OFFCURVE",
"825 545 OFFCURVE",
"682 545 CURVE",
"594 545 OFFCURVE",
"529 478 OFFCURVE",
"505 432 CURVE",
"497 416 LINE",
"514 407 LINE",
"498 488 OFFCURVE",
"452 545 OFFCURVE",
"346 545 CURVE"
);
}
);
width = 922;
}
);
leftKerningGroup = m;
leftMetricsKey = n;
note = m;
rightKerningGroup = h;
rightMetricsKey = n;
unicode = 006D;
},
{
glyphname = n;
lastChange = "2016-07-22 21:09:21 +0000";
layers = (
{
anchors = (
{
name = bottom;
position = "{286, 0}";
},
{
name = top;
position = "{286, 499}";
}
);
layerId = "254266E2-2911-423D-9D37-8CC6105656EE";
paths = (
{
closed = 1;
nodes = (
"211 515 OFFCURVE",
"98 430 OFFCURVE",
"98 333 CURVE",
"123 381 LINE",
"123 479 LINE",
"123 490 OFFCURVE",
"115 499 OFFCURVE",
"103 499 CURVE",
"92 499 OFFCURVE",
"83 490 OFFCURVE",
"83 479 CURVE",
"83 20 LINE",
"83 9 OFFCURVE",
"91 0 OFFCURVE",
"103 0 CURVE",
"114 0 OFFCURVE",
"123 9 OFFCURVE",
"123 20 CURVE",
"123 322 LINE",
"123 407 OFFCURVE",
"218 477 OFFCURVE",
"306 477 CURVE",
"407 477 OFFCURVE",
"449 407 OFFCURVE",
"449 322 CURVE",
"449 20 LINE",
"449 9 OFFCURVE",
"457 0 OFFCURVE",
"469 0 CURVE",
"479 0 OFFCURVE",
"489 9 OFFCURVE",
"489 20 CURVE",
"489 326 LINE",
"489 432 OFFCURVE",
"435 515 OFFCURVE",
"310 515 CURVE"
);
}
);
width = 572;
},
{
anchors = (
{
name = bottom;
position = "{298, 0}";
},
{
name = top;
position = "{298, 515}";
}
);
layerId = "8816CCA3-DDF9-4C51-BD56-64EE3675A105";
paths = (
{
closed = 1;
nodes = (
"260 545 OFFCURVE",
"195 480 OFFCURVE",
"170 434 CURVE",
"185 431 LINE",
"185 474 LINE",
"185 509 OFFCURVE",
"160 535 OFFCURVE",
"125 535 CURVE",
"90 535 OFFCURVE",
"65 509 OFFCURVE",
"65 474 CURVE",
"65 61 LINE",
"65 26 OFFCURVE",
"90 0 OFFCURVE",
"125 0 CURVE",
"160 0 OFFCURVE",
"185 26 OFFCURVE",
"185 61 CURVE",
"185 317 LINE",
"185 382 OFFCURVE",
"229 435 OFFCURVE",
"309 435 CURVE",
"390 435 OFFCURVE",
"411 382 OFFCURVE",
"411 317 CURVE",
"411 61 LINE",
"411 26 OFFCURVE",
"436 0 OFFCURVE",
"471 0 CURVE",
"506 0 OFFCURVE",
"531 26 OFFCURVE",
"531 61 CURVE",
"531 317 LINE",
"531 442 OFFCURVE",
"498 545 OFFCURVE",
"351 545 CURVE"
);
}
);
width = 596;
}
);
leftKerningGroup = m;
leftMetricsKey = n;
note = n;
rightKerningGroup = h;
rightMetricsKey = n;
unicode = 006E;
},
{
glyphname = eng;
lastChange = "2016-07-26 16:07:42 +0000";
layers = (
{
anchors = (
{
name = bottom;
position = "{286, 0}";
},
{
name = top;
position = "{286, 499}";
}
);
layerId = "254266E2-2911-423D-9D37-8CC6105656EE";
paths = (
{
closed = 1;
nodes = (
"452 -200 OFFCURVE",
"490 -123 OFFCURVE",
"489 -44 CURVE",
"489 326 LINE",
"489 432 OFFCURVE",
"435 515 OFFCURVE",
"310 515 CURVE",
"211 515 OFFCURVE",
"98 430 OFFCURVE",
"98 333 CURVE",
"123 381 LINE",
"123 479 LINE",
"123 490 OFFCURVE",
"115 499 OFFCURVE",
"103 499 CURVE",
"92 499 OFFCURVE",
"83 490 OFFCURVE",
"83 479 CURVE",
"83 20 LINE",
"83 9 OFFCURVE",
"91 0 OFFCURVE",
"103 0 CURVE",
"114 0 OFFCURVE",
"123 9 OFFCURVE",
"123 20 CURVE",
"123 322 LINE",
"123 407 OFFCURVE",
"218 477 OFFCURVE",
"306 477 CURVE",
"407 477 OFFCURVE",
"449 407 OFFCURVE",
"449 322 CURVE",
"449 -44 LINE",
"449 -111 OFFCURVE",
"425 -160 OFFCURVE",
"310 -160 CURVE SMOOTH",
"298 -160 OFFCURVE",
"289 -168 OFFCURVE",
"289 -180 CURVE SMOOTH",
"289 -192 OFFCURVE",
"298 -200 OFFCURVE",
"311 -200 CURVE SMOOTH"
);
}
);
width = 572;
},
{
anchors = (
{
name = bottom;
position = "{286, 0}";
},
{
name = top;
position = "{298, 515}";
}
);
layerId = "8816CCA3-DDF9-4C51-BD56-64EE3675A105";
paths = (
{
closed = 1;
nodes = (
"441 -201 OFFCURVE",
"531 -156 OFFCURVE",
"531 -14 CURVE SMOOTH",
"531 317 LINE",
"531 442 OFFCURVE",
"498 545 OFFCURVE",
"351 545 CURVE",
"260 545 OFFCURVE",
"195 480 OFFCURVE",
"170 434 CURVE",
"185 431 LINE",
"185 474 LINE",
"185 509 OFFCURVE",
"160 535 OFFCURVE",
"125 535 CURVE",
"90 535 OFFCURVE",
"65 509 OFFCURVE",
"65 474 CURVE",
"65 61 LINE",
"65 26 OFFCURVE",
"90 0 OFFCURVE",
"125 0 CURVE",
"160 0 OFFCURVE",
"185 26 OFFCURVE",
"185 61 CURVE",
"185 317 LINE",
"185 382 OFFCURVE",
"229 435 OFFCURVE",
"309 435 CURVE",
"390 435 OFFCURVE",
"411 382 OFFCURVE",
"411 317 CURVE",
"411 -19 LINE SMOOTH",
"411 -69 OFFCURVE",
"390 -89 OFFCURVE",
"348 -90 CURVE SMOOTH",
"314 -91 OFFCURVE",
"290 -116 OFFCURVE",
"290 -148 CURVE SMOOTH",
"290 -180 OFFCURVE",
"317 -200 OFFCURVE",
"354 -200 CURVE SMOOTH"
);
}
);
width = 596;
}
);
leftMetricsKey = n;
note = eng;
rightMetricsKey = n;
unicode = 014B;
},
{
glyphname = nhookleft;
lastChange = "2016-07-26 17:53:08 +0000";
layers = (
{
layerId = "254266E2-2911-423D-9D37-8CC6105656EE";
paths = (
{
closed = 1;
nodes = (
"7 -198 OFFCURVE",
"123 -180 OFFCURVE",
"123 -58 CURVE",
"123 322 LINE",
"123 407 OFFCURVE",
"218 477 OFFCURVE",
"306 477 CURVE",
"407 477 OFFCURVE",
"449 407 OFFCURVE",
"449 322 CURVE",
"449 20 LINE",
"449 9 OFFCURVE",
"457 0 OFFCURVE",
"469 0 CURVE",
"479 0 OFFCURVE",
"489 9 OFFCURVE",
"489 20 CURVE",
"489 326 LINE",
"489 432 OFFCURVE",
"435 515 OFFCURVE",
"310 515 CURVE",
"211 515 OFFCURVE",
"98 430 OFFCURVE",
"98 333 CURVE",
"123 381 LINE",
"123 479 LINE",
"123 490 OFFCURVE",
"115 499 OFFCURVE",
"103 499 CURVE",
"92 499 OFFCURVE",
"83 490 OFFCURVE",
"83 479 CURVE",
"83 -58 LINE",
"83 -124 OFFCURVE",
"29 -152 OFFCURVE",
"-15 -159 CURVE",
"-25 -160 OFFCURVE",
"-33 -167 OFFCURVE",
"-33 -180 CURVE SMOOTH",
"-33 -190 OFFCURVE",
"-25 -198 OFFCURVE",
"-14 -198 CURVE SMOOTH"
);
}
);
width = 572;
},
{
layerId = "8816CCA3-DDF9-4C51-BD56-64EE3675A105";
paths = (
{
closed = 1;
nodes = (
"48 -196 OFFCURVE",
"185 -194 OFFCURVE",
"185 -10 CURVE",
"185 317 LINE",
"185 382 OFFCURVE",
"229 435 OFFCURVE",
"309 435 CURVE",
"390 435 OFFCURVE",
"411 382 OFFCURVE",
"411 317 CURVE",
"411 61 LINE",
"411 26 OFFCURVE",
"436 0 OFFCURVE",
"471 0 CURVE",
"506 0 OFFCURVE",
"531 26 OFFCURVE",
"531 61 CURVE",
"531 317 LINE",
"531 442 OFFCURVE",
"498 545 OFFCURVE",
"351 545 CURVE",
"260 545 OFFCURVE",
"195 480 OFFCURVE",
"170 434 CURVE",
"185 431 LINE",
"185 474 LINE",
"185 509 OFFCURVE",
"160 535 OFFCURVE",
"125 535 CURVE",
"90 535 OFFCURVE",
"65 509 OFFCURVE",
"65 474 CURVE",
"65 25 LINE",
"65 -20 OFFCURVE",
"63 -58 OFFCURVE",
"16 -74 CURVE SMOOTH",
"-19 -86 OFFCURVE",
"-35 -99 OFFCURVE",
"-35 -140 CURVE SMOOTH",
"-35 -169 OFFCURVE",
"-14 -196 OFFCURVE",
"16 -196 CURVE SMOOTH"
);
}
);
width = 600;
}
);
unicode = 0272;
},
{
glyphname = o;
lastChange = "2016-08-08 16:05:47 +0000";
layers = (
{
anchors = (
{
name = bottom;
position = "{295, 0}";
},
{
name = center;
position = "{295, 250}";
},
{
name = ogonek;
position = "{530, 10}";
},
{
name = top;
position = "{295, 509}";
},
{
name = topright;
position = "{312, 496}";
}
);
layerId = "254266E2-2911-423D-9D37-8CC6105656EE";
paths = (
{
closed = 1;
nodes = (
"541 402 OFFCURVE",
"436 515 OFFCURVE",
"295 515 CURVE",
"154 515 OFFCURVE",
"48 402 OFFCURVE",
"48 252 CURVE",
"48 103 OFFCURVE",
"154 -10 OFFCURVE",
"295 -10 CURVE",
"436 -10 OFFCURVE",
"541 103 OFFCURVE",
"541 252 CURVE"
);
},
{
closed = 1;
nodes = (
"501 124 OFFCURVE",
"414 28 OFFCURVE",
"295 28 CURVE",
"177 28 OFFCURVE",
"88 124 OFFCURVE",
"88 252 CURVE",
"88 381 OFFCURVE",
"177 477 OFFCURVE",
"295 477 CURVE",
"414 477 OFFCURVE",
"501 381 OFFCURVE",
"501 252 CURVE"
);
}
);
width = 589;
},
{
anchors = (
{
name = bottom;
position = "{307, 0}";
},
{
name = center;
position = "{307, 258}";
},
{
name = ogonek;
position = "{553, 10}";
},
{
name = top;
position = "{307, 515}";
},
{
name = topright;
position = "{321, 545}";
}
);
layerId = "8816CCA3-DDF9-4C51-BD56-64EE3675A105";
paths = (
{
closed = 1;
nodes = (
"579 431 OFFCURVE",
"458 545 OFFCURVE",
"307 545 CURVE",
"155 545 OFFCURVE",
"35 431 OFFCURVE",
"35 267 CURVE",
"35 103 OFFCURVE",
"155 -10 OFFCURVE",
"307 -10 CURVE",
"458 -10 OFFCURVE",
"579 103 OFFCURVE",
"579 267 CURVE"
);
},
{
closed = 1;
nodes = (
"459 167 OFFCURVE",
"391 100 OFFCURVE",
"307 100 CURVE",
"223 100 OFFCURVE",
"155 167 OFFCURVE",
"155 267 CURVE",
"155 368 OFFCURVE",
"223 435 OFFCURVE",
"307 435 CURVE",
"391 435 OFFCURVE",
"459 368 OFFCURVE",
"459 267 CURVE"
);
}
);
width = 614;
}
);
leftKerningGroup = c;
leftMetricsKey = o;
note = o;
rightKerningGroup = b;
rightMetricsKey = o;
unicode = 006F;
},
{
glyphname = oogonek;
lastChange = "2016-08-08 18:20:09 +0000";
layers = (
{
layerId = "254266E2-2911-423D-9D37-8CC6105656EE";
paths = (
{
closed = 1;
nodes = (
"501 124 OFFCURVE",
"414 28 OFFCURVE",
"295 28 CURVE",
"177 28 OFFCURVE",
"88 124 OFFCURVE",
"88 252 CURVE",
"88 381 OFFCURVE",
"177 477 OFFCURVE",
"295 477 CURVE",
"414 477 OFFCURVE",
"501 381 OFFCURVE",
"501 252 CURVE"
);
},
{
closed = 1;
nodes = (
"380 -185 OFFCURVE",
"411 -163 OFFCURVE",
"411 -136 CURVE",
"411 -129 OFFCURVE",
"406 -122 OFFCURVE",
"397 -122 CURVE",
"387 -122 OFFCURVE",
"381 -130 OFFCURVE",
"373 -139 CURVE SMOOTH",
"367 -145 OFFCURVE",
"359 -148 OFFCURVE",
"344 -148 CURVE",
"316 -148 OFFCURVE",
"289 -125 OFFCURVE",
"289 -85 CURVE",
"289 -51 OFFCURVE",
"317 -13 OFFCURVE",
"349 -4 CURVE",
"460 27 OFFCURVE",
"541 123 OFFCURVE",
"541 252 CURVE",
"541 402 OFFCURVE",
"436 515 OFFCURVE",
"295 515 CURVE",
"154 515 OFFCURVE",
"48 402 OFFCURVE",
"48 252 CURVE",
"48 103 OFFCURVE",
"154 -10 OFFCURVE",
"295 -10 CURVE",
"314 -10 OFFCURVE",
"333 0 OFFCURVE",
"337 17 CURVE",
"295 3 OFFCURVE",
"251 -31 OFFCURVE",
"251 -93 CURVE",
"251 -149 OFFCURVE",
"295 -185 OFFCURVE",
"339 -185 CURVE"
);
}
);
width = 589;
},
{
layerId = "8816CCA3-DDF9-4C51-BD56-64EE3675A105";
paths = (
{
closed = 1;
nodes = (
"459 167 OFFCURVE",
"391 100 OFFCURVE",
"307 100 CURVE",
"223 100 OFFCURVE",
"155 167 OFFCURVE",
"155 267 CURVE",
"155 368 OFFCURVE",
"223 435 OFFCURVE",
"307 435 CURVE",
"391 435 OFFCURVE",
"459 368 OFFCURVE",
"459 267 CURVE"
);
},
{
closed = 1;
nodes = (
"434 -207 OFFCURVE",
"490 -165 OFFCURVE",
"490 -132 CURVE",
"490 -102 OFFCURVE",
"470 -84 OFFCURVE",
"446 -84 CURVE",
"436 -84 OFFCURVE",
"417 -86 OFFCURVE",
"405 -102 CURVE",
"399 -110 OFFCURVE",
"392 -114 OFFCURVE",
"384 -114 CURVE",
"366 -114 OFFCURVE",
"348 -99 OFFCURVE",
"348 -68 CURVE",
"348 -27 OFFCURVE",
"391 -3 OFFCURVE",
"450 28 CURVE",
"530 70 OFFCURVE",
"579 160 OFFCURVE",
"579 267 CURVE",
"579 431 OFFCURVE",
"458 545 OFFCURVE",
"307 545 CURVE",
"155 545 OFFCURVE",
"35 431 OFFCURVE",
"35 267 CURVE",
"35 103 OFFCURVE",
"155 -10 OFFCURVE",
"307 -10 CURVE",
"350 27 OFFCURVE",
"394 65 OFFCURVE",
"437 102 CURVE",
"356 79 OFFCURVE",
"249 32 OFFCURVE",
"249 -90 CURVE",
"249 -171 OFFCURVE",
"306 -207 OFFCURVE",
"374 -207 CURVE"
);
}
);
width = 614;
}
);
leftKerningGroup = o;
rightKerningGroup = b;
unicode = 01EB;
},
{
glyphname = oslash;
lastChange = "2018-03-20 16:00:51 +0000";
layers = (
{
anchors = (
{
name = top;
position = "{300, 499}";
}
);
components = (
{
name = o;
transform = "{1, 0, 0, 1, 1, 0}";
}
);
layerId = "254266E2-2911-423D-9D37-8CC6105656EE";
paths = (
{
closed = 1;
nodes = (
"74 -25 OFFCURVE",
"79 -22 OFFCURVE",
"83 -17 CURVE",
"530 505 LINE SMOOTH",
"534 509 OFFCURVE",
"535 514 OFFCURVE",
"535 519 CURVE SMOOTH",
"535 530 OFFCURVE",
"525 539 OFFCURVE",
"515 539 CURVE SMOOTH",
"509 539 OFFCURVE",
"504 536 OFFCURVE",
"500 531 CURVE",
"53 9 LINE SMOOTH",
"49 4 OFFCURVE",
"48 0 OFFCURVE",
"48 -5 CURVE SMOOTH",
"48 -16 OFFCURVE",
"58 -25 OFFCURVE",
"68 -25 CURVE SMOOTH"
);
}
);
width = 590;
},
{
anchors = (
{
name = top;
position = "{307, 515}";
}
);
components = (
{
name = o;
}
);
layerId = "8816CCA3-DDF9-4C51-BD56-64EE3675A105";
paths = (
{
closed = 1;
nodes = (
"117 -33 OFFCURVE",
"131 -27 OFFCURVE",
"141 -15 CURVE SMOOTH",
"549 464 LINE SMOOTH",
"557 473 OFFCURVE",
"562 485 OFFCURVE",
"562 497 CURVE SMOOTH",
"562 525 OFFCURVE",
"538 547 OFFCURVE",
"511 547 CURVE SMOOTH",
"497 547 OFFCURVE",
"483 541 OFFCURVE",
"473 529 CURVE SMOOTH",
"65 50 LINE SMOOTH",
"56 40 OFFCURVE",
"52 28 OFFCURVE",
"52 16 CURVE SMOOTH",
"52 -8 OFFCURVE",
"74 -33 OFFCURVE",
"103 -33 CURVE SMOOTH"
);
}
);
width = 614;
}
);
leftKerningGroup = o;
note = oslash;
rightKerningGroup = b;
unicode = 00F8;
},
{
glyphname = p;
lastChange = "2016-07-20 13:36:17 +0000";
layers = (
{
anchors = (
{
name = bottom;
position = "{298, 0}";
},
{
name = top;
position = "{298, 499}";
}
);
background = {
paths = (
{
closed = 1;
nodes = (
"115 -200 OFFCURVE",
"123 -191 OFFCURVE",
"123 -180 CURVE SMOOTH",
"123 101 LINE SMOOTH",
"123 106 OFFCURVE",
"126 107 OFFCURVE",
"129 103 CURVE",
"175 35 OFFCURVE",
"250 -10 OFFCURVE",
"335 -10 CURVE SMOOTH",
"474 -10 OFFCURVE",
"587 109 OFFCURVE",
"587 257 CURVE SMOOTH",
"587 405 OFFCURVE",
"474 525 OFFCURVE",
"335 525 CURVE SMOOTH",
"250 525 OFFCURVE",
"175 480 OFFCURVE",
"129 411 CURVE",
"126 407 OFFCURVE",
"123 408 OFFCURVE",
"123 413 CURVE SMOOTH",
"123 495 LINE SMOOTH",
"123 506 OFFCURVE",
"115 515 OFFCURVE",
"103 515 CURVE SMOOTH",
"92 515 OFFCURVE",
"83 506 OFFCURVE",
"83 495 CURVE SMOOTH",
"83 -180 LINE SMOOTH",
"83 -191 OFFCURVE",
"91 -200 OFFCURVE",
"103 -200 CURVE SMOOTH"
);
},
{
closed = 1;
nodes = (
"451 485 OFFCURVE",
"547 383 OFFCURVE",
"547 257 CURVE SMOOTH",
"547 131 OFFCURVE",
"451 30 OFFCURVE",
"335 30 CURVE SMOOTH",
"219 30 OFFCURVE",
"123 131 OFFCURVE",
"123 257 CURVE SMOOTH",
"123 383 OFFCURVE",
"219 485 OFFCURVE",
"335 485 CURVE SMOOTH"
);
}
);
};
layerId = "254266E2-2911-423D-9D37-8CC6105656EE";
paths = (
{
closed = 1;
nodes = (
"226 505 OFFCURVE",
"147 463 OFFCURVE",
"110 364 CURVE",
"123 357 LINE",
"123 485 LINE",
"123 496 OFFCURVE",
"115 505 OFFCURVE",
"103 505 CURVE",
"91 505 OFFCURVE",
"83 496 OFFCURVE",
"83 485 CURVE",
"83 -180 LINE",
"83 -191 OFFCURVE",
"92 -200 OFFCURVE",
"103 -200 CURVE",
"115 -200 OFFCURVE",
"123 -191 OFFCURVE",
"123 -180 CURVE",
"123 147 LINE",
"110 133 LINE",
"152 45 OFFCURVE",
"226 -6 OFFCURVE",
"315 -6 CURVE",
"447 -6 OFFCURVE",
"547 103 OFFCURVE",
"547 250 CURVE",
"547 398 OFFCURVE",
"448 505 OFFCURVE",
"315 505 CURVE"
);
},
{
closed = 1;
nodes = (
"424 467 OFFCURVE",
"507 376 OFFCURVE",
"507 250 CURVE",
"507 124 OFFCURVE",
"424 32 OFFCURVE",
"313 32 CURVE",
"199 32 OFFCURVE",
"119 123 OFFCURVE",
"119 250 CURVE",
"119 377 OFFCURVE",
"199 467 OFFCURVE",
"313 467 CURVE"
);
}
);
width = 595;
},
{
anchors = (
{
name = bottom;
position = "{312, 0}";
},
{
name = top;
position = "{312, 515}";
}
);
background = {
paths = (
{
closed = 1;
nodes = (
"160 -200 OFFCURVE",
"185 -174 OFFCURVE",
"185 -139 CURVE SMOOTH",
"185 59 LINE SMOOTH",
"185 64 OFFCURVE",
"188 65 OFFCURVE",
"190 61 CURVE SMOOTH",
"206 29 OFFCURVE",
"261 -10 OFFCURVE",
"332 -10 CURVE SMOOTH",
"481 -10 OFFCURVE",
"588 100 OFFCURVE",
"588 258 CURVE SMOOTH",
"588 415 OFFCURVE",
"481 525 OFFCURVE",
"332 525 CURVE SMOOTH",
"261 525 OFFCURVE",
"206 485 OFFCURVE",
"190 453 CURVE SMOOTH",
"188 449 OFFCURVE",
"185 450 OFFCURVE",
"185 454 CURVE SMOOTH",
"185 489 OFFCURVE",
"160 515 OFFCURVE",
"125 515 CURVE SMOOTH",
"90 515 OFFCURVE",
"65 489 OFFCURVE",
"65 454 CURVE SMOOTH",
"65 -139 LINE SMOOTH",
"65 -174 OFFCURVE",
"90 -200 OFFCURVE",
"125 -200 CURVE SMOOTH"
);
},
{
closed = 1;
nodes = (
"412 405 OFFCURVE",
"473 341 OFFCURVE",
"473 258 CURVE SMOOTH",
"473 174 OFFCURVE",
"412 110 OFFCURVE",
"322 110 CURVE SMOOTH",
"231 110 OFFCURVE",
"170 174 OFFCURVE",
"170 258 CURVE SMOOTH",
"170 341 OFFCURVE",
"231 405 OFFCURVE",
"322 405 CURVE SMOOTH"
);
}
);
};
layerId = "8816CCA3-DDF9-4C51-BD56-64EE3675A105";
paths = (
{
closed = 1;
nodes = (
"248 545 OFFCURVE",
"168 468 OFFCURVE",
"168 434 CURVE",
"185 425 LINE",
"185 474 LINE",
"185 509 OFFCURVE",
"160 535 OFFCURVE",
"125 535 CURVE",
"90 535 OFFCURVE",
"65 509 OFFCURVE",
"65 474 CURVE",
"65 -139 LINE",
"65 -175 OFFCURVE",
"90 -200 OFFCURVE",
"125 -200 CURVE",
"160 -200 OFFCURVE",
"185 -174 OFFCURVE",
"185 -139 CURVE",
"185 124 LINE",
"154 111 LINE",
"154 73 OFFCURVE",
"238 -10 OFFCURVE",
"346 -10 CURVE",
"481 -10 OFFCURVE",
"588 104 OFFCURVE",
"588 268 CURVE",
"588 431 OFFCURVE",
"481 545 OFFCURVE",
"342 545 CURVE"
);
},
{
closed = 1;
nodes = (
"414 435 OFFCURVE",
"473 363 OFFCURVE",
"473 268 CURVE",
"473 173 OFFCURVE",
"414 100 OFFCURVE",
"327 100 CURVE",
"239 100 OFFCURVE",
"180 173 OFFCURVE",
"180 268 CURVE",
"180 363 OFFCURVE",
"239 435 OFFCURVE",
"327 435 CURVE"
);
}
);
width = 623;
}
);
leftKerningGroup = p;
leftMetricsKey = n;
note = p;
rightKerningGroup = b;
rightMetricsKey = o;
unicode = 0070;
},
{
glyphname = thorn;
lastChange = "2016-07-26 16:19:05 +0000";
layers = (
{
anchors = (
{
name = bottom;
position = "{282, 0}";
},
{
name = top;
position = "{282, 499}";
}
);
layerId = "254266E2-2911-423D-9D37-8CC6105656EE";
paths = (
{
closed = 1;
nodes = (
"226 505 OFFCURVE",
"147 463 OFFCURVE",
"110 364 CURVE",
"123 357 LINE",
"123 720 LINE",
"123 731 OFFCURVE",
"115 740 OFFCURVE",
"103 740 CURVE",
"91 740 OFFCURVE",
"83 731 OFFCURVE",
"83 720 CURVE",
"83 -180 LINE",
"83 -191 OFFCURVE",
"92 -200 OFFCURVE",
"103 -200 CURVE",
"115 -200 OFFCURVE",
"123 -191 OFFCURVE",
"123 -180 CURVE",
"123 147 LINE",
"110 133 LINE",
"152 45 OFFCURVE",
"226 -6 OFFCURVE",
"315 -6 CURVE",
"447 -6 OFFCURVE",
"547 103 OFFCURVE",
"547 250 CURVE",
"547 398 OFFCURVE",
"448 505 OFFCURVE",
"315 505 CURVE"
);
},
{
closed = 1;
nodes = (
"424 467 OFFCURVE",
"507 376 OFFCURVE",
"507 250 CURVE",
"507 124 OFFCURVE",
"424 32 OFFCURVE",
"313 32 CURVE",
"199 32 OFFCURVE",
"119 123 OFFCURVE",
"119 250 CURVE",
"119 377 OFFCURVE",
"199 467 OFFCURVE",
"313 467 CURVE"
);
}
);
width = 595;
},
{
anchors = (
{
name = bottom;
position = "{282, 0}";
},
{
name = top;
position = "{282, 499}";
}
);
background = {
paths = (
{
closed = 1;
nodes = (
"282 613 OFFCURVE",
"238 600 OFFCURVE",
"201 576 CURVE",
"197 574 OFFCURVE",
"195 576 OFFCURVE",
"195 580 CURVE SMOOTH",
"195 679 LINE SMOOTH",
"195 714 OFFCURVE",
"170 740 OFFCURVE",
"136 740 CURVE SMOOTH",
"101 740 OFFCURVE",
"75 714 OFFCURVE",
"75 679 CURVE SMOOTH",
"75 61 LINE SMOOTH",
"75 26 OFFCURVE",
"100 0 OFFCURVE",
"134 0 CURVE SMOOTH",
"169 0 OFFCURVE",
"195 26 OFFCURVE",
"195 61 CURVE SMOOTH",
"195 161 LINE SMOOTH",
"195 165 OFFCURVE",
"198 166 OFFCURVE",
"201 164 CURVE SMOOTH",
"238 141 OFFCURVE",
"282 128 OFFCURVE",
"329 128 CURVE SMOOTH",
"464 128 OFFCURVE",
"571 236 OFFCURVE",
"571 370 CURVE SMOOTH",
"571 504 OFFCURVE",
"464 613 OFFCURVE",
"329 613 CURVE SMOOTH"
);
},
{
closed = 1;
nodes = (
"256 237 OFFCURVE",
"196 295 OFFCURVE",
"196 370 CURVE SMOOTH",
"196 446 OFFCURVE",
"256 504 OFFCURVE",
"329 504 CURVE SMOOTH",
"402 504 OFFCURVE",
"462 446 OFFCURVE",
"462 370 CURVE SMOOTH",
"462 295 OFFCURVE",
"402 237 OFFCURVE",
"329 237 CURVE SMOOTH"
);
}
);
};
layerId = "8816CCA3-DDF9-4C51-BD56-64EE3675A105";
paths = (
{
closed = 1;
nodes = (
"248 545 OFFCURVE",
"168 468 OFFCURVE",
"168 434 CURVE",
"185 425 LINE",
"185 679 LINE",
"185 714 OFFCURVE",
"160 740 OFFCURVE",
"125 740 CURVE",
"90 740 OFFCURVE",
"65 714 OFFCURVE",
"65 679 CURVE",
"65 -139 LINE",
"65 -175 OFFCURVE",
"90 -200 OFFCURVE",
"125 -200 CURVE",
"160 -200 OFFCURVE",
"185 -174 OFFCURVE",
"185 -139 CURVE",
"185 124 LINE",
"154 111 LINE",
"154 73 OFFCURVE",
"238 -10 OFFCURVE",
"346 -10 CURVE",
"481 -10 OFFCURVE",
"588 104 OFFCURVE",
"588 268 CURVE",
"588 431 OFFCURVE",
"481 545 OFFCURVE",
"342 545 CURVE"
);
},
{
closed = 1;
nodes = (
"414 435 OFFCURVE",
"473 363 OFFCURVE",
"473 268 CURVE",
"473 173 OFFCURVE",
"414 100 OFFCURVE",
"327 100 CURVE",
"239 100 OFFCURVE",
"180 173 OFFCURVE",
"180 268 CURVE",
"180 363 OFFCURVE",
"239 435 OFFCURVE",
"327 435 CURVE"
);
}
);
width = 623;
}
);
leftMetricsKey = p;
note = thorn;
rightMetricsKey = p;
unicode = 00FE;
},
{
glyphname = q;
lastChange = "2016-07-20 13:36:17 +0000";
layers = (
{
anchors = (
{
name = bottom;
position = "{298, 0}";
},
{
name = top;
position = "{298, 499}";
}
);
background = {
paths = (
{
closed = 1;
nodes = (
"544 -200 OFFCURVE",
"552 -191 OFFCURVE",
"552 -180 CURVE SMOOTH",
"552 495 LINE SMOOTH",
"552 506 OFFCURVE",
"543 515 OFFCURVE",
"532 515 CURVE SMOOTH",
"520 515 OFFCURVE",
"512 506 OFFCURVE",
"512 495 CURVE SMOOTH",
"512 413 LINE SMOOTH",
"512 408 OFFCURVE",
"509 407 OFFCURVE",
"506 411 CURVE",
"460 480 OFFCURVE",
"385 525 OFFCURVE",
"300 525 CURVE SMOOTH",
"161 525 OFFCURVE",
"48 405 OFFCURVE",
"48 257 CURVE SMOOTH",
"48 109 OFFCURVE",
"161 -10 OFFCURVE",
"300 -10 CURVE SMOOTH",
"385 -10 OFFCURVE",
"460 35 OFFCURVE",
"506 103 CURVE",
"509 107 OFFCURVE",
"512 106 OFFCURVE",
"512 101 CURVE SMOOTH",
"512 -180 LINE SMOOTH",
"512 -191 OFFCURVE",
"520 -200 OFFCURVE",
"532 -200 CURVE SMOOTH"
);
},
{
closed = 1;
nodes = (
"416 485 OFFCURVE",
"512 383 OFFCURVE",
"512 257 CURVE SMOOTH",
"512 131 OFFCURVE",
"416 30 OFFCURVE",
"300 30 CURVE SMOOTH",
"184 30 OFFCURVE",
"88 131 OFFCURVE",
"88 257 CURVE SMOOTH",
"88 383 OFFCURVE",
"184 485 OFFCURVE",
"300 485 CURVE SMOOTH"
);
}
);
};
layerId = "254266E2-2911-423D-9D37-8CC6105656EE";
paths = (
{
closed = 1;
nodes = (
"480 505 OFFCURVE",
"472 496 OFFCURVE",
"472 485 CURVE",
"472 334 LINE",
"488 309 LINE",
"488 427 OFFCURVE",
"390 515 OFFCURVE",
"280 515 CURVE",
"148 515 OFFCURVE",
"48 403 OFFCURVE",
"48 253 CURVE",
"48 103 OFFCURVE",
"148 -10 OFFCURVE",
"280 -10 CURVE",
"398 -10 OFFCURVE",
"488 92 OFFCURVE",
"488 184 CURVE",
"472 162 LINE",
"472 -180 LINE",
"472 -191 OFFCURVE",
"480 -200 OFFCURVE",
"492 -200 CURVE",
"503 -200 OFFCURVE",
"512 -191 OFFCURVE",
"512 -180 CURVE",
"512 485 LINE",
"512 496 OFFCURVE",
"504 505 OFFCURVE",
"492 505 CURVE"
);
},
{
closed = 1;
nodes = (
"171 28 OFFCURVE",
"88 124 OFFCURVE",
"88 253 CURVE",
"88 382 OFFCURVE",
"172 477 OFFCURVE",
"282 477 CURVE",
"394 477 OFFCURVE",
"476 382 OFFCURVE",
"476 253 CURVE",
"476 123 OFFCURVE",
"395 28 OFFCURVE",
"282 28 CURVE"
);
}
);
width = 595;
},
{
anchors = (
{
name = bottom;
position = "{312, 0}";
},
{
name = top;
position = "{312, 515}";
}
);
background = {
paths = (
{
closed = 1;
nodes = (
"538 -200 OFFCURVE",
"563 -174 OFFCURVE",
"563 -139 CURVE SMOOTH",
"563 454 LINE SMOOTH",
"563 489 OFFCURVE",
"538 515 OFFCURVE",
"503 515 CURVE SMOOTH",
"468 515 OFFCURVE",
"443 489 OFFCURVE",
"443 454 CURVE SMOOTH",
"443 450 OFFCURVE",
"440 449 OFFCURVE",
"438 453 CURVE SMOOTH",
"422 485 OFFCURVE",
"367 525 OFFCURVE",
"296 525 CURVE SMOOTH",
"147 525 OFFCURVE",
"40 415 OFFCURVE",
"40 258 CURVE SMOOTH",
"40 100 OFFCURVE",
"147 -10 OFFCURVE",
"296 -10 CURVE SMOOTH",
"367 -10 OFFCURVE",
"422 29 OFFCURVE",
"438 61 CURVE SMOOTH",
"440 65 OFFCURVE",
"443 64 OFFCURVE",
"443 59 CURVE SMOOTH",
"443 -139 LINE SMOOTH",
"443 -174 OFFCURVE",
"468 -200 OFFCURVE",
"503 -200 CURVE SMOOTH"
);
},
{
closed = 1;
nodes = (
"397 405 OFFCURVE",
"458 341 OFFCURVE",
"458 258 CURVE SMOOTH",
"458 174 OFFCURVE",
"397 110 OFFCURVE",
"306 110 CURVE SMOOTH",
"216 110 OFFCURVE",
"155 174 OFFCURVE",
"155 258 CURVE SMOOTH",
"155 341 OFFCURVE",
"216 405 OFFCURVE",
"306 405 CURVE SMOOTH"
);
}
);
};
layerId = "8816CCA3-DDF9-4C51-BD56-64EE3675A105";
paths = (
{
closed = 1;
nodes = (
"463 535 OFFCURVE",
"438 509 OFFCURVE",
"438 474 CURVE",
"438 411 LINE",
"474 424 LINE",
"474 462 OFFCURVE",
"391 545 OFFCURVE",
"277 545 CURVE",
"142 545 OFFCURVE",
"35 431 OFFCURVE",
"35 267 CURVE",
"35 104 OFFCURVE",
"142 -10 OFFCURVE",
"281 -10 CURVE",
"381 -10 OFFCURVE",
"460 67 OFFCURVE",
"460 101 CURVE",
"438 110 LINE",
"438 -139 LINE",
"438 -174 OFFCURVE",
"463 -200 OFFCURVE",
"498 -200 CURVE",
"533 -200 OFFCURVE",
"558 -174 OFFCURVE",
"558 -139 CURVE",
"558 474 LINE",
"558 510 OFFCURVE",
"533 535 OFFCURVE",
"498 535 CURVE"
);
},
{
closed = 1;
nodes = (
"209 100 OFFCURVE",
"150 172 OFFCURVE",
"150 267 CURVE",
"150 362 OFFCURVE",
"209 435 OFFCURVE",
"296 435 CURVE",
"384 435 OFFCURVE",
"443 362 OFFCURVE",
"443 267 CURVE",
"443 172 OFFCURVE",
"384 100 OFFCURVE",
"296 100 CURVE"
);
}
);
width = 623;
}
);
leftKerningGroup = c;
leftMetricsKey = o;
note = q;
rightKerningGroup = q;
rightMetricsKey = n;
unicode = 0071;
},
{
glyphname = r;
lastChange = "2018-03-20 15:57:39 +0000";
layers = (
{
anchors = (
{
name = bottom;
position = "{103, 0}";
},
{
name = top;
position = "{184, 499}";
}
);
layerId = "254266E2-2911-423D-9D37-8CC6105656EE";
paths = (
{
closed = 1;
nodes = (
"114 0 OFFCURVE",
"123 9 OFFCURVE",
"123 20 CURVE",
"123 270 LINE",
"123 364 OFFCURVE",
"213 480 OFFCURVE",
"298 480 CURVE",
"319 480 OFFCURVE",
"329 471 OFFCURVE",
"337 471 CURVE",
"347 471 OFFCURVE",
"355 480 OFFCURVE",
"355 492 CURVE",
"355 512 OFFCURVE",
"327 515 OFFCURVE",
"309 515 CURVE",
"179 514 OFFCURVE",
"106 387 OFFCURVE",
"106 284 CURVE",
"123 310 LINE",
"123 479 LINE",
"123 490 OFFCURVE",
"115 499 OFFCURVE",
"103 499 CURVE",
"92 499 OFFCURVE",
"83 490 OFFCURVE",
"83 479 CURVE",
"83 20 LINE",
"83 9 OFFCURVE",
"91 0 OFFCURVE",
"103 0 CURVE"
);
}
);
width = 368;
},
{
anchors = (
{
name = bottom;
position = "{122, 0}";
},
{
name = top;
position = "{217, 515}";
}
);
layerId = "8816CCA3-DDF9-4C51-BD56-64EE3675A105";
paths = (
{
closed = 1;
nodes = (
"160 0 OFFCURVE",
"185 26 OFFCURVE",
"185 61 CURVE",
"185 298 LINE",
"185 394 OFFCURVE",
"241 440 OFFCURVE",
"290 440 CURVE SMOOTH",
"317 440 OFFCURVE",
"335 426 OFFCURVE",
"360 426 CURVE",
"387 426 OFFCURVE",
"414 444 OFFCURVE",
"414 488 CURVE",
"414 519 OFFCURVE",
"383 545 OFFCURVE",
"343 545 CURVE",
"275 545 OFFCURVE",
"207 512 OFFCURVE",
"178 447 CURVE",
"185 380 LINE",
"185 474 LINE",
"185 509 OFFCURVE",
"160 535 OFFCURVE",
"125 535 CURVE",
"90 535 OFFCURVE",
"65 509 OFFCURVE",
"65 474 CURVE",
"65 61 LINE",
"65 26 OFFCURVE",
"90 0 OFFCURVE",
"125 0 CURVE"
);
}
);
width = 434;
}
);
leftKerningGroup = m;
leftMetricsKey = n;
note = r;
rightKerningGroup = r;
unicode = 0072;
},
{
glyphname = s;
lastChange = "2016-07-29 20:06:04 +0000";
layers = (
{
anchors = (
{
name = bottom;
position = "{233, 0}";
},
{
name = top;
position = "{233, 499}";
}
);
layerId = "254266E2-2911-423D-9D37-8CC6105656EE";
paths = (
{
closed = 1;
nodes = (
"107 16 OFFCURVE",
"172 -10 OFFCURVE",
"242 -10 CURVE",
"344 -10 OFFCURVE",
"417 41 OFFCURVE",
"417 126 CURVE",
"417 221 OFFCURVE",
"346 249 OFFCURVE",
"259 271 CURVE SMOOTH",
"177 292 OFFCURVE",
"116 317 OFFCURVE",
"112 379 CURVE",
"112 444 OFFCURVE",
"172 477 OFFCURVE",
"238 477 CURVE",
"290 477 OFFCURVE",
"337 458 OFFCURVE",
"372 420 CURVE",
"378 412 OFFCURVE",
"389 413 OFFCURVE",
"397 418 CURVE",
"406 427 OFFCURVE",
"407 440 OFFCURVE",
"397 448 CURVE",
"350 499 OFFCURVE",
"290 515 OFFCURVE",
"242 515 CURVE",
"142 515 OFFCURVE",
"74 457 OFFCURVE",
"74 379 CURVE",
"74 291 OFFCURVE",
"154 254 OFFCURVE",
"248 231 CURVE SMOOTH",
"313 215 OFFCURVE",
"379 192 OFFCURVE",
"379 124 CURVE",
"379 60 OFFCURVE",
"312 26 OFFCURVE",
"246 26 CURVE",
"172 26 OFFCURVE",
"119 59 OFFCURVE",
"84 109 CURVE",
"76 118 OFFCURVE",
"63 119 OFFCURVE",
"56 112 CURVE",
"46 105 OFFCURVE",
"45 96 OFFCURVE",
"55 80 CURVE"
);
}
);
width = 465;
},
{
anchors = (
{
name = bottom;
position = "{241, 0}";
},
{
name = top;
position = "{241, 515}";
}
);
layerId = "8816CCA3-DDF9-4C51-BD56-64EE3675A105";
paths = (
{
closed = 1;
nodes = (
"86 13 OFFCURVE",
"171 -10 OFFCURVE",
"250 -10 CURVE",
"343 -10 OFFCURVE",
"447 47 OFFCURVE",
"447 150 CURVE",
"447 267 OFFCURVE",
"352 295 OFFCURVE",
"271 317 CURVE",
"212 333 OFFCURVE",
"161 346 OFFCURVE",
"161 392 CURVE",
"161 442 OFFCURVE",
"207 447 OFFCURVE",
"237 447 CURVE",
"286 447 OFFCURVE",
"325 428 OFFCURVE",
"348 399 CURVE",
"365 383 OFFCURVE",
"396 380 OFFCURVE",
"416 396 CURVE",
"444 419 OFFCURVE",
"437 450 OFFCURVE",
"422 470 CURVE",
"380 523 OFFCURVE",
"301 545 OFFCURVE",
"240 545 CURVE",
"142 545 OFFCURVE",
"46 486 OFFCURVE",
"46 387 CURVE",
"46 269 OFFCURVE",
"147 242 OFFCURVE",
"230 219 CURVE",
"289 203 OFFCURVE",
"339 188 OFFCURVE",
"339 145 CURVE",
"339 93 OFFCURVE",
"290 87 OFFCURVE",
"261 86 CURVE",
"197 86 OFFCURVE",
"158 108 OFFCURVE",
"120 147 CURVE SMOOTH",
"97 170 OFFCURVE",
"72 170 OFFCURVE",
"51 157 CURVE",
"17 135 OFFCURVE",
"21 102 OFFCURVE",
"34 83 CURVE"
);
}
);
width = 482;
}
);
leftKerningGroup = s;
note = s;
rightKerningGroup = s;
unicode = 0073;
},
{
glyphname = germandbls;
lastChange = "2016-07-26 00:46:51 +0000";
layers = (
{
layerId = "254266E2-2911-423D-9D37-8CC6105656EE";
paths = (
{
closed = 1;
nodes = (
"131 0 OFFCURVE",
"138 7 OFFCURVE",
"138 20 CURVE",
"140 493 LINE",
"140 577 OFFCURVE",
"176 686 OFFCURVE",
"294 686 CURVE",
"370 686 OFFCURVE",
"413 639 OFFCURVE",
"413 589 CURVE",
"413 559 OFFCURVE",
"388 504 OFFCURVE",
"319 491 CURVE",
"308 488 OFFCURVE",
"302 479 OFFCURVE",
"302 471 CURVE SMOOTH",
"302 461 OFFCURVE",
"309 450 OFFCURVE",
"323 447 CURVE",
"403 429 OFFCURVE",
"498 372 OFFCURVE",
"498 232 CURVE",
"498 107 OFFCURVE",
"407 25 OFFCURVE",
"319 25 CURVE",
"294 25 OFFCURVE",
"272 30 OFFCURVE",
"255 40 CURVE",
"243 48 OFFCURVE",
"231 46 OFFCURVE",
"225 34 CURVE",
"218 23 OFFCURVE",
"223 12 OFFCURVE",
"235 6 CURVE",
"256 -7 OFFCURVE",
"289 -10 OFFCURVE",
"319 -10 CURVE",
"437 -10 OFFCURVE",
"538 93 OFFCURVE",
"538 237 CURVE",
"538 360 OFFCURVE",
"465 446 OFFCURVE",
"367 475 CURVE",
"367 471 LINE",
"431 492 OFFCURVE",
"453 560 OFFCURVE",
"453 591 CURVE",
"453 660 OFFCURVE",
"403 726 OFFCURVE",
"294 726 CURVE",
"146 726 OFFCURVE",
"100 587 OFFCURVE",
"100 493 CURVE",
"98 20 LINE",
"98 7 OFFCURVE",
"105 0 OFFCURVE",
"118 0 CURVE"
);
},
{
closed = 1;
nodes = (
"108 465 LINE",
"118 465 OFFCURVE",
"127 473 OFFCURVE",
"127 484 CURVE",
"127 493 OFFCURVE",
"118 503 OFFCURVE",
"108 503 CURVE",
"47 503 LINE",
"37 503 OFFCURVE",
"28 495 OFFCURVE",
"28 484 CURVE",
"28 474 OFFCURVE",
"37 465 OFFCURVE",
"47 465 CURVE"
);
}
);
width = 586;
},
{
layerId = "8816CCA3-DDF9-4C51-BD56-64EE3675A105";
paths = (
{
closed = 1;
nodes = (
"212 0 OFFCURVE",
"237 26 OFFCURVE",
"237 61 CURVE",
"237 506 LINE",
"237 584 OFFCURVE",
"283 627 OFFCURVE",
"349 627 CURVE",
"410 627 OFFCURVE",
"451 604 OFFCURVE",
"451 556 CURVE",
"451 508 OFFCURVE",
"415 477 OFFCURVE",
"365 452 CURVE",
"348 442 OFFCURVE",
"337 425 OFFCURVE",
"337 398 CURVE",
"337 372 OFFCURVE",
"350 356 OFFCURVE",
"384 346 CURVE",
"458 328 OFFCURVE",
"512 287 OFFCURVE",
"512 195 CURVE",
"512 137 OFFCURVE",
"490 86 OFFCURVE",
"428 86 CURVE",
"405 86 OFFCURVE",
"382 96 OFFCURVE",
"369 109 CURVE",
"346 132 OFFCURVE",
"321 132 OFFCURVE",
"300 119 CURVE",
"266 97 OFFCURVE",
"270 64 OFFCURVE",
"283 45 CURVE",
"304 16 OFFCURVE",
"348 -10 OFFCURVE",
"423 -10 CURVE",
"544 -10 OFFCURVE",
"632 81 OFFCURVE",
"632 211 CURVE",
"632 335 OFFCURVE",
"540 402 OFFCURVE",
"455 430 CURVE",
"458 426 LINE",
"513 452 OFFCURVE",
"570 496 OFFCURVE",
"570 567 CURVE",
"570 663 OFFCURVE",
"491 737 OFFCURVE",
"355 737 CURVE",
"209 737 OFFCURVE",
"117 647 OFFCURVE",
"117 502 CURVE",
"117 61 LINE",
"117 26 OFFCURVE",
"142 0 OFFCURVE",
"177 0 CURVE"
);
},
{
closed = 1;
nodes = (
"185 380 LINE",
"220 380 OFFCURVE",
"226 404 OFFCURVE",
"226 438 CURVE",
"226 471 OFFCURVE",
"220 495 OFFCURVE",
"185 495 CURVE",
"91 495 LINE",
"56 495 OFFCURVE",
"30 471 OFFCURVE",
"30 438 CURVE",
"30 404 OFFCURVE",
"56 380 OFFCURVE",
"91 380 CURVE"
);
}
);
width = 667;
}
);
leftMetricsKey = f;
note = germandbls;
rightMetricsKey = s;
unicode = 00DF;
},
{
glyphname = t;
lastChange = "2016-08-02 12:20:54 +0000";
layers = (
{
anchors = (
{
name = bottom;
position = "{158, 0}";
},
{
name = center;
position = "{158, 250}";
},
{
name = top;
position = "{141, 650}";
},
{
name = topright;
position = "{296, 499}";
}
);
layerId = "254266E2-2911-423D-9D37-8CC6105656EE";
paths = (
{
closed = 1;
nodes = (
"27 503 OFFCURVE",
"18 495 OFFCURVE",
"18 484 CURVE",
"18 474 OFFCURVE",
"27 465 OFFCURVE",
"37 465 CURVE",
"269 465 LINE",
"279 465 OFFCURVE",
"288 473 OFFCURVE",
"288 484 CURVE",
"288 493 OFFCURVE",
"279 503 OFFCURVE",
"269 503 CURVE",
"37 503 LINE"
);
},
{
closed = 1;
nodes = (
"128 650 OFFCURVE",
"119 641 OFFCURVE",
"119 630 CURVE",
"119 107 LINE",
"119 -11 OFFCURVE",
"198 0 OFFCURVE",
"215 0 CURVE",
"237 0 OFFCURVE",
"255 10 OFFCURVE",
"255 22 CURVE",
"255 31 OFFCURVE",
"247 40 OFFCURVE",
"238 40 CURVE",
"228 40 OFFCURVE",
"223 36 OFFCURVE",
"214 36 CURVE SMOOTH",
"189 36 OFFCURVE",
"159 43 OFFCURVE",
"159 109 CURVE",
"159 630 LINE",
"159 641 OFFCURVE",
"151 650 OFFCURVE",
"139 650 CURVE"
);
}
);
width = 316;
},
{
anchors = (
{
name = bottom;
position = "{197, 0}";
},
{
name = center;
position = "{197, 258}";
},
{
name = top;
position = "{177, 645}";
},
{
name = topright;
position = "{374, 525}";
}
);
layerId = "8816CCA3-DDF9-4C51-BD56-64EE3675A105";
paths = (
{
closed = 1;
nodes = (
"39 525 OFFCURVE",
"15 502 OFFCURVE",
"15 471 CURVE SMOOTH",
"15 439 OFFCURVE",
"39 415 OFFCURVE",
"71 415 CURVE SMOOTH",
"308 415 LINE SMOOTH",
"340 415 OFFCURVE",
"364 438 OFFCURVE",
"364 469 CURVE SMOOTH",
"364 501 OFFCURVE",
"340 525 OFFCURVE",
"308 525 CURVE SMOOTH",
"71 525 LINE SMOOTH"
);
},
{
closed = 1;
nodes = (
"143 650 OFFCURVE",
"117 624 OFFCURVE",
"117 589 CURVE SMOOTH",
"117 139 LINE SMOOTH",
"117 8 OFFCURVE",
"208 0 OFFCURVE",
"264 0 CURVE SMOOTH",
"311 0 OFFCURVE",
"360 27 OFFCURVE",
"360 64 CURVE SMOOTH",
"360 95 OFFCURVE",
"341 113 OFFCURVE",
"323 113 CURVE SMOOTH",
"306 113 OFFCURVE",
"294 104 OFFCURVE",
"278 104 CURVE SMOOTH",
"255 104 OFFCURVE",
"237 115 OFFCURVE",
"237 144 CURVE SMOOTH",
"237 589 LINE SMOOTH",
"237 624 OFFCURVE",
"212 650 OFFCURVE",
"178 650 CURVE SMOOTH"
);
}
);
width = 409;
}
);
leftKerningGroup = t;
note = t;
rightKerningGroup = t;
unicode = 0074;
},
{
glyphname = u;
lastChange = "2016-08-08 16:05:33 +0000";
layers = (
{
anchors = (
{
name = bottom;
position = "{282, 0}";
},
{
name = ogonek;
position = "{507, 10}";
},
{
name = top;
position = "{282, 499}";
},
{
name = topright;
position = "{384, 496}";
}
);
layerId = "254266E2-2911-423D-9D37-8CC6105656EE";
paths = (
{
closed = 1;
nodes = (
"448 499 OFFCURVE",
"440 490 OFFCURVE",
"440 479 CURVE SMOOTH",
"440 188 LINE SMOOTH",
"440 86 OFFCURVE",
"379 32 OFFCURVE",
"281 32 CURVE SMOOTH",
"184 32 OFFCURVE",
"123 86 OFFCURVE",
"123 188 CURVE SMOOTH",
"123 479 LINE SMOOTH",
"123 490 OFFCURVE",
"115 499 OFFCURVE",
"103 499 CURVE SMOOTH",
"92 499 OFFCURVE",
"83 490 OFFCURVE",
"83 479 CURVE SMOOTH",
"83 188 LINE SMOOTH",
"83 59 OFFCURVE",
"162 -6 OFFCURVE",
"281 -6 CURVE SMOOTH",
"401 -6 OFFCURVE",
"480 59 OFFCURVE",
"480 188 CURVE SMOOTH",
"480 479 LINE SMOOTH",
"480 490 OFFCURVE",
"472 499 OFFCURVE",
"460 499 CURVE SMOOTH"
);
}
);
width = 563;
},
{
anchors = (
{
name = bottom;
position = "{294, 0}";
},
{
name = ogonek;
position = "{528, 10}";
},
{
name = top;
position = "{294, 515}";
},
{
name = topright;
position = "{376, 547}";
}
);
layerId = "8816CCA3-DDF9-4C51-BD56-64EE3675A105";
paths = (
{
closed = 1;
nodes = (
"427 535 OFFCURVE",
"402 509 OFFCURVE",
"402 474 CURVE",
"402 220 LINE",
"402 138 OFFCURVE",
"366 100 OFFCURVE",
"293 100 CURVE",
"221 100 OFFCURVE",
"185 138 OFFCURVE",
"185 220 CURVE",
"185 474 LINE",
"185 509 OFFCURVE",
"160 535 OFFCURVE",
"125 535 CURVE",
"90 535 OFFCURVE",
"65 509 OFFCURVE",
"65 474 CURVE",
"65 220 LINE",
"65 78 OFFCURVE",
"145 -10 OFFCURVE",
"293 -10 CURVE",
"441 -10 OFFCURVE",
"522 78 OFFCURVE",
"522 220 CURVE",
"522 474 LINE",
"522 509 OFFCURVE",
"497 535 OFFCURVE",
"462 535 CURVE"
);
}
);
width = 587;
}
);
leftKerningGroup = u;
leftMetricsKey = n;
note = u;
rightKerningGroup = u;
rightMetricsKey = n;
unicode = 0075;
},
{
glyphname = uogonek;
lastChange = "2016-08-08 18:21:01 +0000";
layers = (
{
layerId = "254266E2-2911-423D-9D37-8CC6105656EE";
paths = (
{
closed = 1;
nodes = (
"418 -185 OFFCURVE",
"449 -163 OFFCURVE",
"449 -136 CURVE",
"449 -129 OFFCURVE",
"444 -122 OFFCURVE",
"435 -122 CURVE",
"426 -122 OFFCURVE",
"422 -130 OFFCURVE",
"415 -136 CURVE SMOOTH",
"409 -142 OFFCURVE",
"400 -148 OFFCURVE",
"382 -148 CURVE",
"349 -148 OFFCURVE",
"317 -123 OFFCURVE",
"317 -80 CURVE",
"317 -21 OFFCURVE",
"354 -2 OFFCURVE",
"396 20 CURVE",
"450 49 OFFCURVE",
"480 107 OFFCURVE",
"480 188 CURVE",
"480 479 LINE",
"480 490 OFFCURVE",
"472 499 OFFCURVE",
"460 499 CURVE",
"448 499 OFFCURVE",
"440 490 OFFCURVE",
"440 479 CURVE",
"440 188 LINE",
"440 86 OFFCURVE",
"379 32 OFFCURVE",
"281 32 CURVE",
"184 32 OFFCURVE",
"123 86 OFFCURVE",
"123 188 CURVE",
"123 479 LINE",
"123 490 OFFCURVE",
"115 499 OFFCURVE",
"103 499 CURVE",
"92 499 OFFCURVE",
"83 490 OFFCURVE",
"83 479 CURVE",
"83 188 LINE",
"83 59 OFFCURVE",
"162 -6 OFFCURVE",
"281 -6 CURVE",
"304 -6 OFFCURVE",
"326 -4 OFFCURVE",
"346 1 CURVE",
"375 36 LINE",
"328 20 OFFCURVE",
"279 -11 OFFCURVE",
"279 -88 CURVE",
"279 -147 OFFCURVE",
"328 -185 OFFCURVE",
"377 -185 CURVE"
);
}
);
width = 563;
},
{
layerId = "8816CCA3-DDF9-4C51-BD56-64EE3675A105";
paths = (
{
closed = 1;
nodes = (
"434 -207 OFFCURVE",
"490 -165 OFFCURVE",
"490 -132 CURVE",
"490 -102 OFFCURVE",
"470 -84 OFFCURVE",
"446 -84 CURVE",
"436 -84 OFFCURVE",
"417 -86 OFFCURVE",
"405 -102 CURVE",
"399 -110 OFFCURVE",
"392 -114 OFFCURVE",
"384 -114 CURVE",
"363 -114 OFFCURVE",
"343 -96 OFFCURVE",
"343 -72 CURVE",
"343 -17 OFFCURVE",
"409 15 OFFCURVE",
"451 44 CURVE",
"511 91 OFFCURVE",
"522 153 OFFCURVE",
"522 220 CURVE",
"522 474 LINE",
"522 509 OFFCURVE",
"497 535 OFFCURVE",
"462 535 CURVE",
"427 535 OFFCURVE",
"402 509 OFFCURVE",
"402 474 CURVE",
"402 220 LINE",
"402 138 OFFCURVE",
"366 100 OFFCURVE",
"293 100 CURVE",
"221 100 OFFCURVE",
"185 138 OFFCURVE",
"185 220 CURVE",
"185 474 LINE",
"185 509 OFFCURVE",
"160 535 OFFCURVE",
"125 535 CURVE",
"90 535 OFFCURVE",
"65 509 OFFCURVE",
"65 474 CURVE",
"65 220 LINE",
"65 78 OFFCURVE",
"145 -10 OFFCURVE",
"293 -10 CURVE",
"301 -10 OFFCURVE",
"310 -10 OFFCURVE",
"318 -10 CURVE",
"437 103 LINE",
"354 80 OFFCURVE",
"244 2 OFFCURVE",
"244 -88 CURVE",
"244 -159 OFFCURVE",
"302 -207 OFFCURVE",
"374 -207 CURVE"
);
}
);
width = 587;
}
);
leftKerningGroup = u;
leftMetricsKey = u;
note = uogonek;
rightKerningGroup = u;
rightMetricsKey = u;
unicode = 0173;
},
{
glyphname = v;
lastChange = "2016-07-20 13:36:17 +0000";
layers = (
{
anchors = (
{
name = bottom;
position = "{259, 0}";
},
{
name = top;
position = "{259, 499}";
}
);
layerId = "254266E2-2911-423D-9D37-8CC6105656EE";
paths = (
{
closed = 1;
nodes = (
"44 517 OFFCURVE",
"38 507 OFFCURVE",
"38 497 CURVE SMOOTH",
"38 494 OFFCURVE",
"39 491 OFFCURVE",
"40 488 CURVE",
"240 13 LINE",
"243 5 OFFCURVE",
"251 0 OFFCURVE",
"259 0 CURVE SMOOTH",
"267 0 OFFCURVE",
"275 5 OFFCURVE",
"278 13 CURVE",
"477 489 LINE SMOOTH",
"478 491 OFFCURVE",
"480 494 OFFCURVE",
"480 501 CURVE SMOOTH",
"480 511 OFFCURVE",
"468 517 OFFCURVE",
"461 517 CURVE SMOOTH",
"451 517 OFFCURVE",
"443 512 OFFCURVE",
"440 504 CURVE",
"252 54 LINE",
"262 61 LINE",
"77 504 LINE",
"74 512 OFFCURVE",
"66 517 OFFCURVE",
"59 517 CURVE"
);
}
);
width = 518;
},
{
anchors = (
{
name = bottom;
position = "{281, 0}";
},
{
name = top;
position = "{281, 515}";
}
);
layerId = "8816CCA3-DDF9-4C51-BD56-64EE3675A105";
paths = (
{
closed = 1;
nodes = (
"53 535 OFFCURVE",
"30 506 OFFCURVE",
"30 482 CURVE",
"30 467 OFFCURVE",
"34 457 OFFCURVE",
"37 450 CURVE",
"223 38 LINE",
"235 10 OFFCURVE",
"260 -4 OFFCURVE",
"286 0 CURVE",
"308 1 OFFCURVE",
"327 15 OFFCURVE",
"337 38 CURVE",
"524 450 LINE",
"528 459 OFFCURVE",
"532 471 OFFCURVE",
"532 480 CURVE",
"532 510 OFFCURVE",
"509 534 OFFCURVE",
"476 534 CURVE",
"453 535 OFFCURVE",
"434 521 OFFCURVE",
"423 496 CURVE",
"273 151 LINE",
"295 161 LINE",
"148 497 LINE",
"137 522 OFFCURVE",
"114 535 OFFCURVE",
"89 535 CURVE"
);
}
);
width = 562;
}
);
leftKerningGroup = v;
leftMetricsKey = v;
note = v;
rightKerningGroup = v;
rightMetricsKey = v;
unicode = 0076;
},
{
glyphname = w;
lastChange = "2016-09-19 13:06:22 +0000";
layers = (
{
anchors = (
{
name = bottom;
position = "{373, 0}";
},
{
name = top;
position = "{373, 479}";
}
);
layerId = "254266E2-2911-423D-9D37-8CC6105656EE";
paths = (
{
closed = 1;
nodes = (
"679 517 OFFCURVE",
"672 512 OFFCURVE",
"669 504 CURVE SMOOTH",
"522 44 LINE",
"542 44 LINE",
"389 397 LINE SMOOTH",
"386 405 OFFCURVE",
"378 410 OFFCURVE",
"370 410 CURVE SMOOTH",
"362 410 OFFCURVE",
"354 405 OFFCURVE",
"351 397 CURVE SMOOTH",
"209 45 LINE",
"226 45 LINE",
"77 504 LINE SMOOTH",
"74 512 OFFCURVE",
"67 517 OFFCURVE",
"59 517 CURVE SMOOTH",
"47 517 OFFCURVE",
"38 510 OFFCURVE",
"38 498 CURVE SMOOTH",
"38 496 OFFCURVE",
"39 491 OFFCURVE",
"40 488 CURVE SMOOTH",
"200 13 LINE SMOOTH",
"203 5 OFFCURVE",
"211 0 OFFCURVE",
"219 0 CURVE SMOOTH",
"227 0 OFFCURVE",
"235 5 OFFCURVE",
"238 13 CURVE SMOOTH",
"374 355 LINE",
"359 360 LINE",
"513 13 LINE",
"517 5 OFFCURVE",
"524 0 OFFCURVE",
"532 0 CURVE SMOOTH",
"540 0 OFFCURVE",
"547 5 OFFCURVE",
"551 13 CURVE",
"706 488 LINE SMOOTH",
"707 491 OFFCURVE",
"708 496 OFFCURVE",
"708 498 CURVE SMOOTH",
"708 511 OFFCURVE",
"698 517 OFFCURVE",
"687 517 CURVE SMOOTH"
);
}
);
width = 746;
},
{
anchors = (
{
name = bottom;
position = "{384, 0}";
},
{
name = top;
position = "{384, 515}";
}
);
background = {
paths = (
{
closed = 1;
nodes = (
"670 525 OFFCURVE",
"634 513 OFFCURVE",
"623 479 CURVE SMOOTH",
"534 207 LINE",
"542 211 LINE",
"451 388 LINE SMOOTH",
"440 406 OFFCURVE",
"423 425 OFFCURVE",
"394 425 CURVE SMOOTH",
"369 425 OFFCURVE",
"351 412 OFFCURVE",
"337 388 CURVE SMOOTH",
"246 211 LINE",
"252 209 LINE",
"165 479 LINE SMOOTH",
"154 513 OFFCURVE",
"118 525 OFFCURVE",
"86 512 CURVE SMOOTH",
"54 498 OFFCURVE",
"43 464 OFFCURVE",
"54 432 CURVE SMOOTH",
"187 38 LINE SMOOTH",
"196 11 OFFCURVE",
"224 -4 OFFCURVE",
"250 0 CURVE",
"272 1 OFFCURVE",
"290 15 OFFCURVE",
"301 38 CURVE SMOOTH",
"397 234 LINE",
"391 235 LINE",
"487 38 LINE SMOOTH",
"498 15 OFFCURVE",
"516 1 OFFCURVE",
"538 0 CURVE",
"564 -4 OFFCURVE",
"592 11 OFFCURVE",
"601 38 CURVE SMOOTH",
"734 432 LINE SMOOTH",
"745 464 OFFCURVE",
"734 498 OFFCURVE",
"702 512 CURVE SMOOTH"
);
}
);
};
layerId = "8816CCA3-DDF9-4C51-BD56-64EE3675A105";
paths = (
{
closed = 1;
nodes = (
"652 535 OFFCURVE",
"631 522 OFFCURVE",
"623 497 CURVE",
"500 167 LINE",
"530 171 LINE",
"439 418 LINE",
"429 442 OFFCURVE",
"416 455 OFFCURVE",
"387 455 CURVE",
"362 455 OFFCURVE",
"343 443 OFFCURVE",
"332 418 CURVE",
"241 171 LINE",
"266 169 LINE",
"145 497 LINE",
"137 523 OFFCURVE",
"115 535 OFFCURVE",
"90 535 CURVE",
"53 535 OFFCURVE",
"30 505 OFFCURVE",
"30 473 CURVE",
"30 465 OFFCURVE",
"31 458 OFFCURVE",
"34 450 CURVE",
"187 38 LINE",
"196 11 OFFCURVE",
"224 -4 OFFCURVE",
"250 0 CURVE",
"272 1 OFFCURVE",
"290 15 OFFCURVE",
"301 38 CURVE",
"394 322 LINE",
"368 323 LINE",
"467 38 LINE",
"478 15 OFFCURVE",
"496 1 OFFCURVE",
"518 0 CURVE",
"544 -4 OFFCURVE",
"572 11 OFFCURVE",
"581 38 CURVE",
"734 450 LINE",
"736 457 OFFCURVE",
"738 464 OFFCURVE",
"738 473 CURVE",
"738 509 OFFCURVE",
"712 535 OFFCURVE",
"681 535 CURVE"
);
}
);
width = 768;
}
);
leftKerningGroup = w;
leftMetricsKey = v;
note = w;
rightKerningGroup = w;
rightMetricsKey = v;
unicode = 0077;
},
{
glyphname = x;
lastChange = "2016-07-26 13:26:58 +0000";
layers = (
{
anchors = (
{
name = bottom;
position = "{242, 0}";
},
{
name = top;
position = "{242, 499}";
}
);
layerId = "254266E2-2911-423D-9D37-8CC6105656EE";
paths = (
{
closed = 1;
nodes = (
"50 510 OFFCURVE",
"40 501 OFFCURVE",
"40 489 CURVE SMOOTH",
"40 485 OFFCURVE",
"41 481 OFFCURVE",
"44 477 CURVE SMOOTH",
"406 5 LINE SMOOTH",
"411 -1 OFFCURVE",
"417 -4 OFFCURVE",
"423 -4 CURVE SMOOTH",
"433 -4 OFFCURVE",
"442 5 OFFCURVE",
"442 16 CURVE SMOOTH",
"442 20 OFFCURVE",
"441 24 OFFCURVE",
"438 28 CURVE",
"77 501 LINE SMOOTH",
"73 507 OFFCURVE",
"67 510 OFFCURVE",
"61 510 CURVE SMOOTH"
);
},
{
closed = 1;
nodes = (
"67 -4 OFFCURVE",
"73 -1 OFFCURVE",
"77 4 CURVE",
"245 223 LINE",
"221 254 LINE",
"46 27 LINE SMOOTH",
"43 23 OFFCURVE",
"42 19 OFFCURVE",
"42 15 CURVE SMOOTH",
"42 2 OFFCURVE",
"51 -4 OFFCURVE",
"61 -4 CURVE SMOOTH"
);
},
{
closed = 1;
nodes = (
"417 510 OFFCURVE",
"411 507 OFFCURVE",
"406 501 CURVE SMOOTH",
"241 281 LINE",
"262 246 LINE",
"437 480 LINE SMOOTH",
"440 484 OFFCURVE",
"442 489 OFFCURVE",
"442 493 CURVE SMOOTH",
"442 502 OFFCURVE",
"436 510 OFFCURVE",
"423 510 CURVE SMOOTH"
);
}
);
width = 483;
},
{
anchors = (
{
name = bottom;
position = "{244, 0}";
},
{
name = top;
position = "{244, 515}";
}
);
layerId = "8816CCA3-DDF9-4C51-BD56-64EE3675A105";
paths = (
{
closed = 1;
nodes = (
"44 535 OFFCURVE",
"15 509 OFFCURVE",
"15 475 CURVE SMOOTH",
"15 463 OFFCURVE",
"19 450 OFFCURVE",
"28 439 CURVE SMOOTH",
"362 24 LINE SMOOTH",
"375 7 OFFCURVE",
"392 -2 OFFCURVE",
"411 -2 CURVE SMOOTH",
"441 -2 OFFCURVE",
"472 25 OFFCURVE",
"472 59 CURVE SMOOTH",
"472 71 OFFCURVE",
"468 84 OFFCURVE",
"459 95 CURVE SMOOTH",
"125 510 LINE SMOOTH",
"112 526 OFFCURVE",
"94 535 OFFCURVE",
"76 535 CURVE SMOOTH"
);
},
{
closed = 1;
nodes = (
"95 -1 OFFCURVE",
"113 8 OFFCURVE",
"125 24 CURVE SMOOTH",
"246 177 LINE",
"186 277 LINE",
"33 90 LINE SMOOTH",
"23 78 OFFCURVE",
"18 65 OFFCURVE",
"18 52 CURVE SMOOTH",
"18 23 OFFCURVE",
"50 -1 OFFCURVE",
"77 -1 CURVE SMOOTH"
);
},
{
closed = 1;
nodes = (
"391 535 OFFCURVE",
"375 526 OFFCURVE",
"362 508 CURVE SMOOTH",
"239 345 LINE",
"302 258 LINE",
"453 442 LINE SMOOTH",
"463 454 OFFCURVE",
"467 468 OFFCURVE",
"467 481 CURVE SMOOTH",
"467 509 OFFCURVE",
"442 535 OFFCURVE",
"410 535 CURVE SMOOTH"
);
}
);
width = 487;
}
);
leftKerningGroup = x;
note = x;
rightKerningGroup = x;
unicode = 0078;
},
{
glyphname = y;
lastChange = "2016-07-29 20:07:04 +0000";
layers = (
{
anchors = (
{
name = bottom;
position = "{281, 0}";
},
{
name = top;
position = "{281, 499}";
}
);
layerId = "254266E2-2911-423D-9D37-8CC6105656EE";
paths = (
{
closed = 1;
nodes = (
"447 515 OFFCURVE",
"439 506 OFFCURVE",
"439 495 CURVE",
"439 183 LINE",
"439 106 OFFCURVE",
"350 28 OFFCURVE",
"261 28 CURVE",
"161 28 OFFCURVE",
"123 88 OFFCURVE",
"123 183 CURVE",
"123 495 LINE",
"123 506 OFFCURVE",
"115 515 OFFCURVE",
"103 515 CURVE",
"91 515 OFFCURVE",
"83 506 OFFCURVE",
"83 495 CURVE",
"83 183 LINE",
"83 68 OFFCURVE",
"136 -10 OFFCURVE",
"261 -10 CURVE",
"336 -10 OFFCURVE",
"412 37 OFFCURVE",
"441 98 CURVE",
"439 123 LINE",
"439 49 LINE",
"439 -77 OFFCURVE",
"361 -164 OFFCURVE",
"245 -164 CURVE",
"188 -164 OFFCURVE",
"139 -140 OFFCURVE",
"116 -126 CURVE",
"106 -120 OFFCURVE",
"95 -125 OFFCURVE",
"90 -135 CURVE",
"85 -146 OFFCURVE",
"91 -155 OFFCURVE",
"101 -162 CURVE",
"132 -183 OFFCURVE",
"181 -200 OFFCURVE",
"243 -200 CURVE",
"378 -200 OFFCURVE",
"479 -105 OFFCURVE",
"479 49 CURVE",
"479 495 LINE",
"479 506 OFFCURVE",
"471 515 OFFCURVE",
"459 515 CURVE"
);
}
);
width = 562;
},
{
anchors = (
{
name = bottom;
position = "{582, 0}";
},
{
name = top;
position = "{294, 515}";
}
);
layerId = "8816CCA3-DDF9-4C51-BD56-64EE3675A105";
paths = (
{
closed = 1;
nodes = (
"427 535 OFFCURVE",
"402 509 OFFCURVE",
"402 474 CURVE SMOOTH",
"402 218 LINE SMOOTH",
"402 141 OFFCURVE",
"362 100 OFFCURVE",
"293 100 CURVE SMOOTH",
"225 100 OFFCURVE",
"185 131 OFFCURVE",
"185 218 CURVE SMOOTH",
"185 474 LINE SMOOTH",
"185 509 OFFCURVE",
"160 535 OFFCURVE",
"125 535 CURVE SMOOTH",
"90 535 OFFCURVE",
"65 509 OFFCURVE",
"65 474 CURVE SMOOTH",
"65 182 LINE SMOOTH",
"65 70 OFFCURVE",
"135 -10 OFFCURVE",
"241 -10 CURVE SMOOTH",
"331 -10 OFFCURVE",
"390 22 OFFCURVE",
"424 88 CURVE",
"403 112 LINE",
"403 45 LINE",
"403 -57 OFFCURVE",
"356 -90 OFFCURVE",
"265 -90 CURVE SMOOTH",
"219 -90 OFFCURVE",
"184 -71 OFFCURVE",
"163 -64 CURVE SMOOTH",
"134 -54 OFFCURVE",
"104 -67 OFFCURVE",
"92 -106 CURVE SMOOTH",
"83 -136 OFFCURVE",
"98 -163 OFFCURVE",
"138 -180 CURVE SMOOTH",
"169 -193 OFFCURVE",
"222 -200 OFFCURVE",
"265 -200 CURVE SMOOTH",
"408 -200 OFFCURVE",
"522 -135 OFFCURVE",
"522 49 CURVE SMOOTH",
"522 474 LINE SMOOTH",
"522 509 OFFCURVE",
"497 535 OFFCURVE",
"462 535 CURVE SMOOTH"
);
}
);
width = 587;
}
);
leftKerningGroup = y;
leftMetricsKey = n;
note = y;
rightKerningGroup = y;
rightMetricsKey = n;
unicode = 0079;
},
{
glyphname = z;
lastChange = "2016-07-29 20:07:14 +0000";
layers = (
{
anchors = (
{
name = bottom;
position = "{234, 0}";
},
{
name = top;
position = "{262, 499}";
}
);
layerId = "254266E2-2911-423D-9D37-8CC6105656EE";
paths = (
{
closed = 1;
nodes = (
"87 38 LINE",
"102 33 LINE",
"422 481 LINE",
"425 485 OFFCURVE",
"427 490 OFFCURVE",
"427 495 CURVE",
"426 506 OFFCURVE",
"418 515 OFFCURVE",
"407 515 CURVE",
"101 515 LINE",
"90 515 OFFCURVE",
"81 507 OFFCURVE",
"81 496 CURVE",
"81 486 OFFCURVE",
"90 477 OFFCURVE",
"101 477 CURVE",
"382 477 LINE",
"377 485 LINE",
"55 33 LINE",
"52 29 OFFCURVE",
"50 25 OFFCURVE",
"50 20 CURVE SMOOTH",
"50 13 OFFCURVE",
"58 0 OFFCURVE",
"71 0 CURVE",
"397 0 LINE",
"408 0 OFFCURVE",
"417 8 OFFCURVE",
"417 19 CURVE",
"417 28 OFFCURVE",
"408 38 OFFCURVE",
"397 38 CURVE"
);
}
);
width = 477;
},
{
anchors = (
{
name = bottom;
position = "{242, 0}";
},
{
name = top;
position = "{242, 515}";
}
);
layerId = "8816CCA3-DDF9-4C51-BD56-64EE3675A105";
paths = (
{
closed = 1;
nodes = (
"192 110 LINE",
"192 104 LINE",
"437 421 LINE",
"452 439 OFFCURVE",
"453 452 OFFCURVE",
"454 465 CURVE",
"457 499 OFFCURVE",
"432 525 OFFCURVE",
"401 525 CURVE",
"93 525 LINE",
"61 525 OFFCURVE",
"37 502 OFFCURVE",
"37 471 CURVE",
"37 439 OFFCURVE",
"61 415 OFFCURVE",
"93 415 CURVE",
"296 415 LINE",
"298 429 LINE",
"49 107 LINE",
"33 87 OFFCURVE",
"31 74 OFFCURVE",
"30 54 CURVE",
"29 30 OFFCURVE",
"50 0 OFFCURVE",
"84 0 CURVE",
"406 0 LINE",
"438 0 OFFCURVE",
"462 24 OFFCURVE",
"462 55 CURVE",
"462 87 OFFCURVE",
"438 110 OFFCURVE",
"406 110 CURVE"
);
}
);
width = 484;
}
);
leftKerningGroup = z;
note = z;
rightKerningGroup = z;
unicode = 007A;
},
{
glyphname = a.ss01;
lastChange = "2016-09-19 13:44:16 +0000";
layers = (
{
anchors = (
{
name = bottom;
position = "{258, 0}";
},
{
name = ogonek;
position = "{503, 0}";
},
{
name = top;
position = "{265, 515}";
}
);
layerId = "254266E2-2911-423D-9D37-8CC6105656EE";
paths = (
{
closed = 1;
nodes = (
"156 28 OFFCURVE",
"92 73 OFFCURVE",
"92 148 CURVE",
"92 222 OFFCURVE",
"157 266 OFFCURVE",
"241 266 CURVE",
"329 266 OFFCURVE",
"391 222 OFFCURVE",
"391 148 CURVE",
"391 74 OFFCURVE",
"330 28 OFFCURVE",
"242 28 CURVE"
);
},
{
closed = 1;
nodes = (
"309 -10 OFFCURVE",
"372 20 OFFCURVE",
"406 85 CURVE",
"388 60 LINE",
"399 28 OFFCURVE",
"421 0 OFFCURVE",
"454 0 CURVE",
"484 0 OFFCURVE",
"524 15 OFFCURVE",
"524 32 CURVE",
"524 41 OFFCURVE",
"517 50 OFFCURVE",
"507 50 CURVE",
"489 50 OFFCURVE",
"480 36 OFFCURVE",
"463 36 CURVE",
"447 36 OFFCURVE",
"428 51 OFFCURVE",
"428 85 CURVE",
"428 365 LINE",
"428 478 OFFCURVE",
"350 515 OFFCURVE",
"249 515 CURVE",
"172 515 OFFCURVE",
"97 479 OFFCURVE",
"58 419 CURVE",
"55 415 OFFCURVE",
"54 411 OFFCURVE",
"54 407 CURVE",
"54 398 OFFCURVE",
"61 389 OFFCURVE",
"71 389 CURVE",
"78 389 OFFCURVE",
"83 392 OFFCURVE",
"88 398 CURVE",
"118 443 OFFCURVE",
"184 477 OFFCURVE",
"246 477 CURVE",
"324 477 OFFCURVE",
"388 441 OFFCURVE",
"388 362 CURVE",
"388 215 LINE",
"397 228 LINE",
"370 273 OFFCURVE",
"303 304 OFFCURVE",
"239 304 CURVE",
"148 304 OFFCURVE",
"52 245 OFFCURVE",
"52 146 CURVE",
"52 63 OFFCURVE",
"116 -10 OFFCURVE",
"221 -10 CURVE"
);
}
);
width = 529;
},
{
anchors = (
{
name = bottom;
position = "{302, 0}";
},
{
name = ogonek;
position = "{547, 0}";
},
{
name = top;
position = "{272, 515}";
}
);
layerId = "8816CCA3-DDF9-4C51-BD56-64EE3675A105";
paths = (
{
closed = 1;
nodes = (
"202 90 OFFCURVE",
"161 118 OFFCURVE",
"161 168 CURVE",
"161 218 OFFCURVE",
"202 247 OFFCURVE",
"266 247 CURVE",
"330 247 OFFCURVE",
"370 218 OFFCURVE",
"370 168 CURVE",
"370 118 OFFCURVE",
"330 90 OFFCURVE",
"266 90 CURVE"
);
},
{
closed = 1;
nodes = (
"294 -10 OFFCURVE",
"365 40 OFFCURVE",
"389 93 CURVE",
"357 83 LINE",
"365 40 OFFCURVE",
"395 0 OFFCURVE",
"444 0 CURVE",
"503 0 OFFCURVE",
"550 33 OFFCURVE",
"550 80 CURVE",
"550 108 OFFCURVE",
"535 118 OFFCURVE",
"522 118 CURVE",
"505 118 OFFCURVE",
"496 109 OFFCURVE",
"488 109 CURVE",
"482 109 OFFCURVE",
"477 117 OFFCURVE",
"477 129 CURVE",
"476 346 LINE",
"475 487 OFFCURVE",
"383 545 OFFCURVE",
"264 545 CURVE",
"153 545 OFFCURVE",
"87 500 OFFCURVE",
"59 470 CURVE",
"42 452 OFFCURVE",
"40 437 OFFCURVE",
"40 424 CURVE",
"40 395 OFFCURVE",
"70 367 OFFCURVE",
"96 367 CURVE",
"113 367 OFFCURVE",
"129 375 OFFCURVE",
"141 388 CURVE",
"173 426 OFFCURVE",
"223 435 OFFCURVE",
"261 435 CURVE",
"312 435 OFFCURVE",
"357 404 OFFCURVE",
"357 339 CURVE",
"357 246 LINE",
"445 161 LINE",
"445 252 OFFCURVE",
"376 344 OFFCURVE",
"251 344 CURVE",
"149 344 OFFCURVE",
"41 283 OFFCURVE",
"41 161 CURVE",
"41 68 OFFCURVE",
"105 -10 OFFCURVE",
"220 -10 CURVE"
);
}
);
width = 565;
}
);
leftKerningGroup = a;
},
